<mxfile host="65bd71144e">
    <diagram id="YajdZV5WnL0bHLFlH9AV" name="Page-1">
        <mxGraphModel dx="2136" dy="1572" grid="1" gridSize="10" guides="1" tooltips="1" connect="1" arrows="1" fold="1" page="1" pageScale="1" pageWidth="1600" pageHeight="900" math="0" shadow="0">
            <root>
                <mxCell id="0"/>
                <mxCell id="1" parent="0"/>
                <mxCell id="95" value="" style="rounded=1;whiteSpace=wrap;html=1;dashed=1;dashPattern=8 8;strokeWidth=3;fontSize=21;fillColor=none;" vertex="1" parent="1">
                    <mxGeometry x="1070" y="210" width="960" height="720" as="geometry"/>
                </mxCell>
                <mxCell id="92" value="" style="rounded=1;whiteSpace=wrap;html=1;fontSize=12;dashed=1;fillColor=none;dashPattern=8 8;strokeWidth=3;" vertex="1" parent="1">
                    <mxGeometry x="120" y="210" width="940" height="720" as="geometry"/>
                </mxCell>
                <mxCell id="3" value="" style="shape=flexArrow;endArrow=classic;html=1;fontSize=20;" edge="1" parent="1">
                    <mxGeometry width="50" height="50" relative="1" as="geometry">
                        <mxPoint x="130" y="470" as="sourcePoint"/>
                        <mxPoint x="310" y="470" as="targetPoint"/>
                    </mxGeometry>
                </mxCell>
                <mxCell id="4" value="&lt;font style=&quot;font-size: 14px;&quot;&gt;Input:&lt;br&gt;Current [mA]&lt;br&gt;Voltage [mv]&lt;br&gt;Set state [ON/OFF]&lt;/font&gt;" style="edgeLabel;html=1;align=center;verticalAlign=middle;resizable=0;points=[];fontSize=20;" vertex="1" connectable="0" parent="3">
                    <mxGeometry x="0.2556" y="-10" relative="1" as="geometry">
                        <mxPoint x="-33" y="-10" as="offset"/>
                    </mxGeometry>
                </mxCell>
                <mxCell id="9" value="&lt;font style=&quot;font-size: 14px;&quot;&gt;OFF&lt;/font&gt;" style="edgeStyle=orthogonalEdgeStyle;html=1;fontSize=20;" edge="1" parent="1" source="5">
                    <mxGeometry x="0.3333" relative="1" as="geometry">
                        <mxPoint x="490" y="370" as="targetPoint"/>
                        <Array as="points">
                            <mxPoint x="395" y="370"/>
                        </Array>
                        <mxPoint as="offset"/>
                    </mxGeometry>
                </mxCell>
                <mxCell id="10" style="edgeStyle=orthogonalEdgeStyle;html=1;fontSize=14;" edge="1" parent="1" source="5">
                    <mxGeometry relative="1" as="geometry">
                        <mxPoint x="490" y="570" as="targetPoint"/>
                        <Array as="points">
                            <mxPoint x="395" y="570"/>
                            <mxPoint x="480" y="570"/>
                        </Array>
                    </mxGeometry>
                </mxCell>
                <mxCell id="11" value="ON" style="edgeLabel;html=1;align=center;verticalAlign=middle;resizable=0;points=[];fontSize=14;" vertex="1" connectable="0" parent="10">
                    <mxGeometry x="0.3228" y="1" relative="1" as="geometry">
                        <mxPoint as="offset"/>
                    </mxGeometry>
                </mxCell>
                <mxCell id="5" value="&lt;font style=&quot;font-size: 14px;&quot;&gt;Output set&lt;br&gt;&amp;nbsp;state&lt;/font&gt;" style="rhombus;whiteSpace=wrap;html=1;fontSize=20;" vertex="1" parent="1">
                    <mxGeometry x="340" y="420" width="110" height="100" as="geometry"/>
                </mxCell>
                <mxCell id="7" value="" style="endArrow=classic;html=1;fontSize=20;" edge="1" parent="1" target="5">
                    <mxGeometry width="50" height="50" relative="1" as="geometry">
                        <mxPoint x="310" y="470" as="sourcePoint"/>
                        <mxPoint x="490" y="410" as="targetPoint"/>
                    </mxGeometry>
                </mxCell>
                <mxCell id="12" value="&lt;font style=&quot;font-size: 12px;&quot;&gt;Volage near Vbat?&lt;/font&gt;" style="rhombus;whiteSpace=wrap;html=1;fontSize=14;" vertex="1" parent="1">
                    <mxGeometry x="490" y="330" width="80" height="80" as="geometry"/>
                </mxCell>
                <mxCell id="13" value="" style="endArrow=classic;html=1;fontSize=12;exitX=0.5;exitY=0;exitDx=0;exitDy=0;" edge="1" parent="1" source="12">
                    <mxGeometry width="50" height="50" relative="1" as="geometry">
                        <mxPoint x="530" y="300" as="sourcePoint"/>
                        <mxPoint x="640" y="270" as="targetPoint"/>
                        <Array as="points">
                            <mxPoint x="530" y="270"/>
                        </Array>
                    </mxGeometry>
                </mxCell>
                <mxCell id="14" value="YES" style="edgeLabel;html=1;align=center;verticalAlign=middle;resizable=0;points=[];fontSize=12;" vertex="1" connectable="0" parent="13">
                    <mxGeometry x="0.4222" y="-3" relative="1" as="geometry">
                        <mxPoint x="-15" y="-3" as="offset"/>
                    </mxGeometry>
                </mxCell>
                <mxCell id="15" value="" style="endArrow=classic;html=1;fontSize=12;exitX=1;exitY=0.5;exitDx=0;exitDy=0;" edge="1" parent="1" source="12">
                    <mxGeometry width="50" height="50" relative="1" as="geometry">
                        <mxPoint x="650" y="420" as="sourcePoint"/>
                        <mxPoint x="640" y="370" as="targetPoint"/>
                    </mxGeometry>
                </mxCell>
                <mxCell id="16" value="NO" style="edgeLabel;html=1;align=center;verticalAlign=middle;resizable=0;points=[];fontSize=12;" vertex="1" connectable="0" parent="15">
                    <mxGeometry x="0.4143" y="1" relative="1" as="geometry">
                        <mxPoint x="-19" y="1" as="offset"/>
                    </mxGeometry>
                </mxCell>
                <mxCell id="17" value="State: OFF&lt;br&gt;Status: OK" style="rounded=1;whiteSpace=wrap;html=1;fontSize=14;fillColor=#d5e8d4;strokeColor=#82b366;" vertex="1" parent="1">
                    <mxGeometry x="640" y="330" width="120" height="70" as="geometry"/>
                </mxCell>
                <mxCell id="18" value="State: OFF&lt;br&gt;Status: SHORT TO VS or LATCHED in pin" style="rounded=1;whiteSpace=wrap;html=1;fontSize=14;fillColor=#f8cecc;strokeColor=#b85450;" vertex="1" parent="1">
                    <mxGeometry x="640" y="230" width="120" height="70" as="geometry"/>
                </mxCell>
                <mxCell id="20" value="Validate ADC data integrity" style="rounded=0;whiteSpace=wrap;html=1;fontSize=14;" vertex="1" parent="1">
                    <mxGeometry x="270" y="620" width="120" height="60" as="geometry"/>
                </mxCell>
                <mxCell id="21" value="Voltage ~Vbat?" style="rounded=1;whiteSpace=wrap;html=1;fontSize=14;" vertex="1" parent="1">
                    <mxGeometry x="490" y="540" width="120" height="60" as="geometry"/>
                </mxCell>
                <mxCell id="22" value="" style="shape=image;verticalLabelPosition=bottom;labelBackgroundColor=default;verticalAlign=top;aspect=fixed;imageAspect=0;image=data:image/png,iVBORw0KGgoAAAANSUhEUgAABJAAAAHfCAYAAAAP5iI3AAAgAElEQVR4AeydC1hVxfr/17Nh/8EApSAJw/6IIQXe0DQFJdQkUzO1TDumR08qZlZqHfVX/ryUmPejpWZ6wmMe8Wh5MDJNTJGiLBWPNwqNJPKu/PGIF3Qjz/f/rMvMmtnsvWFz8fr6PD57sfdaM/N+5p13Zt41847Srl1H0H9iQDpAOkA6QDpAOkA6QDpAOkA6QDpAOkA6QDpAOkA6QDrgTAcUZz/Q96Q0pAOkA6QDpAOkA6QDpAOkA6QDpAOkA6QDpAOkA6QDpAOqDii+vn6g/8SAdIB0gHSAdIB0gHSAdIB0gHSAdIB0gHSAdIB0gHSAdMCZDiigf0SACBABIkAEiAARIAJEgAgQASJABIgAESACRMAFAXIguYBDPxEBIkAEiAARIAJEgAgQASJABIgAESACRIAIAORAIi0gAkSACBABIkAEiAARIAJEgAgQASJABIgAEXBJgBxILvHQj0SACBABIkAEiAARIAJEgAgQASJABIgAESAC5EAiHSACRIAIEAEiQASIABEgAkSACBABIkAEiAARcEmAHEgu8dCPRIAIEAEiQASIABEgAkSACBABIkAEiAARIALkQCIdIAJEgAgQASJABIgAESACRIAIEAEiQASIABFwSYAcSC7x0I9EgAgQASJABIgAESACRIAIEAEiQASIABEgAuRAIh0gAkSACBABIkAEiAARIAJEgAgQASJABIgAEXBJgBxILvHQj0SACBABIkAEiAARIAJEgAgQASJABIgAESAC5EAiHSACRIAIEAEiQASIABEgAkSACBABIkAEiAARcEmAHEgu8dCPRIAIEAEiQASIABEgAkSACBABIkAEiAARIALkQCIdIAJEgAgQASJABIgAESACRIAIEAEiQASIABFwSYAcSC7x0I9EgAgQASJABIgAEbgDCGQlIT7+ZaTk3wGykAhEgAgQASJABIjATSFADqSbgp0yJQJEgAgQASJABIhAzRPIT3kZ8fHxiI9PQpaQfP7uyUhQfBH2jvitcANdEgEiQASIABEgAkSgAgLkQKoAEP1MBIgAESACRIAIEIFbn0AWkuLj0SbMF4qiQFEGYYNQ6EuXCrApsTGUoGdpFZLAhS6JABEgAkSACBCByhMgB1LlWdGdRIAIEAEiQASIABG4RQmcw88ZGchYkYjGDhxIaqEvpfSBovii699pH9stWolULCJABIgAESACtzQBciDd0tXjXuGK83Zhx44d+v9deSiuzOMnD5rP7DiIk5V5hu4hAtUhYMtD2qSB6NGtBwZOSkOerTqJ1f6zVWpXtV+sWzSHIuxePAq9u3VD71GLsbvoFi2mG8UqOX8E2YZdzT5yGudL3HiYbkXR7sUY1bsbuvUehcV3gkLUSp2exEHWd+/YgYPV7YgPzUILJw4knFuOBEWB78gttSIJJUoEiAARIAJEgAjc2QTIgXQj6ldy0hgOHmGwyJ0+xndVHTweWd4HUVFR+v8+y3GkMrJtnWA+EzUBWyvzTKXvseHYPtfy7sqrlJvLQY5i2reK46sE5wsOYadWjztxqOA87q65pg3F58TJ9jkUO3AOndkwHE0C68DTwxN1Aptg+IYzDur31vmqSu3KUfGL87DLRbvX7cAuVLlJOMqzxr8rRt4u1qYdtLvsuYgNqQurhwesdUMQOze7xktwwxJUHZ0Tn0fnmNZoYdjVFq37YtnPlSmBaAt2YOehgjvX8ST0b+XteTbmxoagrtUDHta6CImdi1tBI04eZDqsfjrQY6OKJedxTTh2nKrOVkxgfXdUFCZUtyN25UDCBgxSnUsxH4LWIDmtEPqBCBABIkAEiAARcEKAHEhOwNTo15KTxnDwCINF7vQxvqvq4PHQrBZG3AMFSotZOFQZITYMMp+xi5dQmcdd3/MbPnnOtbx9llfKzSVnU1KA7bMHokNLlnZNO77k7Cr+y4azPy7GiB6dEdM2Gs20emyG6LYx6NhtKJJSD+AOWIjhEkPJ4VRMGpCA2PbiZLs9Yrs8j9cWZ+KY4Egq/uLP8NPejqsxOvzw5y+q6kR0WaQa+7FK7cpR7keWo4+Ldq/bgT6oSpNwlF3tfJeLpb1ctLuc2WjJ61ZBy9k5tVOMWk/VhpyPe6FJgBcsqjzWQDTv0hMxHd7AFpfqWoKC7fPtbEEUmkW3RUzHbhgwKQUH7jBjYPt6HH8JUd6e52B2S7WdG/9bzsatoBFbJzAdVj/jMGO3YKC4bhVj0xvNuWxq+6xq38yTdHphOHUMToPEwEVOn3Hxg0sH0m5MbuzGGMFFNvQTESACRIAIEAEicPcRIAfSjahzyUkjDKbZoNrus6qDxypNdKWyyQE3q4/mEGa1YPL6ockTPdGzp/x/9Nqjlc+mOAdpc8diQNe2iAy+R5/YaexqutyVL5J6Z1HWdHRrFgI/T4s5UWJ16uGDoPBodE/6DoXuJXvb3G3LS8GwduEI9PYoL7/FC/VCotBhyGq+Iq6s6BD+NSsR/Xr2Q+KM1dhfVHZLy1qlduVIIj6pY23C0WcLzKqU59dRBjfiu6+R6MPK7aDdXTmObcvGY3DPnhg8/iNsyb9yIwpVC3nswXtRdbg+Nx37Ofbm5OLgwQIXW4OLkJX0DNpGNnBsCxQPeAeGIbr7JKSLHtVaKP2NTPK3D9pzTi3KKe8VHN+2DOMH90TPwePx0ZZ83AoasWEQ02H10xOhb32Lci6kM+vxYoB4n4Kq9s0V18eNdCAZ/XJlXzJVXHi6gwgQASJABIgAEbiLCJAD6UZUdtYc2XHyRBNhBYaCBq1lp8qcKp6wW6WJbq06kA5gRlM2AI/AmxtzkZsr/88vvFr5GjiyFE8H+8Pbg6XJPh1MZCufavXutO3GrPZBsDKHkXcworuo9RmDSH9vfWJljcDojSdxrXo53aJPn8D6IWHwsxh1YfVBkxhV/i6IDvExuPjjqb/tw0UuQRmu/L8C/Jr7KwoKL+M6//7WvKhSu3IkiuRAcuxQ7dlzNNzxqTrKpla/O5OMbkzXnaxYvFZ8Cvm5ucg/VYyrt7Zv0DmqMyvR05PZFwXPr63Y7XEi7VVEB1m5M0XhbUGwBSo7dTXToH/dMduHvnvrAS5zeQcSgGvFOJWfi9z8Uyi+RRRCdiApsIS8gq12K8tOrOkLf67rui7cGQ6kLRjpSyuQnDd++oUIEAEiQASIABFwRYAcSK7o1NRvxSdlx8nGNxEhDEx7LZadKiftBrIoOY/TR7J5sOudh044jC1TfqJrQ/EJIybPzkM44SggTaUcSEI6O7Jx5Fxx+be1DlmJqxUS8PdTDm+q/JdH12I0W8HUugGftNgfVVz5BGvgzoOz0ZJPNOtjwOJvsS9Hrc+DyM7ahnULEpE4YysKLjqeSduKT+DQTj0eR/YRxzGDxDgcLD6W+dxOHDrhvD7M+3ZgR/YRnHOkAwxDyXkcydbLUumYLcVfYEg9c6LdZmIa9hxU5c/Bvh+/w5aV4/HncZ9i/znBfSbFAnIc88dWfI6XxT5GmPo3i7VixjIx0zGDHmfjiKuIx1VuVwyYm5+SA8mxQzU3Nx/Mp2rKtgM7pKD4YhyiHdjBlAJAdXRFk6bkPAoO7TRsjdjWi3BY1dOUV9CE264umM5iOvEyVC4YcMn5ggr1HhDS4vKX4DyzhdlH3I8rJMrnpD0UHd5pJ6eCLtP1dsHFtK96227MaO1vror0T8C0z7cbbUG1BV9geoI/t1kWv0cxbptp6B3VW8mpCmy3UAaxnbtnR47qAcJ3/oKz4hKcSrQN27F9mp7MfMqTy9Vo+KeG7pjtUdJjZwArUS+quI44mbK7toUCLtg7kBRLMEZIexNPIKVPPS4X24LnzIEk2qtK2U7B1mYfVe135VYgmbatghh73NY4erli5NUnBZdEKHRNBIgAESACRIAIEIFKECAHUiUg1fgtfHDn+q3m2f+sQ9Ko3ujWMQbtWrfgsRiaRT+O2ISh5U60kRxIjQZhysS+6PS4EZOnWTQe79QXE1MPy4GdK3Ag8dg2LJ2oFmjdPhYJQ+cjs8JtGOKg+EWsL60myauF2soGbRXT4l7C4N7RILmaeVX28b3vCs5AXzy56JDg3CvD1fMFKBCdJyzdksNInTQACbGPI7qZHo+jRev2Wr3OzzwmOejEIM6jP/sF2+cPFZ5rhujHO6Hv7Cw5zpLtGNKT5PSjWrRG+9gueP61xXLd2c7ix8Uj0KNzDFq30MuixWzp/DwmplQQv+nyOvTjDgUFjV7bglNC5PDrl08h/8RFSO4zKRaQXcwfrSyqfO15WexjhKl/s1grZiyTJzH3231IkYIet0DrmK54dV2exLNa7ao62z6kdl/xVjVTtihESUHxj2B5HyGGixCYpUq6ouqk7Rgy5+s60Da6mWFrjLY+ahV+vrQd/6Pq6cP14cXrux4asphOvAyugwHbzv6IxSN6oHNM2/J6v71Atk0Q0npyLr7dl4KJz3dGDLOFLVojpuurWFeZY/wEHefyae0hAUPnb0eBoLPb/6eZnZwK6jXUeXMxWTtmn3umIoI7kv2QMGsXzkqrba7h3P6FeNaPOVstCB6TwfVSrLcR//hB1+N2gu2OTcCrKxy0xSrakQlbi3BgxatIiG2jBwhv9hq+/C/gTtv47ZPnND1pKDiQveo/bOiO2a4lPbYH6Ea9qKhFTpW2hayOhE/uQPKLQEQDtU4sCBy2ydyemJ+MbppcVkRENOZ9TTkHEudv2ivTdu6TnXJa/jYcy5yPoV1NW9uiTSwSXh2KLvcw3Si/Vc5sNyzGnB5jr/PzE5EiBtXKSkJ8fDzi24TBV2unQWiq/v1yirniLWscghQFjSfvFojQJREgAkSACBABIkAEKkeAHEiV41Szd0kTyfKDRZbZ1f/MR1yAFR6KFT5NYrRtcDFhxrYoDx+EPPYq0k6wuwHJgeQVgOAHHkTLLj3RpXmgvpXI4oWA8HaYkC5EcXXhQJJi27DtGDFN4GNV4OHTAFEJM7HTfIluFoRfiQ6kF7BKWDngciUMf97FhYtyu3iq5n8qSsVL/mzgb4Ffo1aITRiAsYs34ZDoSRFztuUhZVg7hAd6C3UbgyY+VigePmgQlYCZAlixXgOatEJkgwA8rG4Te7yhsUXMAq/gaEzgKxpsyF6QgEeD1PQVWAObo0vPnohpom4ps8C37Xv48b/MpVOErOnd0CzED54WBd7B0eiibj8L9oai6ktYWwxd5+KsnrL9mBltbtuxBkWiXeceGJGUgh+0N+ui4Ma1pP+iI0Utt1oWH73cPk0Q0zMGYd6MrwKlQWutHbDYWXwiqHihYbOWCGM6H8lWe3igbuNe+OSwWY5qtasb6EAyZbPfbiLGFlOgCLNa93VFdR7lIWV4B0Q10HVAMbZhdokOhrc1Aq989isulGZhjrr6T1r51wCt2YpAvu9WbPN2ti3/K4zr1gwhfp6wMJvWpTkCrYqu95GxGJYiOvuEtLwaolnLMDzwYEtNPyNZm/Ooi8a9PoFQvWZF86t8fDXO1HGrpldd0DxQ1VsP+DSIROywFDA/VNacnujpZJsxF5OnrV/kL4mDJ3esdcXSkw685WVF+NcLftwZYWn2Pg4a6Yj1dl/jZgh74D48EiPYbsUDdUPb4i3RdlfDjjRLeB5tQ+tq7UxbXRM6Ad+XAu60jaNrR6NnzyfQhDvFFPg1ecLYrm1uxZT0WNBVwL16UVGJnCpnC+0qyviTl8nzOYweaaxmDeiHdUZ/enhRB90BY30KY19ryutMKn5xNhb/idlxZjsNe6XZzpboNl127Kvx8hKiGsBH24ZtRWDzLugZ0wR1A+9DPWFrtpRPURam83bjjeDoLujZJRrB3gosXgEIazsU3ESf+xkZGRnl/+8u4KuN8j+MgaI0xrhMWn/kWDvoWyJABIgAESACRMAVAXIguaJTW79JE2i7SZaY56XfsO698Zi3Zgu+23NQ2wZ38PulGKi9MVWgWPwRv8ScOomDa8UagcTkTC3wa87er/BeJzZxsSCgy8fmhMuZI8aWg497sdg2jTEs2diOcXAP0ibF6I4LazAGr3dxBHv+h4jhk6r78YiwcqB9bAKGLv7RwRtaEYCLa2fldvFIrfxUVoSfFvZFQ3USzGT18IZ/SASi23VGjxHzsemw4LCDfrpTmJ8ecLvxsGRs1+r2IPakTUKMlo4VwYPXg5GV6lXxR8L0L7BL3Sa2/xtMimH5WhD81neGiAcxhzt17sWLH+9FTm4uDu7Zjs8XzMCirQVgO+qK0t/icVv8Ok3DFzv3IUfdfvYt0zML/Fq+7+Lo7Sv4ff1beIxN6FUGFk/4BYWhmfpmfcAkrPhJXlEFSf8FB1Lx1xj1IHNGNcXYtXtwMPcgdv3rDTRlbB8ajX+r8XWMfV58Iqj+Lup89jIMrM/Y1MFTn/xhVn912lWNOZAaYfin+rYocYueuMNHkk3Kt3IOJKVSugIc/qQXmD4qfp0wZb2+DTNn306kb8kytl8W46Qav0xa+dcLi1lMM77vVnD6KKJtO4G0EU1xr9FO/Dq9hzRV73P2IvOjgWig1a8FfmH9sZr7K+W0rBGJSM5UdTkH2csGoj7TiTpPQaxes6L1qxNpI9D0XkOv/DrhvTRVr3KwN/MjbkstfmHob2RcfDIXuU62GXMx7TIR4wApjSdhF/PP2t23990I0054DcMm43epjVsjMGz5Vm37m3PbXT074lWnDixWH4SozgjVufzqWn0Foxtt42phPnJzN+LNCNbOFES8udHYrm1uxZT0WPCMuFsvKiqJUyX1264KtD/NMsVgxicjDf2rhz4pqgfpMD6I0QOoW59ajk9H+PA6M4tvQ/a8JxByj3FwQuNhWPGtajsPYtcXbxt2XIE1qD2mZrG3LIfxcYIZL88/YQa+2puD3IN7sHX5EDRm+iy1myKkvxWNIK3d+KHTtC+wc18OcnP24dulRrux+KHl+9mOxHTwXRbeCfOFkrAABeQ/csCHviICRIAIEAEiQAQqIkAOpIoI1cbv0gRanGTZZ1aGi2dPoahEDTNsQ/G50yg4sAUT2pgD9jpDN/JtENLgOvwtZDIvAa7h7Ce9jNUqChRxwuXMEbPnPUTVMfKp3wt/27idx2BKX/KCtgRedZj4j/7GvtDm36c2YLi2YkpYQaWtglHT9YBPSDN0W5BtlN8urguLrcJjn5jJalfOym13243481rREWSumoJeXDZWPxZ4+jVAROvumLTtpFEU8XSn+uj1t43YzmRNX4IXgoxn/UeDkZXqtfFobOJb4kqx/kWWlwJL/FLobpL9SIpk3/8fhPWajU2HTqEE6pa6QvyXhyM6g89fDOBxW1q+/hnSWVm2p5l65hmHJXxSX55o2cUT2J26AIkdguEtTIJU/fDwDkRo8w4YviLH3B4i6b/gQDryNzzOn38ePG7xlbV4nn0vTLrVkpgTQQXKUwuFWFMiAwX3vb5dKHg12pXkyBGSrMylJLcX6j8sbEMztoKJO3wk2aR8K+lAqpSuZCOpqXnaWIOXU3FG2Hp1/bpdiPMK253s9OET7jNr0d+fnVJoRa9PzvKg8mUXtmJ0KNNXX7RbwA56l9N6aqHp+MT+JEQynVDug1S9Ul2cwdr+Zmwia69PcJbpf9kFbB0dyp0Dvu0WmEfMS3XlykbrmW0ebjJUpLqSCmPnADG33kptPPwt7Chm3J3Z7mrakfo9MWvDd/hRdUaozuX8QmObqXttA5B10VEQbUmPTYWoUr1InCql3zJ/9pdZpkaYnLEFI42XMvVeWIsz+cvQRev7/NB71QF80o3ppqgHezDtEebsVhAx/jvulMe1Y1jUhT3jiaARxta47CQ0ZX2qUh9DPz/H28D14n+iD9dnIZ8zn+PFANZuWuL1z9J5P7w9bQLaGM94xi0xt6gxIR185qc8iyClMRI3nXPwK31FBIgAESACRIAIEIGKCZADqWJGNX+HG5OTkoIfkJI0Cr27xSG2fTu0jW4GMeaE0v4D/GaUUBpc209i9kxBOB+gChMuJxNCaUuGV308zGKdqJ9iHBQ+IXCAqbQIv+1Kx5o1G8wVVHu2Yt6zbHuRAmvoaOP0G7u4Liw/KfaLkIeTcgt33NDL65fP4PCe77BlzSKM76dvL+ArkhQrAlu8BW2HWf4SxPFYKfZOhIdR34tNPJxMLu3q1ZwIKVBazjYmwJewb0ECP0HIck8wIqLboXOPgZi04gch3ss3GC2sHGJxXljMIVPPBCePE6plV8+j4OBObEtLxozErvp2PK5vFviF9sRytlhO0n8h7V/moTV/pi9S2Iv74hT0Zd9HvIu9Qhkk+SVdlCe2lsFfCE8BNdaupFQr+EOS2/EpbOIWKUk2qd5l2ZxtYbN3ZEjpMV2R9FFBr38y6E5kqbDdyU4fXiXfjOb6qCjhmLJHTP8iVvdmeq/A68XPDWejk7TURyWWFthVr5C4rOPhcsa4uLo3dyApXi/icya+lL4woRdSFi/3TAk30/EdiS3ij8K1tFKp/pvINH5z23ZL9VYFOxI5FdnMkSaUT710p21U3YFUtXpxxcmhftvJxv407/XCsE3F+H6isU3Nvz8+XNBL377m9xxSTv+Mea1N3eT6LPFX8NyayyxpAGXYNcmMm6Q8Oh37AZxZ2VPY5tgNKwqFR5wF0ZbajRBzTOsfG6Ies4uSfRDTla8vFexGRsZuWn0kY6G/iAARIAJEgAgQATcIkAPJDVg1dmslJydFWbPRJ7YZwoLqwqrGR7D6IDA0GpFsC5s6eBQGjq4G1/KEqy5GbTWkcTIhlNLya4InWKwT+09xxusQ0HWUlIgzlesoSh1qbj+xPI4FR9QHj2LtaPX4d7v/o9fiqKN0nZTb0a038rvrJRdwKm8fdm5bhwUDI8xVX5ZgaDvMpLp37ETQGcxBllFwqS6E+lZ/NidCsi5cO/czvlkpr4qyeNZBYGgzxPaZb8SukifoDVrbsed1YcYzqYhlWeklFBb8jD3fbcHK8R0Fp4GwjUxiIDiQLu/H+zHsrX4AogfNR+qOVMwfFI0AbaJkRfSUnyBO1ST5+exOLaVzJ0uNtquKgIi/S3I7PoVN3CIlySbVu3PZ3NYVqUwVO0pQYbuTdYpXifScUOcGH0nWJ5dDD0XjJC2temehBZs8S1t+RODqtZxGuRUyUrmexHIWU85NLpfWvWC2deVhvLNbPNKMlekw5rcxTyxTOn+M48ZPrurNoe2Wyld9O8JK6G7bsG9n5fja2yhTITBIqL9yzzmpF1ecJB2S2guTzvwU71WLdGX3ZGObrD8eekg/fa3+kFQUlcltjRdf4l++3UjlDByDDDUA+ILHTSejMhCp0jZHWU95PhIHIeYYt82GzXbWT5oi0xURIAJEgAgQASJABGqEADmQagSjm4lUMPjUU1PjJQTDy6K//fTvOB4rt3yHH3btwwe9zDeilXUg2Ta9bJzKoj7bBvPYahBpgGquejm/6hlzsHvvQPxDO5pdPZ7d7r84460sBunkMjaZvIrCfLu01bzyC3HVUbpOyu3o1tr+Tp10vTZbPskJZVdxfutYhPFJkrFK4vwqPMO/uxcD/6HHtirHNfck3/IlTUbsJkbiREjUBVVmaVVUrzC+vczi1cCIXfUT3uFbhxS0mZpRvn61+jbjmThiqQZbnzgxBfukc8Cv43LBYiRwWRW0nG1sTZL0n9W/mvI1nM78G/qE6PqtBmoPjwpHAx8PKOoqrk6TsPH3K1IRJPn5rEu9RZ74mat0arZdoeSUfhz9zkPS6XNSIdkfTuVmN8ifkmxSvTuTzS5GjPSME2ejpI8KYj50sVdRLV6F7c7JRHj3ZCHGywO6M5WL+weWxJk2ze8vG4027yQt9TmJZfkJPE8auzG5sZn2AzxOmH7HH0viTDvn9xdsZMam0ukbOZ36BE/xOGieCO23mgfl1u+wIS/lTwjnW5is6LjwV7BQ267auEPbLdVb9e2IXkb324Z9OyvnCHLqQKpavbji5Ly9GHUkfIj3ambjyi+YxePJqfrSACM2XyhnR7iJOZ+CPry+FXRLZhHr9Ey2jb7X1Ks287SYg5fXPGd+p8RAbmpOdP2ndxDKbWgbTM1w0Ee66icFmemSCBABIkAEiAARIAI1QYAcSDVB0d00KjU52YzhfLIRguH/PoXLWiikPCwQB7rCJFEaXN87CKk8dnMRMkaHmYPXplOwh02UnEwIy377EB3ZANkzFP1Wi6cjqQLbYHP0kl1kUZSF5GT7QNk25C19Ej5sUOw3CBuqEszTSbnF7G/Eteo8GRodjHrBkWjbdQDGzk3BZjWOUGoyxvdpYsqpRGOW6j8p+w0fdmSrbBxNNAGbHVipXoX6VuUTJ0KSA6noALIP62eTa6uiDn+P6Z3MiXTreb8AuIj0UcYJRIqCem3+F1lcZ3R69mUpx1Q9IejJMAQEhKFl3NMY8XYyUlX5N6dg7shYc6WZ4odBrKIl/RcdSMXYOf0JPKjqvX9HJI4ZrK9IGzwG85M3IjPnNK5Ib+3t5OezO7WUzpws1WxXEv99+LhPR/04+mbRaPfMbNenEjqVuxxV7Yuf3jHj8yhNZ+CAcZst72N09TXr0nSOVcGBJOmjAt8OC5AjtuuSEggn3APpr8CPtV2li7lih4vgZCJ8aSte5SsnPdFmTg6P3YYTq9Gbn+TljxfWssm4k7TUvCSWrhxIl7D1VVPHPdvMEeQ7gdW92eECCvzV+DdMjkqnbzxQdg6bRprbltSg3O37vobFqWqg9FQsfq0v2of58XhjSoNBWHucuY/s6q3R29jJ68CJ7Zbqrfp2RJfC/bahrhxd1MHUxQfG7jDr1UAj2SjeRqtWL1WyhaxOhU+xTHqRSvHrwo7mKrLGY5ChbWeU7QgvftlRLIpjdlzB/UO+1IOQq3nYdmNSOItbZEX0u3t0h+jRhcKhEr7o9U+23E09CHGB8JugzxfTMYq3m3po87/yqW6V6ocFuemSCBABIkAEiAARIL+3SUAAACAASURBVALVJUAOpOoSrMrzlZqcfI/xfOBYBy1HrsDmHZuxYtyTaCROHoUJrTS4tgSgea+JWLF5B1Jn90fL+mzrhD/6/j0ffB2HtBroYYz45y7kqQPn0jP4cjTbgqWejtQBQ5hzIDUZbw9NQC8eANsBBPWI6aHRCA1thri+r2Fuymbs2LEZKUlD0KGRr+HM8kfCzJ/MgbeDZMSvivN28QCiO6Z3MR1iShdMZ8GfxWOsxIdr5foyfnq3FfyMVWKKevpacBgeUeNThIfiPnZCj2JFROJ6/K457Upx5svRiDCcc+pEs8OQt5FsTDST3x6KhF4LkM0nkHaTS6G+VZHEiRB3IGns26JF664YMHYuUjarDq0P0S+cTfT8MWjDeY1I8YEF6M7iIFmDEN1LqKu5r6FvwhtIM+c55Sj+8a/+CGGORvX0tYBQhKvyPxKG4LrmBMs/YSZ+Ys4pSf9FB9J3mPCQ8cz9T+Pdv/8DH3/8MT7+x2qkfvUNtmcfwenzkjtDlp/P7tRiyhM/08nifruStif5dsX0zQehh0T/GiN92URR3WIajDfVvSrO/jmV2/EDF1NfMp01Pk3QZ3YqdmxegXFPNsK9VpOtKVsVdAWyPip1HsLjA6dqOrM5JQkjunXF66ICnFmD57izpx7aDF2MVLVdf5NrCOHM6VOMI0v6IdDQlToPdcLIxbo8E3tE8lgu/gmz8FMR8xI6S8sdBxJQfGQJ+gUavOo8hE4j9TKvmNgDkfWMNuGfgFk/FRmBpN1Ln9Xepbx/YVSUN7dLFq96CAlXA6WHI6Sel+k8Uk8LXJ2LC0xMLbsW/DnFqyHaGnXg3HbL9VZdO6LL4H7bAK5izxTzmHvP0J6YrNr61DTsNLxxko0S2mhV6kXq4ypjC1nl2H2KZWJFKj2+lK8ia/rOj8ax97IdYfdCbTfpE/CYt64/loDm6D9VfXmQivlDHkcDI86dNWIk1rNVk6XHsLKvGf+vXmQPTFyhslqMkU82ElYICw4kFOPAgu58K7A1KBq9XjNsuuqkf60vEt5IM7Z82glJfxIBIkAEiAARIAJEoBYIkAOpFqBWmKQ0kRQHi+KT6sCxF59wWe8NxSNRjyA0KBidBvY0l7ULg2hxcP3EkEQ0qxeA0EeiEB58jz55sQai09trkcMnaAAu78fCBDao9URAo1jM+Ekvx6VjO5E8rp1RBg/4MOdAeCgCfDxgbfwiPnMYoEhNNwcrBz4CH6sCdSIVHPYIoqIeQViQDzzUFQxGWfbzE8VE2R1fH1neByzAc1RDPU6FHqhaCC4qHmPlOJka/PY6/t/hb7BySi+EGRMJM3C2MTG1BqJd4iJsLbhoTk4vHcPO5HFoZ0xqPXwCEGpMNEMDfOBhbYwXBbBivXInkSGFOBFiv13+5VP8qZGXdtKdt38wwh5RHVohqKtO3tXyjPvU1IHSQuR+OQf9tNPy7OoquB68PO5H2/d+MCZT5dFdPv4jPl+QyGUpJ7/ijbBe07B2v3nikLx6RHQgncJXo6P0rXbWezXd5fWtOqVatEa7mM54fmIa3x4kyW/O7lw4kNxvVzj1FUZGMIeNLxo88hfoi2QKsW/VDCT2ewJNDKeKVAR7XFK7F+W2v9H4u+gnzORt04J7gsMR9UgoGkQnYvnUp0yHg5Cpu7qi5XTpGLKWv8Hr0HLP/ZrOPBIWBD9PD/hHj0cGC/hbVoQfZ5oB2q11QxCutusn5hsB3J07fcqK8vDVoj8jSmsrVtQN0eUJ8FKdcA70xC5+kSCmGyuQ1FV/Rcj7ahH+bDh3WJlDA3SnjndYL0xbux+SKZLqypmNtqu3sos49mMKpgnbRe3bg5bX6p3CaYF6GlK9+QWi/n16Hbi03TVoR/RSVKFtALiS/xkSWfuw3IP7VVsf3gSJX+oRyZ220SrUi8RJ6PvU8kv52P1mV1PSvVyvyk5i1/q1WLv2M2Tms1cszhxIquAnsTvlbXTS7LgF99yvvjwQtty2S8SircLJgShDUc6nGPeY0d9avBAQqrIKQUBwJ3SPMVfD8TKp73IKc/HlnH5GH2OBVz3DpqtO+npe8Li/Ld77oSrLeO2p0N9EgAgQASJABIgAEaiYADmQKmZU83ccXYvRQhBMZ3GoSwsPI/PzjzAlsZ+2lWfwmPlI3piJnKNfYAp7XgieeXTtaCMI9VD8/acC7E1fifnGNiD+7OkrpiNDk+wazu1PxUdTEtFPS/NlLP0PC1NchosnDuCHLWuw6P0xGGzk2S9xAt5ftBpp27JxzNm49fplnDm8B99pz07FmMEsQPNgjHl/EdZs+QE55criGrUpH0vLwaczmK6Trsav13H5zGHs2paG1YvexwSjrnr21OVcvTETBwr+y49rZhmVXTyBAz9swZpF75ts+iViwvuLsDptG7IFsJLcQn2raWXNERgYv10vPo4DP3yDtOT5mMq2gfXsh8QJuv4cOCE4s9RErhUhb9c27X6p/FPnY1nqFmTlFvJYLaz85mcZrp4v0GRJXVY+v2Wp6dh1+Ky89UzSfzFAdyF+eC9G2/ZnjYg39FGXr0t0sBHDyQKvgCYYvkFf3iDJL9W9XVB24Td32xXKLqIgaxVvSz37vYOvjukErl8uRMGuv+EpbbtpA4z/3iRT7sqp3OXuNL5Q2+bXSJ7B2uZgjJm/Eul7C1B8KBlDmQ0QZHNXV1jOms5kbtR0mLfVwWMwdf4ypG49hLNCHHwtQPuaRdwu6br+GfZrZiMLc1i5evaEUDQtq2v/zcfebWlInj8Bif30uh085n0sWuNAT+AiLYll+XyYXPzz2n+Rv9dOxwePwfuL1iB912Gctd8b6W76LKOyKzh7eJd2GuH8qbLNnJ+chm2O8rJfgRTxGlIqZbuBmrIjrPhutw31QbV97NyI5PmyvB9l6Ov0nLdR1fa4Vy9V1W8mH/sUy2TqaBlKr5agpOQqSvnqMNmOmPfqKZVdOY0cOzuu9o/altsDBfiv0G60J8ou4sT+b7Bm0RRD/9U2nYyNmTn4dtlwfoiEfT7XivK0PkZsNz1Z+9yShdxCczskk5E+iQARIAJEgAgQASJQGwTIgVQbVCtK82oh8oVg1K7iUJddLcbZgl+14Mb5x4twSRvZFuMke14IMn21MN8IgmwEPb5+GUXH9e/MZx0Uruwqis8W4FcjYPKZS2qwJeHf9RJcKDzOy/xrwSkUXrgiDLKFe+0vtWfP4jgPkJ2P44UXUGKXhf1jjv425XMSSFQtvyuYjhKtqe/KSnHlQiFOGXWVm6vLecWciTjI6TpKLhSabH4twKnCC7B/RpJbqG81weKTAgvptzKUXirCWaP+c3N/RcEppj8OigL9fqn8Z4tw0VbZiroO28Xy+Tl8XtJ/M0B3cdZUdAytCw/FD88tzzH0UZcvZ9+3Ugyn+8fs0ISQ5Jfq3i4ou/Qb4E670jIS2lLur8dwnsUQKzmMlOHRCLAosEa/g+/ZMfCOEDuR29Gt/LuyUlwqNNvm8aLL0GpETEuQrWq6YuRm6DBvq/nHcbboIhypgBpXi9klTdfPFkE3G4Jtys2FUDQuElSZik6h4Fe9bvOPF+KCQ4PgIi1Rfmf5mDkyAbU2wXU8/zgKL5ToPO3vrVL6ZiLqaYRFZ2WbWXSp1M55b95fbmWNoG8ubbeWRPXtiFmSKrQN9WGtTmV5z13QG4nzNspytbM9LuqlWvrNsrOzmw51lN8r2xHH98r81f7RVV0D6v1nDf3Px/GiS1pfKsrmMB+7dpPron3y4tMFESACRIAIEAEiQARqmAA5kGoYKCVHBIhA1Qgc+TAGnlqA5jp4YS0LmGSkZfsVf2vPYjgpaDVHDQJ+c/9d2rUIA7q2RlhdDyj+j+Gt9b+bscVubtEo99uMQDkH0m1WfiouESACRIAIEAEiQASIwN1BgBxId0c9k5RE4JYncGpFN+MUJAsCmvfCa8KJdm8P6cCDx1sD+yFZj0h+U2Uq/f1jdPW2IrBdIhak7saJi3zfy00tF2V++xEgB9LtV2dUYiJABIgAESACRIAI3I0EyIF0N9Y6yUwEbkECpWe+xbx+YXqsI4sX6gkn2qlB29VAy8Ed3sDy7XkQ48DfNFFKj2Pnxi344UABzl8l59FNq4c7IGNyIN0BlUgiEAEiQASIABEgAkTgLiBADqS7oJJJRCJwexC4hqK8XUhfswjvT2CBo3uipxBcfOfB4yiubFimWhe6DKWlt0xhal1ayqD2CLgKDl17uVLKRIAIEAEiQASIABEgAkTAPQLkQHKPF91NBIhALRNQAzQXnmKBo3OR6yS4eC0Xg5InAjeMgBhAOVcKhn/DikAZEQEiQASIABEgAkSACBCBCgmQA6lCRHQDESACRIAIEAEiQASIABEgAkSACBABIkAE7m4C5EC6u+ufpCcCRIAIEAEiQASIABEgAkSACBABIkAEiECFBMiBVCEiuoEIEAEiQASIABEgAkSACBABIkAEiAARIAJ3NwFyIN3d9U/SEwEiQASIABEgAkSACBABIkAEiAARIAJEoEIC5ECqEBHdQASIABEgAkSACBABIkAEiAARIAJEgAgQgbubADmQbkD9/+Mf/8DMmTPpPzEgHSAdIB2oAR2YMmUKRo4cSSxrgCX1TeX75vHjx2Ps2LGkX6RfpAPV1AGy1eXtC9lcYkI6QDqg6sB33313A7wQtZMFOZBqh6uUan5+Pn755Rf6TwxIB0gHSAdqQAe++eYbvPbaa8SyBlhS31S+b165cqXmOCA25dkQE2Lijg6QrSZ9cUdf6F7Sl7tJB86dOyf5C26nP8iBdDvVFpWVCBABIkAEoDrlp06dSiSIQK0QyMjIwIoVK2olbUqUCNxNBMhW3021TbISASJwtxAgB9LdUtMkJxEgAkTgDiFAk5I7pCJvUTHIgXSLVgwV67YjQLb6tqsyKjARIAJEoEIC5ECqEBHdQASIABEgArcSAZqU3Eq1ceeVhRxId16dkkQ3hwDZ6pvDnXIlAkSACNQmAXIg1SZdSpsIEAEiQARqnABNSmocKSUoECAHkgCDLolANQiQra4GPHqUCBABInCLEiAH0i1aMVQsIkAEiAARcEyAJiWOudC3NUOAHEg1w5FSIQJkq0kHiMDtSiALSfHxeDkl/3YVgMpdiwTIgVSLcClpIkAEiAARqHkCNCmpeaaUokmAHEgmC7oiAtUhQLa6OvToWSJQmwTykfJyPOLjzf9JWUJ++bsxOUGBb9g7EL8W7qDLu5gAOZDu4son0YkAESACtyMBmpTcjrV2+5SZHEi3T11RSW9tAmSrb+36odLdvQTyUwYgzLcxEldkQO3zpicoCGoaD+5EunQJBZsS0VgJwrO0CunuVRQnkpMDyQkY+voGEigpQHZqMpJTs1FQcgPzpayIABG4LQnQpOS2rLbbptDkQLptquqWLWjO8n7mm/3EdfjDZUmLkP52V37/n5bnwOby/tvnx1q11TR2dEMRbDj7SwZSklOQ8cvZO0a/3ABwC956AmlvDcBrizfh0KnamfzYzv6CTYvHYsCrKbDfiHapYDcyMnaj4JKO5tzyBCiKgqBxwnqjSynooyjw7fr3cs/fgkCpSDeQADmQbiBsysoRgRNIez0WLcJDERreArGvp+GEo9voO4OAvOSU9iaTYtyNBGp1UnI3Ar2ZMuen4GW+hP5l3AovOsmBdDMV4lbM2/1+9/jHnbXJmDohU+57HdtdiGXLWYwuARb9fmtHzNh/AWUu7r+dfqo9W01jR3f0wJa9AN1aRSIsNAyRrbphQfad4qJ0h8KtdW9x1v+i9b3eqBfyGKZ+VzsOpKt756NziD+860ZgTHqRawAbBuk2KOZDwVl0DssTFCi+I7HF9dP0611GgBxIN6HCmUd4SO9u/I1Tt95DMHZuCn64A5fg5Ke8zOXkSyM59+8xsaExcFIUWBpOxPf8N7ooT+AQZrVQ+MC0xaxD5W+hb4jAHU6g4kmJ+xO+WwaZ6FApbzAdFzMridvY+Pik2ytewaFZaKFOsrX/LXArmDR3HEg3sj/PSmKxKm6+o839sugBWVm8jcqqtmOFv9Hfut/vlm5/A/WZXlvisdTpEqQifD36YdQx7m0wdD3OlN5o+WovP3dtNdOP+K498Hz/UXg7eRN+OevI2UFjR7nWhPb1cvnVJqdW9oSV6aNiRc+Vp+THq/2XusJpExaPHYLe3Zid6obeQ8ZibsoPNby7wLWs1RbFrQSqWpYTWDcgCJ5qnTR+FVuKTJexOGeKd1CXQAkKfkhB0qjn0aOrzrprj+cx6u1kbD9aLK0uK7uwB+/FWKEoFgR0+RiHXciWNS5I74f7pMBYlKTdvWGQ2j/H4EP7JUwu0qKf7nwC5EC6oXVsQ17aRPSNa4WIEH/4WD24I8DD6gP/4DA0a/sM3krLkwzADS1iLWS2bfS9XM5BG+wzKMK307oi2FuB4h2MDm+nowIfuX0Cd9nf7g9k7zJAJO5dQKDiSclt3E62jca9bKBf3mA6rl325lB7bhDKmVnHT90a3962DqQb3Z//gSVxt4qjrSpl2YBBTK8VBZVV7VtESd1/cVO4At24vPfhdSdLkGzZc9GOrT7yS8C8A8W3hsg1VAp3bbXuSFagWDzh5V0XAaERaBXXFxNTD0Neo0FjR6mK/liCOKZvLWbB/tXi1dzVeLmFD6yKFT5NXkRy7lXp8Wr9YctD2sS+iGsVgRB/H1g9mJ3ygNXHH8FhzdD2mbeQlufIEViFnCuQtQopVv2Rqpbl8BI8UU/nFD15j+SwOTSrBZ8zKeXqsghZs/sgtlkYgup6wdOip2Hx9ELdgFBEtumEgQt/hOlzvYZjHz2lOw/rNMW7u53UQX4Kng3S00pYfk7isXtyYyjKrfFyRyoY/XFTCZAD6QbiL8qajiebBMDLaPC8o2RGX/u04t4m7TGxoqWGN7Dc1cvKhn//yVxh5GjQWHLmZ+z8NgMZ3+7EwZOi37t6Od+ZT9/GE+M7s0JIqptAwN1Jye20Us/27z/BwvoERwbTEW9yIDmiUuXvKrMC6cb35wfxfjM2MbvZg/mqlOUucyCV/Yj/CWX1ZUG8wyVIJ7BhSChfGdL41U04dwetPlIboLu22uG42OKFgPB2GLZOXgJBY0fBxB18H81Yv1HO6QCg9AJ+/893yMzIxHd7fkNRjelZEbKmP4kmAV5mv8XKIX5a70WT9hNRI1ObimQVsNT6ZRXLkjO/jbHqMBrv/kd25rlyIJ1IexXRwa5YW1Cv8yLkCEmWnVyOp6yqLfJE6FvfOligkI+UAWHwVesrYTp+lv1H0Mtzs/ucWq9JysBNAuRAchNYlW+3ZWNuhyA+UFCsDdF9SjLS0jOQkZ6G1fMGIkJr4GojtyCgzVRk3REvon7DB+3ZIOp2e+tY5dquxQfJgVSLcCnp24SAu5OS28mB9NsH7c23j+RAuikaWaED6ab0518j0Yf1pTd7MF+VstxlDiQU4dOerL4U3OdgCZItexba+hsv2PwSsCDnznuB5q6tbpy4QjsRanPqSiwa0wmBwrjY79ExNeOAuClWpZYz/ToRPsxh48iBVEvZqyvoOgSpW6R0Xbc27I4pyWlIz8hAetpqzBsYYc57LAFoMzUL1Z7a3CRZHSKsUllyMO8xL51Z4wn4XnD2qHk4dyD9gU+f8eeOOmvEMCxJSzfayzLM+HM7BAYmYMbWAlw0d8QBZUexsINeP5aHJ2OPnSD6aWzq7wmYbu89ArBlpC+tQLJjRn8C5EC6QVpg+/avCOUdoRUxk75G7plLKFUbeVkprhQdxdb3OsGPdQCeQRixyTSzcryBEhRsX4yxA4wYSt16Y1RSKg443PvF9iUP5HtltXhLi7eX25Ms5wEUHUhF0oge6KoGOO2xENkqK1sxjmanIvntUegvxHDq2mMgxtqluXO2eqpIG4T5moMo9YhIfY+7GafDzDce8Q4CI5QU/ICUpFF4vodxSkm33hgydjG2O4gXZaalxoiw4ey+VCSN6o1uWpDWbug9aj4yjzlZwsl1wW5Ps+0s9qVMwkAh/1HzM6EmYzu7D6lJo/ie724DxiL5R8cnXLgjh1YUu3y79hiBpNRUTG5t8iw/MWZ7o5nMXdHj+VFISt0nLGnlgtIFEbgtCbg7KZHaiRAvSA1CX64N9x6F+ZnH5Ld0dnGJ9GdGGDa1K3oMHIvF9s8I+cTHyzFrpBgHLGbRztmarW0Tpg7WjDYe1JTHNnJgGs26q8oKJNtZ/LJpMcYONGx8vB6vYvH2AnOrSPE2TDJiLMTHd0VSlp3tPJOGMTwA9l+xSeyDSgrwQ0oSRrF+Qo1pMioJqfvs7ONtuIWtev25HJ9L7vOEvic+HvohCX9gXaLabzZFENMLxRdhbYy+lMfIENNNQpbaf6QmYYTRb+l9tN5vmYojPmPf/1anLGYO5lVVHEiVGb8UY9sk8wSzrklZctvFGaSNYeOOePxVVlIjlkhF/WVVXtyUYdckdeuH3pYt8UvtTmKTVx81fXPbHbf6SK37qtrq67bLuHA8B1+J42JLAPqtNY9ZMcd79rpbglOHMpAydyyGPM/sWzzijbHyPnN/j6mealwZdVw9hOmCqTM8LhO340LbUNuf0da4rVPzMcaIQgb6JbO7PJ8KxmhFh7VTtPj407DTc1OzoR3c9cc6JKo2uKkRv0bVN98wtDHsMj9oRezDuBxC6cqVKx5aXJ0kV7FZbfj2r+YKOsUag0lf5+LMpVItCHxZ6RUUHd2K9zr58XbgGTQCfGojlUk4Pl4tlqP+syqyqvZAG6dX0F/XVlkExPzyzD/xrJduF/wGbZC2r6n3OHcgZeGvDczxf9DwL1GoTSKB67aLKMw/gMzM/Th3jedkXJTix7cNW+QZiw/zhN+zksDGHAnTf4bd4iPtRj0GUh+k3Hn+bQEEXbpLgBxI7hKr4v17Jj/MvcaK33NYebpcC8e1s59hSH3TOAS/+R3PTW/A6m++iOzYFW0jQ+DvbcRQ8rCiblA4orvPxk7T56R6e5C37hV00vYl1+F7ZbV4SyGRaPtMErKEAb+ZxwMYOXs2ukeHI8jPUy/3Y/O04GtFX49HTItwhAbUhbcQw8niWQf+IZGIHZYCts35i8Hm1jU2iDI/zTgdZr4KFOmNuw1nM2ejT2wzhAXVhZenkZ6HFT7+IYhs2xWvrpPjRZlp+aLV030R1zIcQXWt8NAGcR6w1m2AqISZdpw4ZuNCGOj6tsLTfePQMiwQdYT86zaIQsK4SXilU0uEB9Xle749vP0R2uwlrJZWWrsvB2x5SBku52vx9ENQ+KN4yM/UEWliDHFvNJPZAk+vuggKb4m44Wbd2EtMfxOB24lAVSclmoyCs8W31dPoG2fXhq110SAqATNFYyo6OUIeQ4L2jJ9hUy3wrOOPkKgOGC5usRDysY8fIA0QFcMWfjHY7CO4o8Bs65JptK8sKS/Tttrfxv+25WHdK53QKiIE/nUMG6/o8SpCItvimaQsPRZdaR4WxrG3yxY8PFl+d3lmXX/4s7LGzMUR1q0VZWF2n1g0CwtCXdZPqDFN6gYhvGUchqcIdltke4vEWahoBVL1+nPZGSH3eULfoyjQ7XsOZrc09cDsQ43v+GoDMd0QPJYQh5bhQfAz+i29j45Ch+HrhBN2xGfs+9/qlIVrmnAhp+dSn7WnKjt+KUXewji+yqHcG/Yz69Dfn/GLwVxTSYVYIhX1lzInud8VRLS7vJTSh0+cFb9XkC78Lq8+ehbL8q8Iv945l9Wy1UC5cXG9EV9zB6E53pN115azFH2jIxEW7A8fL2bfFCjGWLllt+nS2Bds7KSOq32YLjCdET/Zyj9Bl9kYMVywdWo+6hhx5k55tU3JYaQwu8vzEcZofWfL5SrKQlL31lrMVD7+NOx0cPhj+PM/DuNyzmy0ZDbYwSfXVVd2tmg3Fg6M0/sDXi4FWlydiJH44vh1Jwq5B5MfNsf5fs+tRPmpzTWc/WyIGVBeCQaf2khlstuhIPVpBveqyFrZ/rq2yuKI3I4xuN+oqzbzyoe1lsYH3L6rCR3GvDamPno1bI/+Yxdj06FT/KVPWZm49MjM3LRFPvjLV/qLIO1FluB4NF/wi868LIxTYyM1nozdZnJ0RQRoBdKN0QEbNrzkaQ4knlhs9yaKleICPn3GNA6WDov4QE/sKD087sNjbyzRtr9tXjbM3PpmDcZTy01jVLxzJp5sXFdznlgjBmLems3IyNiMNVMS9EG/NQjtZ+120Bl7IigkmA/I1AGr3182Ql1lee30Frz1WDCa9xuPRVp6GRDLYPGLwNituhfr3M8ZyMiYjgShU0uYrn6n/jc93aJs4mDalvcpXooKNmJG+SNhyhpszkjHugVsu58H6jZ+UjqOVEzL6uWLRwcuwLr0DKSvGoNotgLMGoyR/BUIYy9+CoMDxQov30cxcME6pKevwxThTYr13kDUva8jxq/cjIzNH2AAfzPgixbva+u1tESrIsfhT3ohzM/omK0RGLZss7bVcckbj5kTNj7B0Muev24o3xvt33E8ktWlrelpWDJMX0Js8QvDkPXm2ztRYromArcTgWpNSsSBqdULvo8OxIJ1altZhTHRzFliRfDITebgXxxcWjzg/X/7Ikm1f+nrMC3B37DtFvg9Og7bmBNfzMfOMSINEJkD6dzPmm2crh6Zy2xmwnTDXmaUi0sg1ZeUV0UOpGLsnPkkGtdVX0BYETFwHtZszkDG5jWYYshiDWqPWVqwTXly7hk9Bzk842J8OYTJriBm/q/Qw2rkY93QaAR7qfbLHx3H61u109OWYFiEfhqMX9gQcFMksrXjxLO6wReuHUjV7c9lZ4TY5wFi38McSJdQsDsDGSsS0ZjphdIYiSuMvnR3gfEGW0zXAg/v/4u+SUafOc3o89WTTv0exTiupOIz8iS8emVxVGGybBU5kNwZv5TmLUQc6989ozHHVFIUfznE7DNj5uNXI/aLe/2l9SEANgAAIABJREFUzIlPyh2JKX63911E8DoTTzE6gfUDH+RjrKZv7oBwCJOYwm1/XS1brUkvj4uV9h/gN4OKON4T21HZhVws6RuMsK6JmMG2U62bhgTmSLQGIeFjc6yMfX9DBxZXxq8T3lFt++aVeDPGXDkTPW4tMjJ2o0BbhSHqsjBGzEjHqjHRvF6twSPN1TYoQubkeIRpdlcB3360eSXGd9TtqMUrGNGvpoGN0v7453MIMvTaGjNeG8uqdnpeYjs06T4DW38vxvVLBdidkYEVieZqN6VxIlZo4+wM7NYLrC5rcXLapWqvH8OD9+jjTWtDo29T5wrzxmPap45WtBgVYNuAlzzN/uqJxU6OGrzwKZ7h7cCCDouMN6xSmSrhQKqKrJXtr2urLA5a8JkVT/OXRS+ss9u/5nIF0lX8ntzXtGeKB7z9QxAR3Q6d1R0Krk67++kdhBp10P4DvQVdKtjNxxf6vIzNz4TxRv6HiFEUNB6XWW6llAPR6Ku7iACtQLohlS3HAVJeXG8MtMtnLnWIgudZ+r7TDOw+fkHb/na9+Hd8Oqg+n3DUaTPfGODn49PezAlUH4M+PYqiEvUtwnWUnNmIV4zgjp4RU/l+WCkP7yj0n7EMqerEIiMdWw+cMQp7BSf278TevFO4oKUHXC/+FfO7sE7EgsAxGYJgYkdr10EYd0n58lGlDd++3UQP6qYavZgp2HWmBNdRhqvnc7G0N+vYrXhwyAaw0klptZmIrUfP42oZUHYlCxPCWRkVPDp9v1BG+0u5zG0mbsXR81dRVnYVZ5Z156wVpT4GfLQXpy5fB67/F2nDzHrw7LzMcBJWQQ7bbrzbtA7Pp/HIz/F78XVtq+OF4xswurEpBx/I2rLwzqN+RqcUgyk7T+GSurS1rBQXfp2PLkbHUe+FtZyVvdT0NxG4XQhUa1IiOVvaYOLWozivGwlkTQjn7U55dDq4lZAGl6EYnnIEhar9K7uKs7umaAMszeljCcQw5pyW8mFvrnXCDh1IBnzJhnF7WEHNSHlV4EDK/xS9gw1HWf1B+PRoEfSuoQRnNr5iDDI9ETFVX21UenypEYBTgeLVGUvZ6kpbBl4PZrYoBvONmbkt6x08ypzfMVOw85S+Vbus9AJ+nd/F4FsPL6w1rLbEVuZUgdS19rNrB1J1+3PZGSFOfB07bQwxK+Qkpxs6PAVHCo0+8+wuTIlhdWVB4DDmHJWfqbmyOKoauV91rdpujl9Kj2PpU8z564XOppIi4/Vg3qa5k9Pt/lLmxPtdR2KK313+DP2ZY0vxxcgt+o+23TPQyjiBSfHvi7/foauPVGmrZasNlpJNdDYulhSqDEVHdmLXzwUoZNuprp7FxldCuS7U6bKMv6DN/yieO32U7stwWjWI1y/j5EfmeM9/9DdCzcq6zMeIKMOVrAkI586SR8GHmvkr0as+e5Gsjsl/xwV1jHb9Mk6lv4WmxjMW/9aYZbx/zPprA15er5g5OHBZHcKXoKjgAPbkngNb8KkWTOpTBEa80E7sh233dLRk9lppgKGrjL5NnSsUncJZKZgOT02/+O0DtOeyKnhxvbPI3DIv3n6kMtnND6Q+Te4X3JO1kv11bZXFDpn65y/zWhv1Wh9vZpa/wZV8ZUVH8OWcfghTT64W2Gs7FNTT7joPwsLdwtYSlvzBmWhu3M/5s99cfGa9owbXTsAC5oh0cS/9dHcRIAfSDanv81glrCxSuiU7mcTbsH6AYBRaz8MvRvmkDnRgqra/mBW9cEU305B4vYjP1TfgZ9bgOR57yAsPtRL3cz+GRiwYp+dQfOkoj24fIK/wImzaytUyXL8uLou0ofhoNlKT38XYIf3xfI8uiBK23ilxS4QVVnLHIfXxjvLlN8hLY0MnfC843cpQsOgJU2b/0WBdu8Sp/2dCBysPAL2GbWL4HHzKZe7/mdBNS51aJKbvM7nsT4o0y9RytuHIq4Icv36AGP5Wxw+DNogbj2U5eEewZzIe5qf7BeDRWKG+46LM5cOCTjkQnL4iArcFgWpNSqQ23B9i85YGbl7DwK2ENLhsjpkHBUyl32MCP21JcE5L+bgYALMVSEaSkg3j9lDIz9GllJdrB9KZNc+Zjnmvh9CKxzCKR/xjjXggVs+hRs9QdhKruMPeF8+tMRw/os0RVnZI27sCHkWskH5clOlkbz3P6N0ktjInR6LeiO9cO5Cq25/LNrzmnDZyus1lJcX3E8zJs+kclZ+pubI4qiW5X3Wp2m6PX8pwclVvHkPS97k1xhhL7H9NJydE3VUq01/KnHi/60hM6bv/4L1HzTFdzIeq91VdfdQAntpkzoroCZl37OojFUW1bLXBUrKJgnNE+t6BQpWcOoSMlEV4e1R/LWbnY418zDHavaOxzUhfsvtiOoJdrS/N9GVdlsaIkj3zAhtqSnZX6YYVhYKiXEnHKD6G9kTcEt1Lf2btC3y1icWvEVp37oERSSnI+MUujlw1HEh7pkYYuqhACR2Nb9gKWqF4Ti/PrxJWFinolsxe5do9YVuPAYKzw7Htry0HUiX7a6nearAsdijUP019i0QSf0tl3mj+rkAR9J3dca0oD7vS12DR+H6IDvY2dVplbLkHDzYfhBT2ooc9JMjXZJq5Q4L97PAzPwXPBilonLjJYWwkh8/Ql3cNAXIg3ZCqLsOOsebAWWn4V9jHItWLcRAzoszBhrX/Z1BfOKj/XHWUZakDBQPyOP52RHNxo7VgsEVPtXxtTjZc5WEUQ42sjRWvJiC2TQuEh9aHv4+3GZuI5cedJ1rJMYh9r9gZZSNRx/l+iaHciaJAHgwDpetfFGQ2l4Y7TkvNSB4AygNlLh0rkfMyCwMKl3FNuNGvghziqQ5KBN7dK5ZPloMPZL8cag4CBN5yXTvujMTU6ZoI3A4EqjUpkdqwaf9UuaWBm+jYEQZf9u0eOIiZzU27zZ3TUj6yY8RpPhXYeqd1I+Uly2T/jPn20yxzOTuh2hA+kSrD6ZTn+OTcf8iX2ta+nDnR3ObwlR0AvhzK3rK7Tp/bLpds7Ut/Y/527UCqbn8u23CTsyqbPDHljNSfKuQkpys9C+DgzOZmn8mdo/IzNVcWR/Uky8bVy9Gtv8xze/xSdjoFz7H4gP5D8KU6Ec6Zg2g2jhCcnHC7v5Q52bN1JIL+3WV88We2WlqB78gtkFcfPYfk3+/M2EeMSbVstZZIDt5vJtiSZ1bhvJG40/Ge7RjSpz2Pzu2iERkWgoC63lLMTs3eWQbjCyOd8xsGcUeN8vAIfKke0FJSgC9HPGy0GT+8sE70+LjQZamdmmNe2e4ORKr57hHAfiRFmjKqeqL+KyvKwdppvczVJhZP+AWFIbJVeyS8ukI6OEfqU/j40xBQ/ZDKZfZHkr1uPhPiuxHhaceXZTswlju+FDT8q30Ae+OxgzMQxcelVvT/zJjZSGUyWWlPSX2aWV71t6rKqpfGSX9dW2UxEIgfZvkbYfIu8Rf92vzdxZj9egkunMrDvp3bkJY8A39uF2iuolN80W6BsI9XTVaQr+mMA+UzdfSNsWWQb4N0dA99d9cSIAfSDar6wnUv8AG44hmKV74uv8SwKPNNRBmR+dXYFHFLfuelc9pRqouNkoUVSIoRKf/oInTgBjsUwz4x97bKe10rjkXEC4FibJvQFqHGHm7FOwy9xi/Cys/SME2M2yF1Xi46WiNhx7Kl4xU2GFQU2Bu84pS+5mCYyexy8iUPAOWBsimhfuWizG53alWQQ9irrCgP4C0zlrraC2BWC3OgwQey6a+Y+qV0wrR0J/XN42XYy0x/E4Hbh0C1JiVSG5adLdLArdIOpO/w1gNmm2w82Qg1KeXjYgAs5uPShrmoHykvWSb7p44u6mDaztBh+MSIlSH3CxnIEI7zlSbnwa8jw5aPpZ2NY4gVYWUHgPRXzAmz0mmadpxzubQzKhObw77kN+5v1w4koHr9uWzD5b5I7nu4fVdFFyYA5Z2Y2g2O+wYD23dvPWDWOw+IWltlcVRXsmwuHUhVGL+g7DRSnmO6F4zXM2zIX9oZXsY4SHRywu3+UuYk1YsjUYXvDs9rY3KPGYfpfc3VRzFTfrqjVx+pGKplqwEUpY/Gw3xcrCB65iG+At/x2BE4/EkfPFrfS9/Sbw1Euz/PwLK1qVgmxgkS7G5Z0U+Y1d2YgHsGoEnbjojv2BZNAnRnuPdjb2OHFKTKhS5L7dR0ikh2VxmA9dKBlrswuZGDPkTdEnf2sMPVJh51Q9FRiGEq9V3SGNxQRqlcZn8k2etGk+HAnyFos/1lIda9wNqcAs/QV1B+alOEzDejeDtUrHHgUxupTCYrLRepTzPLq/5WVVn10jvpr2urLPbIAJi6YK5QE29zLV8RDmQf5kGzgTKUXipE/oFVGC6shOYvsljCB2bwbZLu2C/2OH0SAXsC5ECyJ1JLf5edTsUQHmTZgoDm/TF7+1EUq52IrRhHt89G/5b1+Rtdxf85fHrc3E/srKNUT1r7ZvT95gAlepa+depqBsbw/HwQuyCHB8t2JqLzPNgTGRgTyE5c8MOz87/H4VMXcPnqZXwubr2TOi+5ox0g95pawo7zPYMV3VlMAwU+L/3bDGgLG3aKy/GZzC4nX/IAUB60M/nYp1xmaaDrdqdWBTlOJZsxRxRPPJXMQiqq5TuAGU3NgQbvCP5Yik481sKDGF6+F2fC0ScRuO0JVGtSIrVh2dkiDdyECYbLyXv+EsSxVQ6KsOVUmqSKA2AbdowVJvNiPvY2bMD6Cu22VpkuZLKv7KsZY9CAvVzwicWCHGkmY3+7/ndZEf7FJgqWhzE53dwibe24kAcmVm/+Y2kn803og8MdTCjsspAG7iInu/tu4J8VOZCq158fxaIOpg2X+qITy3m8OnWVBLfvquwSp6Yo/xJZ7uOkZ5GPJXHmyjDz6OjaKoujynLRr9rfXoXxizqRKvoXe1GnnhiYjjXP+epjI2tHLGTRs9W83O4vXbG1L7z899WNfzFf7vgGIYiFFmgwCGuPCdvjpcfykfKysA09Ph78OHZ+HztK/mVpu4p2spK6bTQpS79TOg5dTlM9np7dxpOt4Yuq2uqS80fww4qJ6NU8gAccVqwdMS/XDDrseOyYj2VdzBiSTcd+jgP5hbhYYsO+GU3NsbJkd09j8+uP4B7VLnr7w9+IL+PtH4mubyzA+t0nIa8Tc6HLUjs1nSJXv58gBMGPwgxxqc+JlejBnWRCH6JOD2w2Le6RvtokHcuGmMGyPTsu5gHFpb6r6QyUW2Milcu0s5K99mqPhUJs8YpVoQynU4eY/YklAM37z8b2o8Vav2UrPorts/ujJY/9pMD/uU/BpzaSo9hkpeZ7YjmLl6faSrO86m9VlVWTx1l/XVtlcQDx6r//xPtIR9v+JPmk+ZQNeSlD0bZFa3QdOh+bDp3Q55AowfmDS9GNBYlXFMhbLgEIOxueWcXW8DkoHH1FBCpJgBxIlQRV7dvKLmD/gu7mMlnLPQiObIPYuHjEx8WiTWQw7uExbPyRMEt+MyV1lCFPY+H36rGN6vHw09EhyHTqJCzK1U5LA4qx970YbqTqPNQJ72w6gvMlqiQlOH9kOxYnG0c1G8JJeUheEyb9RgzlToo66Lf6NGxGGWKFZazynt0czIo2B8sPDv8Cp0pUn1kx96A7zrcMJzcONzvcgHaYtt2Qed/H6BfKBsP+6Jv8uyGzq61+8gBQGrQz8fini8GBNFFz0alxo18FOUrzsPQp861OvTZvYZO6pNpWjJ9XDUQTFr9KnGCUHsfaQSzgouqgHIrl2UbnYivGiewULE4Tjs7mstIFEbj9CFR1UqJJKrXhqjiQfNHqlVT8rHr/Sw5j1UsRZkyhxq8inS0u/WMxnmCOGuVePP2x+tZQt9lxDZj9Um2jXIacWdHmJOfB4fhCN5go1my3k7qSZApCUyHukDpJ1P8nQZtSFu/FezHMOV8HD3V6B5uOnNftccl5HNm+GMlZTAgzv6K1bHLuiegn441jiK2IW5gnxKcDSo+vxSD28kKdUAxdjuwTbEJxAtkpi5GWJzitTv1dOKnzAYzdIfxmZn9DrypyIKFa/flVbB0tbGmPGIfMs4YuDY5EPa4zdg6kSxswiK/K9UHs3H3a5KGkWGdrvzrVt9UrSP1Z/a0Eh1e9hAjmuFAa41WupLVVFkfVJfer4pHRpo4yh4b74xctx6K1eMFg5Bn9JOLv18ce1riFyDPfx6lK6mZ/eQp/F1ZZPzB2R+Ucu2qhJDvAxkJWxLy3BxekbUwGs/wUvBzfBmG8vvRnfMPamE4h7VbG08k4hI3hJNvA8jc/2W1G7jX+4a6t1uSMj0fHmNZoFhpgnMKrltcbHad8izNCPToeO/6Cea1N+R79358021ZyeBUGNhFiIIl2N3suYkN8tBOLo8d9joxv9RXc32Zl4+fj+kEsMhjGXs9HYig5agSnyKV9mMdP8fXCwy+uMvqQAmx6qw1v99bo8cg0zK8tLwXDnx6C+ZsO4YT2tvkSjizoZPYPHRbhqFGwSxsGmY5Kn1jM3ae3/WLtOXsHtKkzkr1W6iC890J8r/Y5KMGpQ6mYv1ieJ8gcgLIL+7Ggu3kap+WeYES2iUVcfDziYtsgMvge0wHon4BZPxXxFWS4uhWjhblDxLhM6KZwFQZH1jPltHMguSdrJfvr2iqLPTD171/moJVh5xtO/KHcHc4cSJd3zcWTYfphOR4+DRAR/bg+h4zviJjoRvBjc0hrBMZtuyClm7fgcYNnKP7nR0eGR7qd/iACFRIgB1KFiGruhtLCg0id1h2B3AljdnI8BoU1EJ3eXov95+Q3U1JHqQZJa9oOHePj0D4qyHASWRHYfSa+P2f2rtdOZ2LRQP0Id3VLXGBEa8R0VCcTHRHTOhIhoR0wVZgoSHlIPSJjcAr/Fp0UEe0RZ5TBLzDQ7Ly480R97ipyl5qOM0tAE7TrqHYso5FqxNtzlm/ZxV+xifOyIijSkLnlQ4ah9EbUqE+RIywtdpaW/eD6xjmQAPflKMW572cKR84GIkJdUh0Xi1aN7sM93mzyJ04wynAh93O8bRwHq1j88FALo3OJi8XjLcIQEjUQq8WJG6tW+iQCtxkBdycl0moMaUIlO2+kgZs4wbCbFFjvDUer2DjEd2yNRuwEG+8ojPpXnnnUbemvWM4H1hb4NWpt2OwQhPV9Fm24o0Auw9XcpejO3iRaAtCknd72RzOD6aiuJJkc9CtaXiyfaziduQgDIww7Yg1EROsYdFQdTR1j0DoyBKEdpkLoGvQcizZgiDHY96pTx9geEoeF0sxcDdxxAbmfv42OhgwWv4fQ4nE2oXgcLcJCEDVwNbgpKt2LpGhm0zzRoHkcpmXeXCdShQ4kANXpzy9sG4cINg6wBiGqvaFLDduibycz2LWktyhC+husP1dQp2FLbfLQsds84yRVu5ck1nsR3krl3hGtG7ETOtU+81/IE85lqJ2yOFRSKbYgH/PwdiBPxt0dvxhKig1DDOecVx3U0SZU5Z2c6mol9/rLUuxNMo9n92zQHHHTMivnRCrdjjeESbImt4vVR/qpRyqLBExn20unJ+iTv6Cmwooh5sQwnQEqA27D2Bju3M/8qO7pzAmWMJ1/J+xUdVRp1f7OXVvtUC/UbWjjVmDvGRfjYiYvLmP/+8LL04bRmm3r2LoR7qsfaL7EFe17zjy0Mdqjf3g7zfkhOjW79e6PUUmp2Kd6N7R/jL2ss9pPdn0FLxau4Wx2MhKj9KDHalBsvQ9pi4hA3f5ZA7tjxvYT+mqny9n4W7cw+Hn6oEFENB5X+5v4jmgXfp+uC9YIJK43X56iKB1vMJuu1EHDlnrb7zZPP01TXsEo6Ixqr1ePw2PMXt/zIJqqfY6aV3Q4GoTI8wQDgPBRisKDqZjGtgDatWdWn9bATnh77X7IU5sL2DbOtGnWoCi0j4uHWlcN2/ZFJ74lSyivmrNbsiqoVH+NWiqLQIpfCs4qz7gl/DRA9jtvwypLYT51/fQ2zOgVBm8njDXW1kB0n7EVxwQbry4o+PdLhvPU7yWkXmQ50ScRqDoBciBVnV0VnizD1bO5yPz8I4zvF43QQB++QsjbPxTR/cbjo88zkXP6iumhN3KRHCOd3sSCxA4I8VE7HSt8QqLRb8oqbLc71hO4hv8e3YnPPxqPftGhfFmuYvVBYGg0eibOwVdHTSsj5WH2eoKc6qDrSyFvBXyJ71fTzLftgsFTH1YH2mun9UN0iChvBMZ9owfSc56vzmv7qhlI7BqJQE1efYlxaHQ/TFmZjr3HLkqsnKdlN7h2KB8T1cXgQJqoyZ2aM6OvDlbVendHDlw7h5+//ABvdI006s2s5/T3n+JvZqQJRtkVnD74DVbOSETXyED4sAmKtz+CImMweOJK/HSO3jywWqbP25eAu5MSqZ1IbZg5VXQWUhsWJxjSpKAxhsyYgl6R/vpAztsfkV3fwIL1P+KYdOSxOrD+FP/TtQlvi6q97DVlFTKPpOI1PqmUy4DSQhxcOw39okP4c+q2iohx3/BDFcrVnCRTRQ4kANf+i6M7P8dH6ikuoYYcigKrTyBCo3sicc5XELoGI7sL2PiysHJGvd9+ZYdxZ9mV0zj4zUrMSOyKSKmfC0JkzGBMXPkTTFN0BSe2z0M/xlOx4vGF6kkQN+9fZRxIzK5XpT/HpWPYOm+weYKO1QchHRKxIHU39i7o6ti+A7h0bCsWvdEVkf7s5B0rfB54GkvzVFZyH9d4yAxM6cX6D2/4R3bFGwvW40e7PrN2yuKo7uR+lU0s7T/Nrtm98QvL8cLGl81TR9WJltWBk1O92c3+8sqJ7ZjXj/FUYH18ISqnpcfxcWexTVrRccZ+x6uPkIVxQfq9CdPN+JQ49zOY8ydonLE1jQdcdzIOMUEyNOZhLA5+4zfV8IW7ttrUB2/4B0UiZrA+Lj5wQh7rqcV0Nt67dnoXVk3pxduJ1ScE0f2mYNX2v2OoI7t75Xf8O7GJ1u6sVubMNuvMw+r9/9k7G6iqqvT/n3XlLlBAr39NBtJ+DKSUYEim4fUlX0ZyHLPELCfT8peFlU3mOOrojC+NWGY6OmL9ihlISxxNBzPT1BRRRhTEUHxDSboloWCYiKIg6/tf+7zdc8595+VyLzysddc9nLPP3s/+7H332ft79n422gd1R++Rq5DHa0jquqzCqXpWKGYgMYPvVsJ0ZKum3dXDv7OwVG5L5jmzwHK3Aqe/+BALWRsapG6j+efNlmyYVM+bKvy4N0nRZ2R13x+/+u3/QWgeliFaFh7UdabuRglOfLMOCycbFe01sysUMaNn4bMC9WwWiypSdxtl5zLlsYbcV+f8YAiNwfjZH2JL5mlcvmXZ/2Rt2orJMQgWlw2yshqYsArpucexaoRUBmp7AVfy6uzzWmhfG90WC1jshOJZGjAO0samUlBVP0Q5nqq7hbLCHOxZtxQJo62MIUe/iVVbMnFOrdIBNRn4Q7DAUj8q1cYu4FLq9E0EnCNAApJznBo1VN3tSpQW5SPn8CFkim+YDmblIL+oFJW3LRtYlrjqQTlxM66ZCnDkUCYyMjJx6Eg+iq7cxF2rVtbhdmUpivJzkCVOy83IPITDOfkoNF1FVa05vfIzCsfLtl5L1d1WpJ0BeYrvncsokN6WWThqZo4Ai5B/RJnfbBSWCxY7SvfuzaswncnDYT6/Gcg4mIWc/CJcuWmZY9txVcGU60T+eIblOCPlJSMDKhSKt3kZGbkwmfU3VJly5bd6GRYMAFfywZtx5xdcOpMnlpuinBU2WO6OcBc3r5pwJu8wDmWK+T2Yhey8AhSXXke1JTKrtYZOEgFPJuB4UKL+vat+J4rfT0aGYpDGBujK37DymmpQEI13jl1BYV4WDrJ24mAW8s5cwjVrbXfdDZSeOSb/Fll7Wci31ddx8bDUHqltYNzrbpWhKP+IfB9LI7uw3EYbD7ABJhM97H806dTdRiXbxSVHzEdGBjIPHUZOfiFMV6ugeDTIVeH6xcOqNDILrqiWr8kB2cHdm7hqOoM81XMuG3kFxSi9Xq3Oy50KFEk8MzKRY2reV6TOCUhCbuvzPGd33qkoRn72QYFn5iEcKTDxdaj2coHMWFVv+eTu4JdLZ5CXJd7Hnv+Hj+MHHpdaQIp+5xiuFErPj4PIyjuDS9duq164CDloClukmJXf6ueqrbqqet6yly9O9l/klK5fxGHlbyGzQLXsSQ7HH7jyvLyDiiKJZwYyc0xwrpbW4nKB8reZiQLlOiylQcVrYOQH+eGQfPFLl3MXiL5vZLVCEjHUg2t58CmHk2JQ9COtXDOHatwjV9tqc704iKzsPBQU2+4X2+7v3cXNK4Xy7yTz0BHkF13BzbvW292S7W/CGMbcBvTF3G2sXy2V1x5s/+BFsysF/QNYzE/oUddlVZ0Vd66S4lBdY2gt2l32G7a+VI61LWWsDc1Wt9E2nzeqPmMG+L7+8R+EeqqyS9135Uv87k1cKS5QtNfMrhzkF15ChVMdR/NvVe6rZxxEVk4+ikorYe3xKNS0O6gozke2OD5hZVVgYssGlb8bK/bay2t9n9doAlts/Jyu73pF9B1lwLObxeUYYlhVP8TWWKLQyhiy0Ho/pObgTHTlZ2MG4qlPf7L6DLBhJp0mAjYJkIBkE41nXVAJSG58+HsWBbKGCBABIuDMzj6NTEnTIV12qpHjp+g8igAb/KWmpnqUTY6N0QhIVEkdI/O0EHI7oxaFmJmWwlBLEZCauxCKkfJbg7Akt8sb2KdaJVeH2qvr8IQ8c+d+LBRXhDW31ZS+HQLy74jNurH8Ldm5032XKv+LueKGOIbfplosY2s8Qyrw9Stdhfod8hK+VLj8aLw0KKbWSIAEJC8pdRKQvKSgyEwiQASanIDjt9qNbII3dEgbOcutOToSkFpz6Tdj3qvSMJYXKwIwbbfSjmL8c4Swo1y4PDWJBCQlofofK5xu+96P3yfniQ6rAbac4XTuAAAgAElEQVQT3M75A8xLIsPfwgHnpp3V3xy6s+EEvOJ5fQtn18QJvmMDorEkV/Kv1fDsK2OoOb0WwzuxjZaY4/7jit2slaHomAi4ToAEJNeZNcsdJCA1C3ZKlAgQAQ8kQAKSBxZKCzKJBKQWVJhelZVyJIuOroOixF0Tmf1Z88Vd2cIxM1NaN5+LBeFshkUAwuZLfpGyMD9MKzSZAcj9SDfOYnd7W23OrpNHN3FidZzoXFuHwPuiRYfVwk5wsoPrbvF4d6dikwQnY6dgzUDAKwQkoLZ8H2Y/EoyHxs9H+hnBJ2xj07pdtBMLx8cgOHIatl9WTa9r7KQovlZGgAQkLylw+cHP3k658eHvJXjITCJABFoRAbcPSrykQ9qKqkCTZpUEpCbFS5HbIVB+Zgni+FlIQYhiOyOyT1SQ4Fg9bpXC72IVTKvMu7MJu4ZFIYi/Nw6rlA4axfTkfqQb+5Bub6vtsLV16U75GXyzbiG/2YzZAbRiU4GlKdiRdR4/23bkYytqOt8cBLzmeX0LJSeycbyoFNed8jPlOkzJR1/2cZN5h1jXo6E7iIAFARKQLJB45gnbzgI9016yiggQASLQVATcPihx5IC0qTJK8TYLAe8UkOw4jm8WipRo/QgwB82pSOBnF0m7UHEIT0hFhtYjM3Oev0QUkXjhiIWPwxLlBgAKI0hAUsDQHN69eYXfbMbsANrxpgKaKOhfTyFAz2tPKQmyowUTIAGpBRcuZY0IEAEi0BIJuF1AaokQKU82CXingGQzO3TB6wioxUBWHy135BMzZbEDo2a3RUXe5ReRWiFKEaaxD6mtbmyiFB8RIAJEoPkJkIDU/GVAFhABIkAEiIALBGhQ4gIsCuoyARKQXEZGNxABqwSorbaKhU4SASJABLyaAAlIXl18ZDwRIAJEoPURoEFJ6ytzd+aYBCR30qa0WjIBaqtbculS3ogAEWitBEhAaq0lT/kmAkSACHgpARqUeGnBeYnZJCB5SUGRmR5PgNpqjy8iMpAIEAEi4DIBEpBcRub6Dbt27cLnn39OH2JAdYDqANWBRqgDa9euxTPPPEMsG4ElPZssn82LFi3Ca6+9RvWL6hfVgQbWAWqrLdsXanOJCdUBqgOsDly4cMF1UcFD7iAByQ0F8e2334K90aQPMaA6QHWA6kDD68DGjRvx4osvUptKz5UmqQN///vfMWfOnCaJm37/Df/9E0PvYUhttfeUFf2uqKyoDri3DpCA5AYRxpuTqK6uxo0bN+hDDKgOUB2gOtAIdeDUqVOYN28esWwElvRssnw279y5Ex9++CHVL6pfVAcaWAeorbZsX6jNJSZUB6gOsDrA9AFv/aMZSN5acmQ3ESACRKCVEiC/Gq204N2UbfYWNjU11U2pUTJEoOUSoLa65ZYt5YwIEIHWS4AEpNZb9pRzIkAEiIBXEqBBiVcWm9cYTQKS1xQVGerhBKit9vACIvOIABEgAvUgQAJSPaDRLUSACBABItB8BGhQ0nzsW0PKJCC1hlKmPLqDALXV7qBMaRABIkAE3EuABCT38qbUiAARIAJEoIEEaFDSQIB0u10CJCDZxUMXiYDTBKitdhoVBSQCRIAIeA0BEpC8pqjIUCJABIgAEWAEaFBC9aApCZCA1JR0Ke7WRIDa6tZU2pRXIkAEWgsBEpBaS0lTPokAESACLYQADUpaSEF6aDZIQPLQgiGzvI4AtdVeV2RkMBEgAkTAIQESkBwiogBEgAgQASLgSQRoUCKWRoUJF8tqPKlorNhSgzLTj6i0csVTT5GA5KklQ3Z5GwHX2upKFOUcwIEDOSjypgbD2wqF7CUCRIAINJAACUgNBEi3u0igsgg5Bw7gQE6RVw0oXMwlBScCRKAJCbg2KGlCQ5o16hrkvT8CfcetxcmbzWqI3cRv5ryPkf3G4sPTni50mbNBApKZBR0RgYYQcKmtrvkGf3ooEpGRb+IrD27TGsKD7iUCRIAItAQCJCC5rRSlNysHUPCTrUSlMAWwGcTWrd5y/nwyxkZGInJsMs57i81NZedPBThwwEZ9+GkfEl98Fi/+5SsUN1X6FC8R8FICzgxKfipgb7Jt/L7EfNsKY+u8Flf1NRNOZQvpZJ8qQaUNjcSZ+JwJo0q/ZCsm3tsOg5Z+i1/uqq7I/yjtO5B3HuW2DOTv+AkFTNy391EI/5K9tsMLswju/nwEC43tcf//bkOJbJlnH7guINWgsvw88kR2eeevodpGFiVuOXamWAhhtLMwpP6BuoyyT5kclKsNQ+g0EXADAWfaatmMgqWI5DhwEYuQVyefpQMiQASIABHwMAIkILmtQM4jeSx7sxKJfjP3oMJqulKYOdhr9XoLOHlqGaJZByF6GU61gOw0KAt75/D1YY6Vwr6y6TkE+fvBv/MYpP7QoFToZiLQ4gg4MyjZO0dob639viQgtsLYOi/dV3EyHYlTRmKQsR9iegnp9Ip5FAPiJiBxp8lCPHAUH4vXmTBS+uy78IPH0CHwKXxyqVZ5mj+uKctH2tynMUxhX2R0H/QfEIcJf0nDSasPoL2Yw8R9ex+F8C/Zazv8WCTzbwnu4MfUp9DeMAQfFFqY6pEnnBeQavBj5lq88fRwDOjfB9Eiu+g+Rgz73ZtIzS+DVlOUuD005kPYmpQlhJH4SYik/oG6jHrF9EP/AcPxu1dWYr/JlmwlxUHfRMC9BJxpqyWLrnz2JHw5DoEvfAGagCRRoW8iQASIgOcRIAHJbWVyCsuiOXAcB12nWCzJtrbAWwozCdvcZpebEyIBSQZemRbP14dJVgr79vc7sHjyaExe+B+cp56UzIwOiAAj4MygZNskob219vuSKNoKY+s8UIMf9/wFo2K6I8i/DTg/A3oaR2P06NEYHtMV/n5+CIoYgKlpRSrhwHZ8kiWAM2Hk0DW5eDuqLUJe+hIVmjf1NUXbMXNkb4R18oVO74+uMcPN9unbwK9zGGJGJSLLQkTahklM3OdC0Ge0kCeWL9Vn+iZcFI2Q7A3powkj3zMdm8TAdRXpeLFLW0Ql5slZ8OQD5wSkCpxMfhkDI7uig68Oev+uiBkusDD2NKCdjwGhvUdiiQa0xI1rez9+/2/r80uFMNFYpnrLIvUPAtHjMYn5cMSEGuDH6eATGIKeA8biPU16nsyZbGv5BJxpqyUKB2bcw/eJHltLb80kJvRNBIgAEfBEAiQgua1UxM5fqBHGED2CH7f29lHqIJKA5LZiacaEzv/9UZsCEupuoaz4HIqv3ISN1SnNaDklTQSal4AzgxJpoN6YAlJN0Xo892Bn6DkDHklYhc37spBXcA7nzp3D6fwj2L9lFV6IjsGsjAoodZ2G2GKNdM3RvyLCpwumfqV9EVGMDc/2QEc9B8Mjb+Lj3YdwJP+0yr6JEXpw+iDEvL5ds6RMEpDGYO05IU8sX6pP8VXcFg2S8jRmrSaMfE8xrkqBcR1bfh8InwcWwxskJGcEpIrM+Rh0XyB0+m4YtXAddh86gvzTAouCvCzsWTcbQ3s8heTzd1RFKHDrC6PRF4EPzsAeCyFPEhNtCUgR+OMOiflp5OdkYd/2FMweZACn80VwzCyrcaqMoH+IgJsIONNWC6YUYXV/HTguFHP+azmr0k3mUjJEgAgQASLgBAESkJyA1DhBJAHpTXyyIg6BVt8+OiEgVV/D+TxnfW5IvpSqUXoqGwcOZOOsuGOP4GNBul6Dyot5gu+LvPO4ppwFX1OJEv7eA7Dn14Fn5Ixt9ZmBpLCB+fFQ2acsHI1PoZrKEtE/STZOlVSqZgQob+OPaypRft4GAymwJv7q0lPIPnAA2We1yxSqcU2KK/sUSrR+R0RO61/+NS8gDV9i9mkh+8dy6GzcQRqSzWI8sr8NVRmVWiy1kW6jbyLgyQScGZRIAkfjCUgl2PZyDwRwHMKnrkeu6RpuK1UiAHW3r6H4229huqG+0BBbrJXDsUUR8NGPRdp19dXKfTMREcCBC5mIj3MvoVKjPjP7Lu5dijgDB52hD5bmKhdYSQKScy8wnMmT0rorqaOg94nB8tPKs5557FBAqsnD+wO6wIcLxNC/fY1zVoT+uzdLcfrYOZSr9SNxptlorNw0DeG6Tohdkm2xoYTA1paApD0P1NVWobTgc8yM0YPTdcLwj7xkraBnFj9Z1YgEnGmr+eQq/4Pn/Tlw+vHYdKMRDaCoiAARIAJEoNEJkIDU6EhtRSiKQ75T8WX5TrwerrPy9tGegFSBk6lv4nfDjOgTrfS5MQUrM3+0EEcEHwpzsLfiJFJfH4HYmF6IjOyFlz4v5Q2Urn9ddgRrp8RhQN9owfdFdB8YR7yOzUU1qC5Mx9z4oXiUvzcSzK/DiNc3o0g55mCx1fyIzJWvWNg2NH4utmsDuyQgseUiiZgQN0C2gfnxMA57GnPTTlr6kRJ9Cs3cfhH7V05B3IBHRf8kvRDz6FDEz91uaTuAipOpePO3Q9G/j4LBsKexeI+Gq+yziJXF6xgRG4NekZHo9dLnEKgyfxgr8crvhsEoxdUrBo8Ojcfc7YolLZmL+DK8v4svLyB16Gb2aSH7a7HjbJy3V5vGgDhMWZmJH7VlI8YzNvk0TPtXYsoIZf2JtV6etqownScCHkLAmUGJMwKHrTBWz1/ZhGcNOnCBT+LDCzdUM4wcYbEan+YmZ8IIt/yAj4f5gHt4Oc6q4qhBxoxg6DgOMfOP4LpawzKHvFOOfbOiwHE+iFh0zHweTSsg1R1/Gw9yvnjysyuKND3z0KGAdGwxHtBz4KL+iL1lGoXIQZaEcn4Ufz9xGqviAqEPftxihzohjFYokvoH2vNSgrdQsmESunAc2g75EEXSafomAs1IwJm2mjfvxBI8yJbQPvg3fNuM9lLSRIAIEAEi4JgACUiOGTVSCKnzx97uVqHoo3gY2NvH9/MU4o8yjDLZSmS/N4r3deCj80Ow6NPC2MMf+jb+CIl8DPP3qefBCx3QCAwZ0w+hndujB/PTMXwEFmQIawqE613Re3AvdPX3F+IcHoNgPw5cm/Z4cOSzGBvbHZ0CAoV7jWHw4zi0aR+Ol7cpBwAX8e+pAxEZEoi2gZIPCCN6+Ouh8+2EyJc1O++4ICAVb34ZAx8Mgl8bPfx7GEU/HsHw0/miU1g//D71tIId2Lx/XpDp8mBf9Azxh39wDIbzvkmCeR8Rvp164Dfvqt/2Vma/h1ExoTD4tIOhp5DGaGNPGNr5osuDcViVp1BkxPgjhoxBv9DOaM/bNBwjFmTwyzou/nsqBkaGILBtoOx3hC8jZm/ky9gmbUGUtZzPS58QwUeL0ofI8iyx3G1wMturg5+Yv9HGHvDXt4F/SCQem79PLayJ8QRExGJAzxAY2veAkfkoUZTni1slw5R1jo6JgOcScGZQIrRxHJQz/LQ7hi0Zbt1PknSvavbSN9NhYAOcEcm4bEucsYFMiq8+tlhGuR9/+H8c9M/9R15OJoT5DmuMbAlIBOYfkdeOWd4O4Nae13ihwWfwB4pdHiUBaTiWWNuJTZ4eKURpP0/S7FZF8jc3YhzHodvcw4qTnnnoSEAq/mAwfDgOoTMP4paLWRC4MRGoFuX7ZiNG39ZihzpzGGXkUv/AloAE4HoaxjJhy/9/8ZXi0aWMhY6JgDsJONNWM3vIgbY7S4XSIgJEgAg0jAAJSA3j58LdUudPWB5QV3EUS4cGQn/vb/GRvBWLOowceWEyHg9mfisiMPXjPcgWfVoUHNuPLYvjYODaoHP0HOxTuMMQOqB6+HYZjHkb9uMY89Nx+gwuiWGE6zr4dhmKeZ/uE+I8nY+DqVMRzhx9+/oh4H/i8e4W8d6CHHwxzwg9x8GQsFsh3FThxOppSFixUeEDogDH9n+IiSFsmcSz2KTUm2wII3JepYPKfZj5YCB0nAFxi7dg/7EC0Y9HNvZ8PBUReh3ahY7Gv5Qz9UWBhxN9UuzJzsdp3jeJdA8HffDvsVnWSwqR/Hgw9IY4LN68D1l5QhrnCvKQ9cUSxBn0CJ2+17y8QIxf79sFg+dtEG06jTMi1KoTqzEtYQU2KvyOsDL6cGIIOJ0Bz0ogKn/i87J2jDB4VfoQ+UkqQ6ucRHs5PSKmfgwpf+cKjmH/lsX8spQ2naMxR1kRpHh07dDrhVXYsv8YCpiPEkV5dnjxC3MeJf70TQQ8mIAzgxKhjeOgnOGn3TGsWwfnBaTiNUZeoA7/S45m9tFPKLAQXNQCSkNssSyGLzBZx6H7QuXsIRZqN6ax5WvcOGx05Hj/wirEMjHs1wuQIycgCUgd0M3aTmzy9EjhBvt5sraTaC4WhHPwmfKlnKKnHjgSkHZPC+DrwlMbNGttpKXHyvqQU6RqXwVuogh063tsfTkcOkMkZiqcIanCyJCk/oEdAQnHsLA7qwP98Y/v5BvpgAg0GwFn2mpmHDnQbrYiooSJABEgAi4TIAHJZWT1vUHq/En+Je6gbK/27aM2jJBWXmIU2nIcot76Et+rnFrU4XZZDt4exPwedMbUnZL6IDnh5GBcmI3Ltyxfl0ud/8eXn1Zdr7uxHzNCWQe0L+Z+fR4/K5x83MldIEwx7v8PKPumd8pNMFVUy86eq69dhunkbszpy+K5BzMOKJhJgkb0Mqg2mFEEYYdXtj6HzjoOgU+uxomy26oB293K75E2JQQc1xZ9VyocakgC0uMrLXxS3K28gNWP68FxHfDK1+Kr2dMr0bcth9D4Ffh8937BB5TU8d+zBTNiOOiCZ+GQZJsUv3Ehsi/fUtnEB7lTDpOpAtWS35Hqa7hsOondc/ryg417VCDMZaSa5SClZY1TXiKi2rJlE2/hy+8rZd7slrrbZch5exD0nA6dp+40D1ikeMJfxdZitc+WOycT8TAbRD76d/C7bUtp0zcR8HACzgxKpDZOOcNPtaPY6NGQZgFqf4PSvcrzp5ZF87/jaPXWWAD2Yo6F4KIWUKT46mOLRVEUr4GR42BphyQASc8YizvNJ374Pwxlv/3OM5Ahn5Xut7ELmzw9UrjBfp6WQ5pMKUcP8fmmhGq+6FFHjgQkKe8WWZGWHivrw9hkVfsq3CuJQHW4ceEjxBt06BT7PqQJr+owEhqpfyDdK51XfjsTRhmejolA0xJwpq0GyIF205YCxU4EiAARaFwCJCA1Lk87sUkdO0Xn/tb32DAphHdmOjeTLUGzEgaV2PSMDziuC17bY22yfC0Klj7MD2we/btZBpA6uL/fan03C+m6RQcYBXj3ISb8PIvPta4dxCUInIX4U4OyszuRMu81PDVyCAYZY9EvpheEt/s6TP5CgUUSNCziUIQBcHxxDz5PjyWZLIUaAJVbn0Mgx8F36k7zjZLAY5kpJrEgd0F3Ps7+4qvZyi2/hy/HwT84QvD/pOz0R0YK9usmQzZfiv/3W2GdKlBTdhY7U+bhtadGYsggI2L7xaBXtw58ujoVCNcFpMpNz/DLJrq8tsfqsonagqWWgpA93rc34xk2iHRQFmbAdEQEPIOAM4MSqY1TzvBT7Sh27hykWYDaJkO6V3n+2qdP8L/jjtP3aSBkYbm8df1j6BHI2k9FO8+vrmXnONTHFk1igPibthSQjmI+L/4PxgeOdsE+/R56s99+xNs4LicgCUg2dmGTp0cKN0iMrOfpJ7OILccvPt+UUOVrnnXgSEA6Oj+UL8/BWtAXN2G6XBf6IMRK+ypwU4hAdRU4utAIvf5exK8XfOVZhOHxSP0Dxb0W2PZhekdW157Ap9csLtIJIuB2As601SAH2m4vF0qQCBABItAQAiQgNYSeS/dKnT/lwKIO1899gHiDD7qMWIvTNWexoo928FGC5N+wcz2ReMJ6gpUbx/KdWeWAQurc2+qr275uzU4pXXGAoRIcKpC7eiIGPxyB0E7toW/jB0NQEHoabbzdtydoSMkAyJjRmc+TLQEMxxbiftY5V2ZQEniU5xRxamcQlCT/hk8jsMdjvE8i7ewE4X/Fm3QH8VfkrsbEwQ8jIrQT2uvbwM8QhCDmV6kPmy2lsVUxqLRqrhVOkr09bVcEjNUOWKzEY0ZirTzNV+mICHgqAWcGJbbbOHOubIWxdr4u5y/C8t6HlkEx75HJ2fhJ3rp+B/4YoW3DHYjFojnW0jRbqji69imesDoDqQIbnmKzLAMxeZt5NqriTvmw5NMn4M9x0D+zGVXyWUlAUj6j5IsWB07bK9/ZcgSkig1P8cu5AydvUwtlt6+iWK4LazFG2x7L7b5aBLpzeTdmxegR0ONNfF0B7JjCylEdxvyCSXteBgwUvo8+Og5cl7dwwHLisSIgHRIB9xBwpq3G0XkIZb8Vi40B6mNjFhKHJFqZAVmfuJy5h6X3EtKKnQlLYYgAESACLYMACUhuK0cbwoz09rHt/fjfbUXYOE47+LiN/zzHOpMBmJRubVBQg6PzwniBYmDSRTk3jjr3tq/bsJOP2YrgkPc+BtzbDr7dRmF20kbsyjiIrOxs5BXYeLtvV9CQzceJpZF8nnq9ox6qSSGkAVDgq3ukU2yUZlWoEQJUIn0S81uhxzObhSHT7f88xw8COk78RPALJHf8z/E+ioTZCoo36XbjZ9s634t2vt0wanYSNu7KwMGsbGQzv0prx1i1y3YZsMloyxCtGXxI9gZMSlcPWkQCNUfnIYzdMzAJck2wEo8CGCZp0jBfoyMi4LkEnBmU2P19iVmzFcbq+aq9eJ05vveNxB/5GaPW+FhvP63Gp7ndmTD8LXXpmMhx+NUseXGtGFMdLiYN5tu0TqNTre44yQesOY01j7FZkXoM/uB7hRVNLSAJs2P0U3Yo0vTMQ0czkOouJmEwc1bdaTRStTuNylmy8ry0ISABt/D9hkkIETfWyFnIZstqhSKpbmnPSwlWIHOWsNy9y0s7cF06Td9EoBkJONNW//DxMGF29fS9io0BmDAzBImqtbDCuSFDhkD4WApFxWlPYtKSMyhX5rk4DS/J9wzBkJfSFJsHCAGL014S45TiZt+SMFSMtJeU58VjPp5ynFkyFmHzVYYqU6djIkAEiECLI0ACktuKVOr8Wb7dvXN5O6ZH+MLQZynmT9AKSEDpZ0/xy7U6xS5GlnqzNdQUbcD4ULbELQoLj5l33nE0GLF93badkLZ5VsxAknajGfpuPkqvK/wgFabjRf5NPAfVDBu7goa5MG4e/Qui2BK1+3+PNG0HvSILf+3LBkCBGLdR4aFbEniGJ8FUbY6LHVVkLUZsJw6cfjDkMVPpZ3gqkINP6Hh8dFIDlt1UXQ1VNFL8qgyJ6RR/gME+HLih7yK/9LrCD1Ih0l+MsCsgxadZEQatcRLt5TrFYrFlRcCG8aF8Jyxq4TFzJ8xaPDIa6wMc+TIdEAEPJeDMoMR2G2fOlK0w1s9X4vjf2EYCPujSewqS88sUmwlIcVpvP63HJ90jfDsTRggpOqN+ZpOFkFx7aT3GGThwAT0wdtURlGl34qopQ+aSobiP+VILmYRNl5SLcZtYQLqSit/qODz4N8/fpNuRgITaS9g0ic0sDcCvfzMfO7UPHL6grLevQjlbikB1109g1SgD9PdOxN/eYv62tGGkuqU9D7Z2GvnJU9C7iw84fQz+nEXykfrXRf81FwFn2uo9rwbyfaSRqVcVZgq/H3N3i4lHUZi0JAPs98n/RhOMiFKJQVmYHzYWyUr1KCsRQ/qOwMxU831Lxoahr2aWEj9DPTwBqWLcQhq5MPHvG4XfXnhCqpw2fz3XJMzgLE9GXNBMN856UmCiQyJABIhAMxAgAclt0KXOn6WABFThu/WTEOITgpAulgJSXcUBzI5hu7AFIWrYFCSm7eIdPqevfQPx/cMQqOMQMvEzFCtcJDkajNi+bs9Oyw7xtbSx/Bvve4wJeJ+3axfSEqdgRJ/u6Mje0HIaAensCvRhs15+NQkf5f9oZQAmFsitYvwz3gBOF4iw/vF4Y206n+ddaYmYMiwKQXoOeuMCHKlQzNOXBJ4O4eg3YgrmpbB7BHuGRQVBz3Yvm/YF5DFTXQUOzI6BXheI+2KGYcq8FKTzTrR3Ie39tzBhxCi8n6sYgUnxm3s05tpzTdw++R4jEt5Pw64DB8DbOqIPundkM8gsl7Adf1sQljrFzkDqrgM4kJ6CHefEKK0JP5K9nB5BUcMwJVFI50D6WrwR3x9hgTpwIRPxmbIiWItHttqyPOVLdEAEPJiAM4MS222cOWO2wtg6f+dyJpbGCe3Sfb0H47evzENK+gHBAX96Cua9MgQR/E5o6nbeVnxmS5xb5iaEr8LmZ/TgQufhqDICdlxXgdPrE4RdKu/thcHxb4jtMmuP3scb8YMRGSTs6Jmw4RyuK5pP+QWBxn+TNgnpf2fyJIXlvw/PRTcuEC984WiLONVdzfIPPzhNTbWTNlt+vgEJEYxlZ0T0G4EJb72PNNaO823/+3hrwiMIsjLDU+BmRQRCLa5mL4RR3wEhIWy2rDaM9Gz+NV5eL9Y59nxLmodXfjsYve8Tdy1duh8lir6AnUzQJSLQ5AQct9VFWPUo6yuG4y85ygZJIyDxmwfEqcShKlMuMiQRh+UkayaC4pIVs4+ykBgVhPCEz0UhSMhu+ZlUJIQH4UnFujNeQFK8HFWDEX57SjcR6uvlSI4LwkyahKTGQv8RASLQYgmQgOS2opU6f+qBhZS89PaRFxosOvC3UJKdjDcfMYBr44+gsAd4p8/du3aAr84PYeOXY9fF6ypn044697av27PTUnCo+2kHpvGd6PYI5u16AGFB/vAPG4/EGY9ZCkg3v8F0tgzEpxN+Pe5fqt3cJBbCdx0qTqfj3fhu0Ot80aFrdz7PD4QFwb+NHp1jZyIl7zJUfr5FgadLTCzC/P3RKZTdI9jThtOjW/wK7DXdUHG6VZKN5Ddj0VnfBv6dQtGdd6T9AMKCDQgMHYOP8hWDHXsCUt1P2DEtghep2geH4YHISPC2+odhfOIMPGZFQLp5YjXi2GwBfUeEPhCJyO6hePyDIiH7NoQfwd5HYODawGaqJJ8AACAASURBVD9ISCeye1d08NXBL2w8lu+6qB4U2ohHSMSyPNVlQP8RAc8k4HhQ4pwgY6sdtHUeuIPyM1/iHwmszdDBJ7ATQrtHCk74u4eiU6APfDvHIuEf/1UMYhpmi7US+P6DwdD7DMYHVvxu1N0wISv5TcR21kPn20Fsl1l7FMy3E/rOsXgzOQumG8rBGktFbA8snj/WLHAuT8o7Ty+PgY9+FFIVk0aV1z3p2LGAxMS6GzBlb8DiMWHw45jPu2CEsXacb/uDYfBrA7+wMVicXqTwMyVx04pDYu7vXMb26ew5wgbU2jDSs9kXXe4X6xx7vnXthEAfHfT+PTD+3XScKFc9FT0JK9nSCgk4bKtlB9rPQPQuIFLSCEhVaRjLqUUfLc7iNUaEL8g1nxZFp1XCNCLzeVQhc2Y4Akb8U17K1jABCchdEI4gUpAUjOmQCBCBlkyABCS3le5FbJo+GqNHK5wyq9Jmbx9X4xV+BxcrYe5W4tKJDGxPWYkZk1k8ozE+YSGSNu5BTlGFWkhhL2KWC2E0Oy/LKdq+bs9Ocbeh6ZvMPnb4TvQOpCxNwHhm+/gELPxwM/blFOHqvmW8nWobKnF+yzIkjB+N0a+l4YJskZWDutv4+fxR7N6YhIUJ4wVH15NnYGXKDmSeLIHl+EfwgRQxKx05ezYiaaFok3hP1nlLTsBdVF46icwdKVg5Rww/ejJmrFyH3UfP4crNu2bDspYLNqgzJF6vww1TNnakLBXyNno8EhZ+iM37clB0dR+WMTba++6U48TXKVgq5m3yjJXYdEpcSift5qNkzafE7D2BjO0pWDljsmAPY560EXtyilChHTvYjIdFZqU8zbmlIyLgsQQcDkqcaANZ5my1g7bOC0Du4BfTSRzevRFJ78zAZGnXrckz8E7SRuw+fBKmX9Q/RPvxCbE6E0YqkNqi1RisD8CYz0qkU6rvu5WXcPLwbmxMekd+XoxW2HepUtGuyXdKu8lZef7IYcwHrtgLFOP/hvlC/3gyftLqVuYoPebIKQGJWVt3C2WFOdjH2mP5+cGezXOwMmU79uUUouyWOsMCt+nYJDuqU2e76rvNmMeej6O1YaRns/BslzZ9YGnx9e7QMRT9fFv1gkQdM/1HBNxPwGFb/d2/8TprQ//3E5xVmacRkFCOM6kJiA7rK/gqUjtH4u/cPS0AY9PM2wJg9zQEhC+AQlKSU6hKGwsuYBp2i2caKiDx8VmbnS6nSAdEgAgQgZZDgAQkt5XlbVwtZs6ZFU6ZtWnfqYCJd+RsK0wdaqsqcImP5xwumMpwvdraQACo/ElwBK3ZeVlO0fZ1e3aKuw0VXzX72GEx1tWi6qoJF5jtF0woqxQ7sZU/8c6otTbU3foZpgvncK64XO1jSLZOfXC3+jrKTBcEx9bFl1BRVWu9kyzOEPJP+Bq4W43rZaJN9u4Rk6qrrUJFqRj+XDEuVdyEBVkxP+e0GZLNZeVzVcjbuQswlVXiNj92ELlZuY+le1XMW/GlClTVioMNaTcfLWulvZeKBSaMucL/lGwOO7Abj43yVEVA/xABzyPgcFDC9kZz0AayXNkKY+u8igRrY65eMu+6VXwJV238Dp2Jz5kwcvq1l/DJU4Ho8NgHKJRPag/uovr6Vfl5cc6OfcKd0m5ytp4/6vhdsrcwCQMDAvHUpz9Zb7vVUTf7f04LSKKl6ucHezaX2nxOCdyKcdXsslCd37obKGXPx3PaMNKzWbnJg5CWrXqnjpj+IwLuJ+Cwrb5ZhiLWd7To62gFJABVJuQyH0WpCQgPiuKFJLOOVIw1Ro3LBNYntLUsje8vmlcE8AJSAPONZHaW/ZK8xE2Y/RcgiVd8GMnBtsg0dwHCjWvkGU3uJ00pEgEiQATcR4AEJPexppSamoC9JWZNnTbFTwSIgNsIOByUuM2S5kqoDhVfvoSQtlF4W+mnrbnMsZtuDXLfjkLbkJfwpdJnnd17mveiqwJS81pLqRMBzyVQ/7baioAkZVMUklITwhEUJe3EJog8qklATNRRzDKSbmffbLkbp5idxAtIGifaufLSNyFutRNtycG2GCtzF2BLrFImTMdEgAgQgRZAgASkFlCIlAWRAAlIVBWIQKsgUP9BSQvCU3kcfzO2RegL22B9IZuH5LV4A+JDOiJuxUmLXeM8xEILM0hAskBCJ4hAvQjUv622IyCJllRlzkQ4Z8Qa3hdcFdLGamYgVWVipsZZtnBrMf45IgDhMzNl/2QNXcLGL5cbmybHVy9YdBMRIAJEwEsIkIDkJQVFZjpBgAQkJyBRECLg/QTqPyjx/rybc3AHl7cvxdx/5aJMsVmk+bpnHNWUZuOjhauwr7zWMwxywgoSkJyAREGIgBME6t9WqwWkrES2tEyabSQknDU/DAHhM5Epuj1ijqyNgpokWlYF06o4sKVn5qVuQFZiX4QFxEHpXLuhAhI/o0k1/ckJOBSECBABIuClBEhA8tKCI7OtELDr5NpKeDpFBIiAVxKo/6DEK7Nr2+iqcpRW3ILkOs12wOa7Uld7CxVXKuBNO8uTgNR89YVSblkE6t9WqwWk8jMZSE0wIkrhoyjKmIDUXJM864c5sg6YJrnFFjmWn+F9JhmjzL6N+Psyzqh2ymyogMQceMcll7eswqPcEAEiQARsECAByQYYOu2FBBw6ufbCPJHJRIAIWBCo/6DEIio6QQQsCJCAZIGEThCBehGof1tdjjMZGTij0GSqTLlgv035oxCPeOPKkxEXNBNZWksl59vSvdr7eP/cuciwcl6Iqgqm3AyYfSJpE8jCzKA4kH6k5UL/EwEi0FIJkIDUUkuW8kUEiAARaKEE6j8oaaFAKFuNSoAEpEbFSZG1YgLubavLsTPBiJkWClITF0DWTATFJatmNDVxihQ9ESACRKBZCZCA1Kz4KXEiQASIABFwlYB7ByWuWkfhvZ0ACUjeXoJkv6cQcHdbXWVahUnyzmzuoJCFxCgjEnYqpkq5I1lKgwgQASLQjARIQGpG+JQ0ESACRIAIuE7A3YMS1y2kO7yZAAlI3lx6ZLsnEXB/W82Wvqn9GzUtD5ZeLkyiI++mTYtiJwJEgAh4BgESkDyjHMgKIkAEiAARcJKA+wclThpGwVoEARKQWkQxUiY8gAC11R5QCGQCESACRKCRCZCA1MhArUX3ySef4N1336UPMaA6QHWA6kAj1IE5c+Zg2rRp1ppbOkcEGkxg69atGD9+PP1WG+G3Sn2f1t33Y231b37zG/ot0W+J6gDVAaoDmjpw6NChBvdXmisCEpDcQJ69gTl79ix9iAHVAaoDVAcaoQ588803mDt3rhtab0qiNRLYvXs3li5dSr/VRvitUt+ndff9WFs9ffp0+i3Rb4nqANUBqgOaOlBe7r2+00hAao29Y8ozESACRMCLCdCyCC8uPC8wnZaweUEhkYleQYDaaq8oJjKSCBABIuASARKQXMJFgYkAESACRKC5CdCgpLlLoGWnTwJSyy5fyp37CFBb7T7WlBIRIAJEwF0ESEByF2lKhwgQASJABBqFAA1KGgUjRWKDAAlINsDQaSLgIgFqq10ERsGJABEgAl5AgAQkLygkMpEIEAEiQATMBGhQYmZBR41PgASkxmdKMbZOAtRWt85yp1wTASLQsgmQgNSyy5dyRwSIABFocQRoUNLiitSjMkQCkkcVBxnjxQSorfbiwiPTiQARIAI2CJCAZAMMnSYCRIAIEAHPJECDEs8sl5ZiFQlILaUkKR/NTYDa6uYuAUqfCBABItD4BEhAanymFCMRIAJEgAg0IQEalDQhXIoaJCBRJSACjUPAtba6BpXll3H5cjkqaxonfYqFCBABIkAEGp8ACUiNz7TRYqy+xh6kl3GtutGipIiIABEgAl5PwLVBiddnlzLgZgIkILkZOCXXYgm41lYfxtLBsYiN/SN2/tJikVDGiAARIAJeT4AEpGYqwprKcl4cumxHHcpcxB6ksViU2UxGsmSrrzWNiFVdiJ1Jy5GUfhIVzZg9c9I1KDuShuXLU5D5o+bVl8sMqnHt8mXYK1tzuo11JKZpV3CU3u7ZEyWlMNeg1i3N8TNRU/rYqb6NlTGKhwhYEHBtUGJxO50gAnYJ1E9AMreR9tpF6cVQuZ0pFkIY7SwMc/xS+0svmOwWI130AAIutdVFq9Ffx4ELnYP/1nqA8WQCESACRIAIWCVAApJVLE11sgZl+Wn4y4SRGDygPy8OxRoHYeSEt7A280doZAtsm8SB4zhM2tZU9jgRb+aiJhGxSj5/ARFdg9G1+wR89oMTdjR5kKN4p18YgoND0XvxYXVqLjPIxKLYWMS6QfmrNh1G6l8m4ncjBsHI0oyNhXHQSEx4KwVHyrQ16jusf14IM+rveRb1Tci0FGYR1LqlmCcxDZaOkNYQjHzqNSSm58MiOTVF+o8INBoBlwYljZYqRdRaCLgiILnWBgPSi6HB07ehxAZQIczzWP+dMgC1wUoadOwdBFxpqyv/8zz8OQ768ZtwwzuyR1YSASJABFolARKQ3FjsFVlLMLJ3GDr7tQHnZ0BQUBCCDH5o42dA18iBmLg6VzUbxxMEpJqtE5pExLpV8DHG9wxCzzGrkXPTjYVgM6nL2PWngQgNHYjp//leFcplBjVbMYHjwDWp8leDssz3MHZAL4R2bgsfnR7+nYP4OmXwawM/Qyh6DX4ZaUVKEekUlkULoqT+3nisV12TsiyFmQS1brkNk1ieOD8YWL3lPwb4cRza6NsjqHtvDJ64GrmeMZ1Mygx9t1ACrgxKWigCylYTEnBOQKpPGwz5xZDO0AdzM603mMKzPxrLTikzSW2wkgYdewcBV9rqo/NC+f7mw8vPekfmyEoiQASIQCslQAKS2wo+D+/3D4KeM2DQ7HXYdTAL2dnZyM46iF3rluLZyHYInrIdlxX2eIKA9N0/+jeJgIQ7FSjKy0ZeYblmqZQCgFsP63CjpAA5OQX48bp67rTLDL77B/o3sYBUc/ojjIsMhq/OD2FjFiJl+zc4dDibr1NZB3dh3cJR6NbuESw9rlTnRHGoSzjCAwPQ42Vrb8AdCUgjsYzVW/6ThYN7tiNl6Qt4xMBB1+5ePPL6dptv1d1anJRYiybgyqCkRYOgzDUJAWcEpPq1wZKAFI7wcB90GfA+8pQav5gb+wIStcFNUugUaZMQcL6t/gEfD/MBx3XB9L23m8QWipQIEAEiQAQahwAJSI3D0XEsxR9gsA9b2/0qvii9ibuKO+7evIqiI3vwzYly3FGcFzqRekzZIZ2UfCBo/dNI15XfUlitHwVlGNHfTXmlvJxJ8L0gxM+ODy+I4gWkZz6tj98byQYr9tZUopz50lGkzSwTfEMpbLbrf8hO/OJ9Vv0Q2bgm+aZQ+q9wmQGL+/ACRDEB6ZlPZV9BVu3gXUwJXO35w1CWmHBcjA3j70NbTo+IhFT8t/AKqmrrFMHu4uaVc8jal43vK5U1TRSHImYgaXYMfK2+AXckIGlmJtXVoupqMXLTZ8Oo58Deqi/NtTIiUlhHh0SgoQScH5Q0NCW6vzUScCwg1bcNlgSkJ/Deh/Ew6O9F/Poi+fkrsbYvIFEbLHGib88n4HRbXbMLLweyWc4jkXrV8/NFFhIBIkAEWjMBEpDcVfrX0jBWz4EL+l98ZW3Wet1d3FVqAJA6mt2x8Fg1TDsTMWGk5OfGiGFPz8V2a0uQaspwJOUtRdj+GDD8d3hl5X6Y1F6RAYj+bp5fj++qC5E+92kMMzLfNkPwzr8SMcgYi97/488LSPc8IPi8ccqpd7UJ+1e+ovDLY8SgkVOw9kiZuaP83Xo8z/zosLQVZfDd+ucRG8t8P1SjMH0unh5m5H3tDHkn2xzKmfhFv0VW/RDZuCb5ppBdF2W5yiALiYOMiO39P/w6fu6eB3jbeX9BcqQsG8xhdwremjCSZ8yu9x8wHL97ZSX2WxaSOd/S0elViA3gwIVMwvqiG9BUGykU6uq0V0RxyD8BX3yfgnEGa2/AXRSQxNTqbpdi91tMbPRB6J81PqRki+iACDQOAacHJY2THMXSygg4FJDq3QZLz/X+WJ2XiTkxegT0eBnbNM6QXBKQxLKhNriVVVIvya7TbfWFv6Mfe/EW/hfkaLsuXpJXMpMIEAEi0FoIkIDkrpKu+wkbxhnA+XRB7zFvYO3+i7CzCQtvldCJ/DV+++JYDIgIQmD7zggK6gx/NtPDtxN6jPkXCpX21xRh86tD0SvUAL82kk8cA/x0PggM6YkBz6XgtGpyiCgW/GocXp0ai+6dAhDI/OgYjFj+8XTRn47gM8fPIPm9CcL0XcpENcc1RUibOgA9QwLho+Mg3Mfs8UfXXs/h04ti+FPLEM06C9HLoHTzcGpZNDjuVxj36lTEdu+EgECWZwOM0pp4Z+PfNokXvqz6IbJxTeCtcFq+y1UGuzBd9GvFnJ/Lfq7YORlaDYo2v4qhvULBfBXp/Vn+gmDw08EnMAQ9BzyHFHUhaQADP/xzBHw5Dl2m7sB1lzpaCnGorgJHFxqhZ2/ANxQr0lCEUZwFJP8bmrffijC3Ds5EKMdBNzAJyhgVQeiQCDQKAacHJY2SGkXS2gg4EpDq3wZLAhLzb3QL32+YhBCdAX3+moVKBeT6CEjsdmqDFRDp0CMIONtWyw60n9mMKo+wnIwgAkSACBABWwRIQLJFptHP16HidDreHR+Gdr4d0LVnXwyIm4C31u7EqVKLqUF86kIn0heB7bug35sfY/ehw8jOPoz9WxZiKJvq23YIPiwyG1qy7WU82L4NOMMgzF63W/SJk4V9m1dhYoQeunahGLpKufuWKBb4GNCxWz+8+bF4T9ZJlFy+wPu5WTZSEJBGLpP83mTjws/mNNVHNchb9RuEBeqg7zYKC9ftwsEsdh+z4V1MnrIGp6SegV0ByQeGjt0Uec7CyRK2Jt6F+G2IRCJYq+KShYD0s6sMfsYF5hto2Ugh/pHLRF9B2ciWoJVsw8sPtkcb0ReWUKbZyNq3GasmRkCva4fQoaus+sWQWO//w//j4x+pnectLQtkSwOlj2qJoFocunN5O6ZH6BEQ8Qq2y2/A1WGkNJ0RkHBjA55iwlnANOw230hHRKDRCTg7KGn0hCnCVkHAkYBU/zZYKSABdddPYNUoA3yCBmKFwhlSfQUkaoNbRfX0qkw621aTA22vKlYylggQgVZOgAQkd1aAutv4uSgHezYmYfaYHvD384OhawRiYofh6blpOKlZ2iYJGn1nf4kTlyplv0l1t6/gX2P04Dh/JHwtZaAQHwwxQMeFYOLHx1F60+z7pu72NVz88i3eL48+9E84KM9CksSCQDy5OheXVP5yhHglG5zaUKzmIP4UyuwKx7RN53BFZcPPKC6+Ctk9tV0BiUPgk6uRq8gzb40r8TeGgCSidYkBu8dO2oUfDIFBxyFk4sc4rvSFVXcb1y5+ibeiOHD6UPzJXEiiFeavLybreAFpYrpm+pG0LJAtDZQ+qiWCUnlLs4iq8N167RtwbRgpXcczkJwSmaTo6JsINICAs4OSBiRBt7ZiAo4EpPq3wWoBCajF1eyFMOr1uDd+gzxzs94CkhMzRVtxsVLWm4GAc201OdBuhqKhJIkAESAC9SZAAlK90dX/xrvV11FaeAyHdm9E0uzxeKizL3w7haHflDQo3RpJwsWznytdawvpHlvYnRcRZGGnZgemtOXABT6HLdbWNd3Kxp8jOHA6I9bITocksSACi/M0YoSYPckGOR172b6wCo/qOHAxC3BMmmlkK7wDASlicZ6lbx9X4rcj4tgSeGzl1dZ5W1mzFT+bQbVjSltwXCCe23LdMn+4hew/R4DjdDCaC8kimcw/dhFmIKVcUV87uwbD2HI5/mOAn8USQam8JQFJeAO+Ii4QPkFx+JBfOmcZRkjECQHpSgpGsjS7/BGZasvoPyLQqAScG5Q0apIUWSsi4EhAqn8brBWQANy5jO3TwsEFRGDGHuEtkvDMYcvclNCpDVbSoGPvIOBUW00OtL2jMMlKIkAEiIBIgASk5qwKd6txvbQIxzNTkMCWmAVG4K29Zk8I9oQLwVeQwl/P92sxiA3eI97Gcat5uomN49hyNGWnVBILlOfUN9uzQR0SwDevw8BseGYzHG7C6kBAilb3nIWkXInfIwWk77F2ECuDCLxtvZBwc+M4Xhyymn8R+KWPhvFh7pn+jdkpObt2swQn2BI6/rNMEHNUPqak8jYLSOwNePl/F8Cob4v7Jm9FCayFYZE7HrzUZP0J3Vj5x67CBdFW+iICTUHAqUFJUyRMcbYKAo4EpPq3wVYEJABVReswMUSHTn2XgW1iWV8BidrgVlE9vSqTTrXVBUsRyfdfF8HGu0yvyjMZSwSIABFo6QRIQPKEEq67gdPvDORnnjy66rxskT3xxkJAurkR49gDuOM07JaXqMlRATiNd3ox8aIPVpyVzktiQSMJSMcWojuzwbhGnoovpWTxXR8ByZX4PVJAkkS8jphmvZBw+p1evDjUx1xIFuhqTyYihjmr7voKvtYsezQHFgUfhwKS4g14h4fx16xSpI1l9UQpMrFYHQlIFfj61VD4cByiFh5zLCCaDaUjIuAyAacGJS7HSjcQAYGAIwGp/m2wDXGo7jpOrIhDoE8Iv6lB7oJwzcseZhe1wVQ/vY+AM231lc+e5DcGCXzhC9xscBazkDgkEVkNjsfZCFh6LyGNdg5xFhiFIwJEoAUQIAHJTYVYU5SG119PRn6ZNXWnBtlzQi2EA5cEJFxE0iA9OF1XjNtQpJ6ZAqAi84+I9GVbv0/HN/IT2nkBacJWa3Zr4FVtwyTm3DsgGrMzLZWNmooK804z9RGQXIk/84/oYk3MYru4jevKs9bu0GaLt3TeKQYMiSReTdhqUQ4XkwZBz+nQddwG1XJFnmRFJv4Y6QuOC8F0cyFpIAO4fQ5JcYHgdJ3w0JRPUWjVB7sLAhL/BvwjxBt8EBSXjOWTXBWQqlH46RQ81EkHTm/EsoJbljbTGSLQiAScGZQ0YnIUVSsj4EhAqn8bbENAAlBbvg+zY9imBjORtIDtRqp9sWNPQKI2uJVVUa/JrjNt9YEZ9/B9ssfW/qDIFxNmhiBRpQQJ54YMGQLhYykUFac9iUlLzqBcEROK0/CSfM8QDHkpzeIlZ3HaS2KcUtzsWxKGipH2kvK8eMzHU44zS8YibL7KUGXqdEwEiAARaHEESEByS5HexNHEfujc/j70HhyPN9amI/uUid8py3QqA2mLJuKREB9w+hgsPCqrO+I0dsUyNYWtFjOQUItLmyYhhNMhMGwgXly5E6dMbDeu8zicOhdjeneBDxeIoe8dN4s48nIlbUfVnNDR+YKwdW/8R8hj8Z3PQ8FP5uvqowpkzo6BnvNBl8hReI3tMKewIf6xUeadZuojIMGF+C99hGFMQAqIwPNJh3H+8mWYTu3EexP787vEceyaxrGTJBRpTsM1BgCOzue3s+fujcdHeayczyNPhFZ7aRMmhXDQBYZh4IsrsVOsB+cPp2LumN7o4sMhcOh7OG5eyahGzP/Hlp29izgDi+fX6DNiChLTMkTWLJ8ZSEscI9jgzAwkFmddBY4vi0Ng2+7o3tWegPQMPpV2eGP52pWGxCkj0OfXgdBxBsQtzcRlS5ddVvJAp4hA/Qk4Myipf+x0Z2sn4FBA4pf+1qcNti0gAbdQkj4N4brO6H5/RzsCErXBrb1+elP+HbfVP+D/hrCNQUIx57/yNivyjDtzf4yJR1GYtCQD7PfJ/0YTjIhSiUFZmB82FslK9SgrEUP6jsDMVPN9S8aGoa9mlhLfpw5PQKoYt5BGLky8P0/hZWt4QqqcNn891wT+cnky4oJmunHWkzfVALKVCBCBlkiABCS3lOpd/Hz+KyQlxKKzry86dO2OXjH9+J2y+sX0RNg97aDTd0P8iv0oUUzesCVoMJMtBSTmEPkctswbis76NvAPiUBMP7YbVx/0Cu0EX50fIhNSkFemHN07noF048CfEKFnQsV9iGbx9YnGhPXKt0RqgLdK9mNFfDfoOT3asx3mFDYEdInD2gLRO1K9BCTA6fhrf8S6eAO/LDCway/0iY1Fv5gIBP+/Xkj4eCHiXBCQXGWAGwfwpwg2GywQ90Wzcu6D6AnrwVOru45zW+ZhaGc92viHIEKsB316haKTrw5+kQlIySuDspTUhMX/7pTjRPq7GB/mB66NP4LCeoqsWT57IizIH238wjA+6RiuyRFI5a1dniYEEN6A+0LHHKHbXMJ2Dx6Qdnhj+XogDEH+bcDpO2PovE04Ue7QctkaOiAC9SXgeFBS35jpPiIAYXCammofRb3aYHsCEj8VFB/FG6DTsQG19sWONAOJ2mD7BUNXPYmAw7ZadqA9GutVE9eF+i4LSMVrYOTiVOJQlSkXGZKIwzKdNZOfRW3Wj7KQGBWE8ITPRSFIIFN+JhUJ4UF4UrHujO9Tq164KSkKfSfbvinLkRwXhJk0CUkJjY6JABFowQRIQHJb4d7BL6aTyNyRgqUJ42HsKe6W1dOI8QlLkbIjC+cr1IPvXdOFMNN3WRp5ds0wfrct9bU63Lp8Gvs3JWH2ZCN68rtxhSJmdAKWrtuD46ZK3FVFdRZrhrE0hmGN7BdJFQCo+hF7k2djfEwon15P42T8bd8lTSDlv3dQcT4LO1KWImF0DEKZDaExGJ2wFJ/uP43Lt8Td3qQdw4atgTJpKV/DbBrkZPyoQ8XpdKx6czRiQlkeQxEzfjY+3HoEpsqvMJ3ZpYYHm7xdZlCFH/cmY/Z4Mf89jZj8t32QqNXduozT+zchafZkuR6ExoxGwtJ12HPchEp1ISnhqo7rbv+Mopw92Jg0G5OHi2kFBSE0Zjgmz07Cxj05KPr5tmK3N6m8p8NKlYLwBnwG+vD1Rhtml8CMvybW3aAg9DSOFtLafRinL99SpKUylf4hAo1KwOGgpFFTo8haGwF+doMjAYlN3HS58iL+dQAAIABJREFUDYb4nLH1zK1DxfEVGMs/s7RhqA1ubfWwJeTXYVt9PgnDWb/i0Xc0DrQ1AlJVGsZyatFHy6d4jRHhC3LNp0XRaZUwjch8HlXInBmOgBH/lJeyNUxAApjfsiBSkBSM6ZAIEIGWTIAEJDeXbl1tFa6aLqAgT9wtK68AF0xXUVUrCisKe36+IIS58LPipHh4s+QEv9uWtWt3q6+jtLgAefxuXDnILzTh6k1rqsRNlJxgaZxAiXnlnEVidypLUZSfw6eXV1CM0kq10GVxA+pQW3UVpsJ85DAbcvJRaLoKlQnSjmEnSlROE6V8nbBnkDPxM6PqbuPapULk57A85iC/qBSVtxnnn3GB2aWBZ4+3ywzuVKK0SMx/XgGKSyvVs4r4HfiK5XqQk18I09WbGoHPkqzlmbuovl6K4tNiWtnZyMk/jeLS66i2KHKpvC/ASpUSoq66hHy+3mjDiMz4a2Ldzc5GXsE5G2lZWkpniEBjEXA4KGmshCieVknAWQFJgONKGwwIzxk7z9zaqzjPP7O0YagNbpWV0csz7bCtvvEDjrN+haYvKDmNl2cgoRxnUhMQHdZX8FWkdo7EU9o9LQBj0/hFZQK13dMQEL4ACklJplmVNhZcwDTsFs80VEDi4zMbK6dDB0SACBCBlkiABKSWWKqUJyJABIhACybgcFDSgvNOWWt6Aq4JSE1vD6VABLyVQP3bas0MJAagyoRc5qMoNQHhQVG8kGTWkYqxxqjxGco2NLG1LI3f7MS8nJ8XkAKYbySzs+yX5CVuwhK2AEm84sNIDrbFksldgHBndiD21oIku4kAESACCgIkIClg0CERIAJEgAh4PoH6D0o8P29kYfMTIAGp+cuALGgZBOrfVlsRkCQkopCUmhCOoChpJzZB5FFNAmKijmKWkXQ7+2bL3TjF7CReQNI40c6Vl74JcaudaEsOtsVYmV9PW2KVMmE6JgJEgAi0AAIkILWAQqQsEAEiQARaE4H6D0paEyXKa30JkIBUX3J0HxFQE6h/W21HQBKTqMqciXDOiDXF7EQV0sZqZiBVZWKmxlm2cGsx/jkiAOEzM4Vd1KSNaWwKQI6caANgy+XGpsnxqSnQf0SACBCBlkWABKSWVZ6UGyJABIhAiydQ/0FJi0dDGWwEAiQgNQJEioIIsJk+xcVYtGhRPVioBaSsRLa0TJptJESXNT8MAeEzkSm6PWKOrI2CmiSmVwXTqjiwpWfmpW5AVmJfhAXEQelcu6E+kPgZTarpT/XIMt1CBIgAEfASAiQgeUlBkZlEgAgQASIgEKj/oIQIEgHHBEhAcsyIQhABZwjUv61WC0jlZzKQmmBElMJHUZQxAam5JnnWD3NkHTBNcostWld+hveZZIwy+zbi78s4g3JFBhoqIDEH3nHJyhgVkdMhESACRKCFESABqYUVKGWHCBABItDSCdR/UNLSyVD+GoMACUiNQZHiIAINmYFUjjMZGTij0GSqTLlgv035oxCPeNblyYgLmoksLXjJ+bZ0r/Y+3j93LjKsnBeiqoIpNwNmn0jaBLIwMygOpB9pudD/RIAItFQCJCC11JKlfBEBIkAEWigBEpBaaMF6SLZIQPKQgiAzvJ6Ae9vqcuxMMGKmhYLUxBizZiIoLlk1o6mJU6ToiQARIALNSoAEpGbFT4kTASJABIiAqwTcOyhx1ToK7+0ESEDy9hIk+z2FgLvb6irTKkySd2ZzB4UsJEYZkbBTMVXKHclSGkSACBCBZiRAAlIzwqekiQARIAJEwHUC7h6UuG4h3eHNBEhA8ubSI9s9iYD722q29E3t36hpebD0cmESHXk3bVoUOxEgAkTAMwiQgOSGcvj888+RlJREH2JAdYDqANWBRqgDixcvxh/+8Ac3tN6URGsk8Nlnn+H555+n32oj/Fap79O6+36srR41ahT9lui3RHWA6gDVAU0d+Pbbb722i0UCkhuK7scffwSrJPQhBlQHqA5QHWh4Hfjqq68wa9YsN7TelERrJLBz506wgS/9Vhv+WyWGrZsha6unTZtGvyUaA1AdoDpAdUBTB5g+4K1/JCC5qeRqa2tBH2JAdYDqANWBhteBCxcuYMGCBW5qvSmZ1kaALWH75z//Sc9s6rdQHWhgHZDaanruNfy5RwyJIdWBllcHvLV/RQKSt5Yc2U0EiAARaKUE3O9Xo5WCbqXZJh9IrbTgKduNToDa6kZHShESASJABJqdAAlIzV4EZAARIAJEgAi4QoAGJa7QorCuEiAByVViFJ4IWCdAbbV1LnSWCBABIuDNBEhA8ubSI9uJABEgAq2QAA1KWmGhuzHLJCC5ETYl1aIJUFvdoouXMkcEiEArJUACUisteMo2ESACRMBbCdCgxFtLzjvsJgHJO8qJrPR8AtRWe34ZkYVEgAgQAVcJkIDkKjEKTwSIABEgAs1KgAYlzYq/xSdOAlKLL2LKoJsIUFvtJtCUDBEgAkTAjQRIQHIjbEqKCBABIkAEGk6ABiUNZ0gx2CZAApJtNnSFCLhCgNpqV2hRWCJABIiAdxAgAck7yomsJAJEgAgQAZEADUqoKjQlARKQmpIuxd2aCLjWVpcg61/LsXz5J8i+0pooUV6JABEgAt5FgAQk7yovspYIEAEi0OoJuDYoafW4CICLBEhAchEYBScCNgi41FZXfoFX/icYwfe9hq9u24iQThMBIkAEiECzEyABqVmKoAaVF/OwKy0Jy5ezty0pSM8+hdLqZjHGQaLnsIPZuOOcg3B02R6BcztYOe8AUbRHia4RAecIuDQocS5KCkUEZAKuCkg1lSU4lZ2OFP55vhwp6Xm4WFkjx6c8EJ4Fy/GvrBLladWxEEY7C+MKsj9hzxH1JyltF7JPlcBGcqp46R8i4G4CLrXVR+chlOPAPbwcZ91tKKVHBIgAESACThMgAclpVI0UsOIk0ubGY2jfaDwQ1hXBwcEIDg5F914xiB32NOamF8KzdKRdmM5snL6rkQC0zmh2TWflPB1EsXWWP+W6cQm4NChp3KQptlZAwGkBqaYMR9a+gt8OfRQxvbojlH+eByO0ezT6DhiDWWknUaHhJTwLgvE//f+KrErNRfFfIcxwJKlG0WeRNJw9R9SfrmEPoFfMoxgQNwUrM3+EddnKejp0lgg0NQFX2uofPh4GH45Dl+l7QROQmrpkKH4iQASIQP0JkIBUf3au31mRhffG9ENYJ1/o/IIRMzoBcxYtwqI5CRj9UGfodb7o1D0WU9OKPKcTeCUFI9kboUnbXM8v3SESuIKUkRw4bhKIIlUKItBwAq4MShqeGsXQ2gg4JSDVFGH7zJHo1TUQPjo/BMeMRsKcRVi0aBFmTDYizE+PjmH98OoX6plG2yaxZwEHzicIA1fkWX3WC2GiseyUkvwpLItm93bB8DeEdBYtmoOE8Ub08NeDa+OPkMiBeNmT+g9K8+m4VRJwvq2uwa6XA/nfxsjUq62SFWWaCBABIuAtBEhAcltJ1SDv/YEI9tVBHzER//giG/mFJpSWlaGs1ITC45nYsjgOBk6HwLAx+Oi0h7xHPLsCfUhAamAtOYsVfUhAaiBEup0IyAScH5TIt9ABEXCagDMCUvG/JyKyox6cYRBmr9uD7PxCmErLUFZWhkvFBcjZ8zHeHD8LW76/pUpXEIeGIj7eAP298dhQrLrM/2NfQOqJvx4S0ikrK4XpQgGOHdqNjxMi4cf3H561GqdlKnSGCDQ9Aefb6gIsjWT9pAgsyqtresMoBSJABIgAEag3ARKQ6o3OxRuvbMOL9+rB6WMw68uL+OWO9v463C47gfVTw8FxbXH/H/aCn91+NQefMZ8Hn2TD+qYUoo+iDzNgUkVZg7Kz2UhPEfwl2PLJoPLNU23CYd4vUxK2n76AgvQULJ81Er9iAlLMC2bfCxb+kJxJS/TfIOajpvKimNZyJKVl4GyZWTCrNuWJdichLeMsFJfEHFrGlcdsZZxS0pFnsrcIsBqmvF1IS2JcWPzWfU/Z5qJccyD4spIYa/PBjP2pgPnFmIWRv2Idoxi8IPuvMPtDknxiWGAFYP2a2i9VtemwkJ+k7TitNA/O5VVVbegfIuAFBJwflHhBZshEjyPgUECq3IeZDwZCx4Vg4sfHUXrzrmUe7lbiUlEJbmjGwoI4FIcVXy+EUR+AiFe2Qz1HCbAvIGlnJrGk76LSlIn3RhnAcQGIXpJrdWaTpZF0hgg0LQGn2+orn+FJXw5c4Av44mbT2kSxEwEiQASIQMMIkIDUMH5O31355YswcBz0g1fgnPqFpCKOOtw4tRRGjoMueAYymKZy5xRWjQhGcOhkbLamIOUtQZ/gYET/+QDkZ251IdJnjUH/h3uhe6jgL4H3yTB0Ilbnqj0ySL55dhRtx6wn+qEX75epK17cko453UMRfE8gvyada9vR7HtB6Q/J6bRE/w1DViBjz2LED+0rphWMrmE98fDgl7G5uAInU1/HiH7Rot1dEdbzYQx+OQ1FZn0JgBhXvz9jQ9pcPq5oZivzDRHaHdH9RuD1zZbLAGvKjmD1pGHoF/0AwroyLiz+GMQ+MQvb1QnANheBH4tr7ZQ4DOgr2SrlIx4rs80qzt45zC/GPQj0YQJSW3SU/VeY/SFJPjGUWKVKYf2a5JdqB4q2z8IT/XoJ+en6IraIxetKXqW06JsIeAsBpwcl3pIhstOjCDgSkGoyZiBYx4Ez/g0nrmsUIgc5EcShPlhR8CM2TQqBztAHf9U4Q3JdQGKJ1uLq19MRznHw6f0eChzYQZeJgDsION1WH56LbuxlZd8VKHSHYZQGESACRIAI1JsACUj1Rufajefef4Rf2/3w0gLU2ru19r+YE8qB0xmx5jsW8BZyF0SB4wx41oqClLf4AfhwIXhl13Ux1hJs/0MsundsB/8eRkyeofDJ0K4d7n1kDvaZ9Q3xTWdX9O7fA0HBD2E8Cz9nNlKPf4vPmX+mCSxtDlzUBN63A/PvsOjzk/VIS/Tf4B+KXg92QYeQGCGtGePR08DyG4gHjY8hJrQ9/MNG8L4k5rwQi856DrrACMw7qFSQxLh8g3F/WCcEdBHtXjQD45kvKa4N2of/BqvyFPfU5GHVyF64t107ha+KOUgY/RA6t+uIHmP+peq0CB14a1xY6f2Af7/YC139/RVxiWnrfBHyeLIc18nPGf8JiGIMuShMYPz4z+eQKAppcbDmZsr6tW2YxOLr2hv9ewQh+KHxmLFoEebMTsVxZp6LebVXHekaEfBEAk4PSjzReLLJ4wk4EpAurHoUOo5DxIJc+89zKzk1i0N1uH5iBeICfRAU9yGUq9bNYZQRSD6QrM1AEsNVbcOkQA6c7++xRfGcV8ZCx0TAnQScbavJgbY7S4XSIgJEgAg0jAAJSA3j5/TdXyf480LMM5sd7S1RiuQRTGz4FWYdEqK/dXwxYjgOhmc3a5ax5WHxAz7gQqZht9hZrMldij4GX0QkpGD/sQIUXzL7ZPhv6lSE6zrjua3mqUxCR1UH3wenInn/cRSx8KWlqLhVjV+Yf6Z1TwsC0tPreN8OzL9D2S/CEjHX0pI6v3p0i38XWw/mC2ldKsKRDyegC5t1pfNFxMR/4IucM7wvidLik9jyFhOwdOj1jvJ9qjmuiImrsCVTtLvsEoqOZyKFXwaoR+h0cRkggJKtE3Gv3oC4JV8ofFWUwlR4HF/9bSgC20YhMc9cnLa5sDA38d3mVVi1eZ8iLpb2FrwVxYFr+zj+9YMQV/UvjP86PM0LSE9jHePHf36Rd9sT0qqHgKTzxYNTk7H/eBEulZWhtLQCbHKbq3k155qOiIB3EHB2UOIduSErPY2AIwFJep6P2yjP+xWycCUbn8jLlIXl49rl5ypxqLYc/11ghL7tfRivcIakCiPDkZ57dgQkHMfbEaz/8Cj+fl6+kQ6IQLMRcK6tJgfazVZAlDARIAJEoB4ESECqB7T63GJPJFDH9x3WGFkHMARzssQrt89hxSDmrDMeGxXOEmpyF+ABHw7hMzIEf0kAji2KgA8XhIGvLsJ7mo7se4ueRg8mRE3/Rk5Ssmv4yguotOLGAdsmCQKSlekxrqUldX67Y8aen3FbMeu/7pd1eIIJLKEvY/PFX6B0D3XryxcRyHHwnbpTthkwxzVr3zVVXEAdbuQu4AU3Xc9EnODvuoJNz3QA1y4C4+YuNftyEvksfW0gOnI+GPyB2ZupIy51N67hmpiJ6muXcT7vAHalvY8JD7KyC8SrexTmQpwxZGMXNiktK4jFGWJacUmKbzhWXqiEuthcz6vSUjomAt5AwLlBiTfkhGz0RAKOBCSbbfbZJAyXlykLy8eDhyfhrCKTwr1mEejO5e2YFs4hIGIG9ohLkLVhhNul5575XkW04qEzYSzvojNEoKkIONdWkwPtpuJP8RIBIkAEmoIACUhNQdVKnLkLmHNsDo+uKrJyVXkqFwvDmQjxkGIL31oUrR4MPdcBY9MkBakGR//KxKIozD9SJUZwBetG+4DjfGH4ldh5VXVmO6ItE2oUSoXUEZ6YrlB0lObYFJBcTctex1YURB5619Jvw/G3EaGx2Swg2ehI396MZ9g9vlMhyE6HMbcbx29z3FnFQ2Qk+nmKVuyZ7JBLTRny0xPx2lMjMcgYiz7RkXggrCs6tmVlZ0vwmYRtSrbisZSWoljkUNavSQLSRFgWm+t5lROjAyLgJQScG5R4SWbITI8j4EhAsvk8L83AB/IyZXHpcvQynFLkUGjTlc+uKhR9FA+DrhNil2TzL4Msw7AI7D1DpQR2Y1oAewaNRZrULZAu0TcRaAYCTrXV5EC7GUqGkiQCRIAI1J8ACUj1Z+fSnVXbJvEzafyf+NRixxVVRIWr0d/KThS1l/4Pj+s5dBibJtxfcxR/jfABF7UAubJT7nJ88jvWeeyC4W9IvnasfMs+jKTdXrSCh8IimwKSq2nZ6/yKgoimo81bcWoZol0VkGq2YgK7Rz8FO/hIsjAnhHFR+iCy5PJBRqmccevCjXi5pgibXx2K3t2D0F7vD0NQTxhHj+b9TU1gS9jcJiBZE6Rcz6uc6f/P3ruAN1Xk///zhObfYhuIS222LO52W6Er1C3VhS3hYoGlW8FFCgqsgIIgRWRVuoossFyUooggSvECSn+ghC8ggqBFQMBCbIGCy10u1VoBKS0U6YWWlD7v/zPn5CQn96SXNEk/PE/Jybl85jOvmcw58z4zn6ENIuAnBNzqlPhJXshN3yPgSkByeD+vrcA10zRl49Rlq/uaPXGoruw7LExWQRk5BGsKgZ3PqMCYXGTijJzdQ0WGhvyZuIff+2JmI9/3sJJHLZCAW231Ny/gLl5vH1wO4+z/BpDSIyMpA9IA/gYYcvNSnt546MwD2N28jk4jAkSACPgvARKQvFV2V9ZhGA9u2bYb5slW6bJMvgw5L8YJo4RUw9ZZxjuq+wUfD1GBtR2O9TyE0eG5iA1iSJj3nRD3RrRTi+yn+YNnGIat+cEcs8j0QGuMv2OMYcSvcSqUiCc4mMLmaVrOHn4bV0AyHJyBaP4wcv8i49SB81iayIWde/FfvRSDyPbzWoU5vLkzLoZ9M3Bvm1ZQaf+NVVt3Q593BCfOnBHiTa1+tP4C0shNsqDfQoGWYc3DntrzPK9i3aH/iYD/EHCrU+I/2SFPfYyAKwEJsvv5f/WWK5uas2L/vmZPQOIrqJXunoYEZRhiX9iJnFdiPReQDAVY+1iUsGpqTHoOaACSuSRoq/kIuNNWF7zdQwhKH/Xyt7Kg9FyYSUKGhRIk7ktKSoL4ZysUFeoewZj5p1Eqz3KhDuNN1yQhabwO1npPoW680aZkm39KwlAhdOPl+43bgp1SnJ6fiuiZFo7KU6dtIkAEiEDAESAByVtFWleGHc/HQsmUiOyWhqyjJbCQC/iUqJXj0DUiCEyZgGnflMFyUlkdyv5vOFTG1diE1deUvbH4jGVQ7rIvxqM9UyC8xwvYfFYMdm3OYjWKfrxgka4zoUS47otxUHIxpv9Km5FTnqXVFALSbzHsg6MokYE0lORgfp/2wkN03JzDEOnU4Mzi3lCy1ug45G0ckF/AM2kowY9Flp0AZ1x+WKYVHnZ6vHESlbVSKVWjKHsekjrYE3y+wDgl398fK6UZiOZCgTQdInrKXpi9KMPxleNw32/s2ZOmsNkbgeR5XmWu0CYR8AsC7nRK/CIj5KRPEnApINWV4ZtpCcL9XJMwAm/sKTItimDKUPVGcSq1GyOQhGtu/oRNT8dA0a4/nh3DF49wfwSSoeQodOl/Q7RKAaYeiGWnSD4ylQNtNCsB1221AV8+xReZUeKx9RUyX8XnHPPUfi4exWHM/L3gv0/hN5qmRZyFGKTHzOhUrJSrR/oMJHUbgPQs83XzU6PRzWqU0smF8WAxacgy2hbTyEeR8FMSn19j0rJMaQvH84tEobZ0JZI16V4c9STDRJtEgAgQgWYgQAKSF6FXXtiFBclqsFZtENW1Dx4aNRWv8EDOr0zFqIf6oOvvVVAwNZIX7MEl07Q0mYNlWzA2gkE9dAZeSAiCss/bKDAPmhFPLD+OpQPVYMo70fGBARgyeYYYNJqnMagfumun4iuzSuF6BNL3i3A/F5Dadsagf72CRYtmYPLbeaII5VFaTSEgBUH9x67o89AoTH1lERbNmIiH+nSBRsmgjE3DxkIzxNor2zAlVgnFHb/DfX0ewqipPC/8mskYktwD3YYst7OMsv2pfdL0hd/cN8Bo5xVMHTkA3WMjEKywJ/h8j0X38/1t0XnQv4QynzH5beQZha/KbeOgZgxBEV0xYCIvL26vHxJ+fxdiott7PCXO07zKahhtEgG/IOC6U+IX2SAnfZSA0DnNynLq3c1Le7BgYDiUijsQ2bk7+g0y3ocWLcIrU0dhUL/OwrQc5V+XOg2ibU6kDhXnP8BQdWu0a8c71I4EpN8i5UXjCm/8XjF2CJJ7dEX0nUowZSzS1pzAVevnAnMitEUEvErAdVstBdC+F6/+T+6alYBUuAxalmwhDlUW5WOvJOLwS/Xp0CSvlI0+0iMjToOYtI1GIUi0X3o6C2kxGjwim3cmCEhWYq/ZG/H5VR4n03yMb5ViZbIG6TQIyRILfSMCRCBgCZCA5NWivYXS09vwTlovRIYoENRajQge1DlCjdZBCoRE9kLaO9twulS+DpncwRvYPrE9WNsIRAQr8ff3L8qG+0rn1eLqGZ5GIsKVraBs0w6RUhph7TFg+pf4SWbe2UgbwWLNT9iUxkdOKRDcNgKRke3QptubxgdiT9JqCgGpG0amJSKidWuoIyIR2U6FIAVDSJcnkbmrCBXS4CAhI5W4kLcW8wZHI0QRhNZqnhd+TRvc0SYeT35wEFdl5zvlUnYQrwsdB8lOBNSqNug0eB4+npdsR/CpwU+b0hCrZFAEtxXKvF2bbnhTWprn+iEs5PaYAkEqXl7cngZ9Z+jw7VuD7dhzNgKJZ9azvEo1hz6JgL8QcN0p8ZeckJ++SMAdAQm4hdIze/DxnMHoFKqEIsh4H4qMRIS6NYKCQ9Fp8Bx8/O1FVMkyKd5brMUh4wl1ZTi4oK8QL9GxgBQE1V3SIhkRUIcq0YqFIDLhMcxbm4ciyxufLGXaJALeJ+CyrXYYQNtKQKrUIZVZij7WuSlcpkXMbFn0L6PotFQcRiQ7vRI56TEIG/ChaSpbwwQkCCPJNaQgyRjTJhEgAoFMgAQkr5fuLfxadAJ5u7di44olmCus2LIEKzZuxe68Eyj6Vabu2PGt/Ls1eE245h3s+kWmeFicy9M4jtwdm7E68zUxjSUrsHlnHk5frrJY9v34RjGYtCyutoUloA4VRYexY12mmC63802hsFKMeKK7aV3G3nd5Wu9CFqvamNZxbOR5encvzGGsjYekVW0sHJTEqIfx3ikxnyuWcNuvIXPtVuz+rhB2MdbdRMnZQ9i9dSPE8+fitcy1+GLP/1B4vcZiyqBzLrzjkGtm8lom1n6xB4fPluDmsY0Cbwt3AdRVFOHwjnXIfI37uQQrNn+DwnIJNbeXgy/WGhm/lol1O3Jxqvgm6o7bs2fkNXcjjksmrD89yKv1pfSdCPg6AZedEl/PAPnn0wTcE5B4Fm6j6spZHN6/A5tXG9vvufy+shqbd+zH4bNXUHXbMqvivcXefVA871aJHquE+4T1OdI9VLxni88OYlobt+5G3tEClNx09Exg6QN9IwLeIuCyrb7wNZbx578lX1kF0LYSkFCK01lpiI/uJsYqsgyOJGRnx6QwpMqXH9wxCWEOAspX6lLBwiZhhxFEQwUkwZ55vp238FI6RIAIEIFmIUACUrNg54pCLWoqyoyBrstQUVNrIWA4dOtWOa4KQbGvw+Wz4m0Dqm5cFdMoq4DB6kGWp1H9qxhMWhZX227St6tviOk6sAOXadWi4hpP6xpksaqNaVXjV56naxW2I6qkVW0sHJQEpL/irXP8Gd6AijJu+ypu3HTNsa62xnh+Ca7euAlTGCNZzt3hYmJy9QZuSkaqfxV4W7gr2b1djRtXuZ9lqLApjDrU3jQyvnoD1VJZ2bVn5FXyq23cDSkt46c7ebW6hL4SAZ8n4LJT4vM5IAd9mYD7ApKUi9swVBnb7xJ+X6mye7/lZ4v3Fnv3QcnWLZQL9wnrc6R7qHjPLjEujsHTqpHuP5IJ+iQCPkLAZVtdcwOldp//rAUkPri6CPk8RlFWGmI0cYKQZNaRCrFMaxV2gK8i7GhamrDCsDmOpCAghfHYSOZg2eNNU9zEZ84wSbwSzpECbBtB589GjHaZaUSTj+AnN4gAESACTUKABKQmwUpGm5aAJCA5mAbQtImTdSJABJqZgMtOSTP7R8n7NwHPBST/zi95TwSaikD922o7ApLkpFFIykqLgSZOWolNfC60GATERR3ZKCPpcv7Jp7sx2egkQUCyCqKdb5r6Jtq2DKItBdg2Wj25EPGOxCp5wrRNBIgAEQgAAiQgBUBqC6cIAAAgAElEQVQhtrwskIDU8sqcckwEzATq3ykx26AtIuCIAAlIjsjQfiLgGYH6t9VOBCSjC5U56YhhWiwr5DsqoUu1GoFUmYN0q2DZ4qWF+HBAGGLSc8RV1AA0dAob+HS5VJ3JnmeU6GwiQASIgH8RIAHJv8qLvBUIkIBEFYEItGQC9e+UtGRqlHd3CZCA5C4pOo8IOCdQ/7baUkDSZ/CpZdJoIzFN/cxohMWkI6dS/J4/OwZaUU0yOlWJoqXJ4FPPzFPdAH1GN0SHJUMeXLuhApIwosli+JNzLnSUCBABIuDPBEhA8ufSa7G+S8FErYOMtlgglHEi0KII1L9T0qIwUWbrSYAEpHqCo8uIgBWB+rfVlgJS6em9yErTIk4WoyhOm4as/CLTqB8eyDpskhQW2+hI6WkhZpI2zhzbSLhu72mUynxtqIDEA3gnr5RblBmnTSJABIhAgBEgASnACrRlZEcKJmodZLRl5J5ySQRaOoH6d0paOjnKvzsESEByhxKdQwRcE6h/W12K03v34rRMk6ksygf/bZr+ZOKR4EnpSiRr0qG3dksKvi1da32dEJ87H3vt7BdNVaIofy/MMZGsE9AjXZMM0o+sudB3IkAEApUACUiBWrKULyJABIhAgBKof6ckQIFQthqVAAlIjYqTjLVgAt5tq0uRnaZFuo2C1MQFoE+HJnmlxYimJk6RzBMBIkAEmpUACUjNip8SJwJEgAgQAU8JeLdT4ql3dL6/EyAByd9LkPz3FQLebqsri5ZijGllNm9Q0CMjTou0bNlQKW8kS2kQASJABJqRAAlIzQifkiYCRIAIEAHPCXi7U+K5h3SFPxMgAcmfS4989yUC3m+r+dQ3y/hGTcuDp5ePImMg76ZNi6wTASJABHyDAAlIXiiHiooK0B8xoDpAdYDqQOPUgZMnT2Lu3LleaL0piZZIIDs7G++99x7dt+nZhepAA+sAb6tnzJhBHBvIkZ4dGufZgTgSR1+qA/78fEUCkhdKb9u2bVi6dCn9EQOqA1QHqA40Qh2YPXs2Jk2a5IXWm5JoiQQ2bNiAxx9/nH6rjfBbpWeflv3sx9vqlJQU+i3Rb4nqANUBqgNWdWD//v1++4hFApIXiu7y5cs4f/48/REDqgNUB6gONEId+OabbzB9+nQvtN6UREsksGPHDixcuJB+q43wW6Vnn5b97Mfb6ueee45+S/RbojpAdYDqgFUdKC3139hpJCC1xKdjyjMRIAJEwI8JeD+uhh/DItc9JkAxkDxGRhcQAbsEqK22i4V2EgEiQAT8mgAJSH5dfOQ8ESACRKDlEaBOScsrc2/mmAQkb9KmtAKZALXVgVy6lDciQARaKgESkFpqyVO+iQARIAJ+SoA6JX5acH7iNglIflJQ5KbPE6C22ueLiBwkAkSACHhMgAQkj5HRBUSACBABItCcBKhT0pz0Az9tEpACv4wph94hQG21dzhTKkSACBABbxIgAcmbtCktIkAEiAARaDAB6pQ0GCEZcEKABCQncOgQEfCAALXVHsCiU4kAESACfkKABCQ/KShykwgQASJABEQC1CmhmtCUBEhAakq6ZLslEaC2uiWVNuWVCBCBlkKABKSWUtKUTyJABIhAgBCgTkmAFKSPZsNdAan6ejGKi4txvdq9jEjnl5Yb3LuAziICfk7As7bagPJS/psqBf1E/LzgyX0iQAQCmgAJSD5cvNLDprsPpz6cFXKNCBABItBoBDzrlDRasmSohRBwV0DKf3MAEhMT8ezmK67JlO3Ey0mJSOz9DDYW1bk+n84gAgFAwLO2OhcL+iQiMfHfyP41ADJPWSACRIAIBCgBEpCaqWAN5aXCm8tiJ+pQzlx+I03E3JxmcpInayhHaXExGv2NqaEEB3SLsGhVDi74xMtYA0oO6LBo0SrkWDtUfd2jt8xANa4XF8NZ2davRN19O2dMv/g67L0Yl4TJRi/T+mWKriICHhPwrFPisXm6oIUTcFdA+nn5g2CM4e7puS6IGXBqeX+0UzCoh63CTzddnE6HiUCAEPCorS54Gz0UDCzqZXxbGyAAKBtEgAgQgQAkQAKSVwvVgJKjOswamYI+PXsI4lCitjdSRk7F8pwLsNZRtoxhwsPpmC1eddIysR/WYHRiIkav+cFyf0O/HXwN3aMjERnVFfNcPXs3NC23rj+I17pHIzIyCl2tHcqZ66GQl4O5iYlIbHTlrw4HF/E33j0wZYuTN96Fn+AJnv4zn+IXU96rUbRnCSYOGoDeWlGY7NGzPwZNzMDm42Wms2iDCPgDAY86Jf6QIfLRpwi4KyDV7nkeEYwhqN8K/OwsB5e24Kl7WoMptZhzsAw0/sgZLDoWSAQ8aavLPxuNUMagfGw9KgIJAuWFCBABIhBgBEhA8mKBlunnI6VrNMJDWoGFqKHRaKBRh6BViBoduvTCqLfzIe/K+4SAdHwB4hhD/MKTjUuqeDte6hWFqF5T8NlPjWu6ftaKsf2lXoiK6oUpVg4ZNo30TMgzbMJIxsCaQPkrWz8cKsagHrsN5Q4yemXdMIQxhrg5h1EjnGNAgW4CenZuD1WQAsrQcKHuhYcGI0ilQceEgXhxa4GNgOnAPO0mAs1OwJNOSbM7Sw74HQF3BSRc/AD9eFv/m+ewx2EuDTiysDvUCob2Y9bjwi2HJ9IBIhBwBDxpqw/OiBKete5f9H3AcaAMEQEiQAQCiQAJSF4rzSN4s4cGSqZG72mrsX2fHnl5ecjT78P21QswossdiBy3FcUyf3xCQPoqTXgj1OgCUl0FLp04hEMnLuCGTwxVrkPFpRM4dOgELlg59MM7PTwTkH54Bz2aSEDClXUYpmJgkc9hr/WQNaHuXMGGEWowFoOX9MZ5Ele24OloFRTKWIxaugFf788V6l7u/q+x4b0X0DdchcTFx4xik6wC0iYR8FECnnRKfDQL5JYPE3BbQKrdg+cjGJgiCe87GoJ0aRNG/U4JpkrG4mM3aPSRD5c7udb4BNxvq3/Gin5BYCwCU3aJr74a3xuySASIABEgAo1BgASkxqDojo3Cd9EniM/tfgafX67Cbdk1t6uuouDATnx9rBTyl5OigKTEuC+kk53HtpHOEj+leDnOVogxnlNabhp9IsbHEWPnCHGaPh4uiCdxs3PFmE0exUNy5q/9Y2JsKNkKHE7jD9m3IeTfGLupWJY3Ex8Hx6TYQPKwVHxf7uw4gcHwj8UVd5yuusP9zZ0tjNpiwz82MXMUD8mdWFgmv/lGXTF0w1Rgig5I32dHQSrfhrFqBhaTjpxK45VfT4GaC1r9l+DM9RpZB6YONeUXcWrPTuiLKmT7LVKkL0TA5wi43ynxOdfJIT8g4LaAhKvISuFTzX+D5+wOQSqH/r/3oy1jiHk2G6U+8bLEDwqAXAwYAm631YbteJq/HGMpyLoaMNmnjBABIkAEApIACUjeKtbrOqQqGZjmKXwpn6cmpV93G7etAiOIAlJHzDlcjaLsDIxM6Q0tj22TqEW/R6dja4EdAQHVOJudgYmD+qNnDzHWjbZ3CkbO0uFoifX5P2DN6EQkjl6DH6rPYvP0R9FPiI+ThNe26DCOx2n6012CeBL6h65izCZ34iFVF2HPkokYNMDsb++UcVh+oMQkVAHGOEGJcyGPEf7DmtFITByNNT9U4+zm6Xi0n1ZIN+m1PIkU4I59Y+wmIW/mK8UtB8dsgpbrM4R4QV3/ECowuOtPIk/Hgc31yOitRWLXPwijtthdfzIxs46HVH02GxkTB6G/RSysWdAdlTOydpx/r0PxqoFQMgXumX3Y5gTD3ucQyTsr6TmQ9CPkz0YMF5B6vIXz1lWAW7h920LQtDFKO4iAjxFwu1PiY36TO/5BwH0BqQ4H/sOn3SiQZG8I0tmVSNYEgakewXsFphbZPyCQl0SgEQi43Vaffwvd+XNKzCwcsnoWbgQ3yAQRIAJEgAg0IgESkBoRplNTdb9g7TA1WFAEug7+F5bv+RHl9jrzMiOigPRHPDQ2FT1jNVC14bFrwhGqZFAEt0OnwR/hrOx8oAz6N1KRyM8NUiBErTGe3woh4dHomjITX1+SX3ASC+MZ2G+H4ZkJiejYLgyqcB6XSYtFXy5DP40G4aFKQTyR4ubwuE39ljmZn24ogG5CT3Rur0KQghl9UCOkVSg63Pc4Pv5RSn8LxvCHBTYG8hjhJxfGg7HfYtgzE5DYsR3CVDzPamilOfHu2j+5EPHcfvxC2ERvcnDMZsrg9ilCrCB1iBjMXOTJmWowZbuUD/nndkwxxrXiK/OY4lzxfbILyvRvIDUxFhpVEBTGWFicc6uQcER3TcFMy0KSJyBs1/2yEn9XMgT9aR6OWBw1YF96ByhYezy7S9ZZqTyA2QlKsLA/otfYDGw+ctnu6mwWpugLEfBhAm53Snw4D+Sa7xJwX0ACytY8LNwjf2MzBKkMO//VEa2ZEgnTvkEZdYp9t8DJsyYj4G5bbQqgPXyD+eVXk3lFhokAESACRKAhBEhAagg9j66tQ9mpzXj9sWjcEdwWHTp3Q8/kkZi6PBsnL9tbbB0QBY1gqNpEoPvzK7BDiF2Tiz2fzkFfPtS3dRLeKzA7YTjyJnpFBpti3ezW5yEvLxf7d6zGtN5qMGU44idthVlDMgpIQWrceXd3PL9iB/bn8rhMx3Hp+iUcy8uDbnJH4eG442SdGLMpLw/HLlWZE7XYMuDI0r8hWqWA8u6BmLN6O/YJPuixe8PreGLcMpw06RrOBKQgqO+8W5ZnPY5f4nPiPbDvQCQS3HVwzEZAunZeyPNCYYoCQ8pCzlP8O3/NIuPGL9dwnh9fmCIwYykLTefnSRcYjuDNXpEIVigRO2opNuwWY2Hl7t+B1dN6Q82UCI+fhK3mQrJNqO4XrPy7EiwoAYtOyQ8fxux7FGDtJ2GHRYTtm7iUtxLPJ4YjJFSDjvGJ6DdoIjJ0ufjRlYopN0/bRMBHCLjbKfERd8kNPyPgiYBUd+A/iGIMil6ZKJTl03BqOfq34+3xGKz9yRiPTnacNolASyDgbltNAbRbQm2gPBIBIhAoBEhA8mZJ1tXgWsEh7FyXiWmDOyE0JATqDrFISOyHR6frYL2auiRodJu2DcculpumGdXVXMFHg/nIoFCkfSVloBy7pkRByZTQztqFH+Wxbm5X4fJ3b+MRFYNC/RBWmZ5yjQISU+GRt/NxsVwemUm0K44IcnMVNsM+vBTF/YrBpPVncKXKbK+u5hoKC6/CHALCmYDEoHrkbeTL8ix444l9ByKRYMfBMYm39eJpjvZL5G0+t4wRBSRrQwDKd01BlJJBqZ2FXT9eR43prfRtVF3+Dm8/wuMbqfGQuZBszPNpbD9m9oGSBaPf+6bCBE4tQkIQQ8SEL21XaLtdjovHc/DFqgV4slck7ghSQRN9H7r1TMa4JTm44GI0nB0naBcRaDYC7nZKms1BStivCXgiIKFsDR7mI07DJmGHKdeXsOWpe4TRR9pXD+OGqZ03nUAbRKBFEHCvraYA2i2iMlAmiQARCBgCJCA1Q1Herr6By2cPY/+Odcic9hj+HB6M4HbR6D5OB3lYI0m4GLFRHlpbdPjwHHFkkFmjOIPFf1GAsfuRcdz2fNSVYY0gOoVhkukpVxKQYjHviP0nXI8EpPNL8VcFA0uYjcOmkUaOADsXkGLnHbEN6uyJfQcikeCNg2MSbzNT0XdH+x3lDE4EpDOL/wIFY7g/47hFwHTRVh3K1gyGkjGEmQvJbjK1BW+jj5IhbMCHprfepxb/BcEsAuO/uGH3Gi481VZeReGJPOzeugoL0gYgOqQVQtt3QfJ8PeyF5nJgiHYTgWYl4F6npFldpMT9mIBHAlLdIcyK4dOc/4qlxhHBhiML0V3NRx+Nw6fFdu7HfsyGXCcCnhBwq62mANqeIKVziQARIALNToAEpOYsgtvVuHG5AN/lrEJarBIKVSym7jLPPXImXEjCjlns+BrP8tW32HBscLACqq3oJAlI8VhoEyhIBCOlE+/oBDm/r58VV/savsGNJeGdC0h20/PEvgORSHDXwTFHvB3tl2fdYtuJgPT1s2phdNJwx4WEjvxttrlgLUybvtQW4O0+PK7RMKy7wvcW4v1+wWCqf+JTR/qR6WKgrrYSV4tO49Dn85GsZlBqkvGBZUAt2dm0SQR8i4BbnRLfcpm88SMCHglIqIQuld97Q/HUl3wo5yVsGvU7KJkKyYuP244G9SMO5CoRaCgBt9rqEwvQhT/3xM6Fg3eZDXWDricCRIAIEIFGJEACUiPCrLepugqceq2XsJLLX5eeM5lxJlxIwo5ZZziMOR35Q6wWy2SzmkzGUI7NY8LAmBLjvpD2NrKAdHiOKH5ol5lGxUgp2X7WQ0DyxL4DkUjww8ExR7wd7bfNk3GPEwFJEvG09gsJ5ZvHIIwxKM2F5CCZWhQs4XVGjbHbyoEr6zAsjEE1fL1nI4luleLTcRFgrDWethsY3EHytJsINCMBtzolzegfJe3fBDwTkID82THCi4Hub52HIX8B7m/LwOL+jd2l5knb/k2EvCcC9SPgTlt95ZNHEMwYVE9+DkcRNt1PXY+MpAzo3b+ggWfy9MZDZ/e5u4Gm6XIiQASIgI8SIAHJSwVjKNDh2WdX4miJvWAzBuS9zJcCZnhgsXmFM2fCha2AVIldz7YHY2G4f6btdCRDQRYebsfAlH3w7k9Spt0XkOIWHJcucvxZuQVjeHDvsHhMy7GdEGUoK5O9ja2HgOSJ/csfIpm/0bpzEnZYIC+Dfub9gkhjvUKbI97S/pGbLAw55iAJSCM3wfqKyl3Poj2fonb/TOitERkKkPVwO0Hk62MuJIfp1J5fAi1jiHxuL8q2jYWaqTB8vbVRoEyfgXGzslFkN1b7JaweFGwlLDpMkg4QAZ8g4E6nxCccJSf8koCnAlLlhuHC1OPQtI+xaVR7BDE1hn5YCIehswt1GJ+UhCTpb7zOjZcufomSnG7hBNxpq7954S7h+ffB5T/LaHFhJgkZFkqQuM/0u7EjFBXqHsGY+adRKrMEN35vhbrx5t+j9Ls0CUOF0I2X/V6l48LvthSn56cieqaFo/LUaZsIEAEiEHAESEDySpFW4WBGd4S3+T269hmKfy3fjLyTRSguLkbRyb3QzR2Fv7QPAlMmYM5B8/sXSbgwjzIyO2srIAHl370KLQ/QrEnA4OlZyD1XjOLiIpzMXoKxvf4oiCYxT3+Oi6aXoq4FpOsf/0O4sYcmTEU2t1d0EkcLzNPszB7xrTLkTEuAkgUhostATOYrzBVxH84hN2s6hj44EIuPSJJKPQQkT+zX7sHzEQxMoUGvmZtFP87lIuvFgYjT8EDfDO4KSAdniuLe74Z+gCM8P+eO4MQvljm3+HZwprAqD/vdUHxwhJfzORyRLij/Dq9qlWBKDRIGT0dW7jljPcjGkrG98McwBhbzND43F5KFaYsvteexRMug6DARL4+PBFNJ09nkZ/2MjaOiEBoei+4DxiFDtx1HhHpRjHNHNmP55L+jI39brh4G3WX5dbRNBHyXgDudEt/1njzzdQKeCkj436u4l99TOnRG57YMyoSXkVNmP66g0JntNgDpWXvB0+F/81Oj0c2yp+zriMg/IuAWAddt9c94P4nH74zCy9+aHk4BiM+I5udfLh7FYcx88+8mK02LOAvxVY+Z0alYKVeP9BlIsvd7sxKfhGfqmDRkGX+T4m8zH0VCPE/xWTkmLcv0mxWO5xdBOFy6EsmadC+OenILPZ1EBIgAEWgyAiQgNRlaueHbuHbuS2SmJSI8OBhtO3TEfQndkZiYiO4JnRF91x1QKO/G0MV7cEn2ytJTAQm3ipGT+SS6hCgQ3C4K9z2QiMTE7kiIbY/QVkqED5yH7PMVsuDUrgWkuh8+wkAeW0kZjlhur3sCus3eL8+cxfbNS3uweOjdwmpwbfgKc925Dw/gvqh2CItIxvITUoCm+ghIgPv2b0D/Hy5mMSjDO4p+PHAfojSRGDhvKSbwoKfxCyEP/eSId8U3LyFWyaBQ/R7xPD8PxGPkGvmbMgsEQMU3eClWCaZQ4ffxvJwfQPzINRCvuIXinEw82SUEiuB2iLrvAWM9iEX70FZQhg/EvOzzqHDQ97BMqRbHMxLAFO0Q3k4B1TAdim2uq8KlQzrMGxyNkFah0ET/CfFCvUjEA/Ed0aGNEkz9F6SvOQVH/R3LNOkbEWh+Aq47Jc3vI3ngvwR45zArK8v9DFRtxAglf2GhgIK1x5i1PzkefbRjEsJi0pEjW2ii9PRe7D0t7/W6nzSdSQR8mYDLttoUQPthrLEYQG0lIBUug5YlW4hDlUX52CuJOByCPh2a5JWy0Ud6ZMRpEJO20SgEiaRKT2chLUaDR2TzzgQByeqZ0MxVfFa2G5tTOKkUK5M1SKdBSGZktEUEiEBAEyAByWvFewu/Fh1Hzhd89avHoO2sgUajgaazFo+lLcCqL/Q4V2a5Wsv2KeI5U+zEpvl+WT/heutjt34txIEveRoPIyFKvL6z9glMe+9T5JwpkS0bzzP+PZb14+f0wzLzzDlLIrVXcWL9QqQN6CykF5XwMCatOWYzNct80S2UndMLy8WnPZyAKJ7HqAQ8nLYAH+85heKbksKxHVP4Mc0UyLMn5aufQ4fctc/Fpjx8POcJE+vOA9Kw4OM9OFNyHO/wfPdbBnm2HfKuvIBdK6fhsYQogQHn+erui+Ys22xV4sKulZj2mDH/nbV44tXdMF1x61cUHvgSqxak4WGjTV4Pnpj2Hj7NOYOSGomRjWGbHTX/ex0PChw1eGxNsUwclJ1adxMlZw9h57pMTHuiv6leRCX0xxPTMrHu62O45J5iJTNKm0Sg+Qi47JQ0n2uUcgAQ8FhAwv/wRqJ4v9U89AaO3XDShufPRkxYNGjGSwBUFMqCSwIu2+pzmejPn2H++ppVAG0rAalSh1RmKfpYJ164TIuY2fnm3UbRaak4jMi8H5XISY+xWMW2YQKSGAdNQwqSjDFtEgEiEMgESEDycumKq1+dx4kjecjLy0PekRM4X3QVlbW2D5zXzovnnL9m62TVpWPC9faOiWmcxdFD4vVHThTicnmNHXGhCpeO8XOO4ZJ55pxNYnU3r6Ho9BEhvUNHz6Lo2k07tuSXicvFF509ikM8j4eO4mzRVVTdlp9zDef5sbzzkGdPytcxZw4Zl6N3bp+ndRtVVwpNrI+cLsJVwQljvo9dsgjY6Iz3rfLLKDh6SGAg8rQU++Q5E7ZvleNygTH/R06g8HI5LK6oq0Xl1SKcNdrk9YCf44F2JCZZcxknBY55OHfVtg7J/bpdfQOXC0+Z6sWho6dQePkGqi3KRX4FbRMB3yTgslPim26TV35CwHMBSbqX5iHvTAnkE3FsslxZhPz5ydDEiTFVxstGQdicSzuIgJ8TcNlWV/yM7/gzjNXzmO0UtlKczkpDfHQ3MVaRnSmfOyaFIVUnG9onjPabDZmkZKJZqUsFC5uEHcY9DRWQBHvm+XamdGiDCBABIhCIBEhACsRSpTwRASJABAKYgMtOSQDnnbLW9AQ8F5A89Kn0tBhLZX4ywoQOMa3i5CFBOt1PCNS/rbYagcTzy8VXHqMoKw0xmjhBSDLrSIVYpmWw0HD4giaOpqUJi52MwRYjR0FACotGNylAdlISzOKuOIVN/K1KwbStfrN8ZKFbKxD7ScGRm0SACBABJwRIQHIChw4RASJABIiA7xGof6fE9/JCHvkegSYXkKQsG4Wk+clhiB5JK7FJWOgzcAjUv622IyBJWIxCUlZaDDRxGcbg1aLIYyEgCdNFzaOMpMv5J5/uxmLMo5MEAckqiHa+aeqbaNsyiLYUYNto9eRCxDsSq+QJ0zYRIAJEIAAIkIAUAIVIWSACRIAItCQC9e+UtCRKlNf6EvCagGR0sHRlssV0mvr6TdcRAV8jUP+22omAZMxkZU46YpgWywr5jkroUq1GIFXmIN0qWLZ4aSE+HBCGmPQccRU1AA2dwgY+XS5VZ7Lna+VA/hABIkAEGpMACUiNSZNsEQEiQASIQJMTqH+npMldowQCgEDTCUiF0I1PQpLF0uOF0D2iAbNYPSoAIFIWiAAf6VNYiLlz59aDhaWApM/gU8ek0UaiOf3MaIsVDfNnx0ArqknG9CpRtFScJmqe6gboM7ohOiwZ8uDaDRWQhBFNFsOf6pFluoQIEAEi4CcESEDyk4IiN4kAESACREAkUP9OCREkAq4JNJ2AVImi/L2YnyqPtdIN0anzsfd0qWvH6Awi4GcE6t9WWwpIpaf3IitNizhZjKI4bRqy8otMo354IOuwSVJYbCMoPk00Kw1aY9D6pKQkCNftPQ35L66hAhIP4J28Um7RzwqK3CUCRIAIeECABCQPYNGpRIAIEAEi0PwE6t8paX7fyQPfJ9B0ApKYd94Z5mmY/kg88v1KQR7Wi0D92+pSnN67F/KfRmVRvvk3w38/MvFIcK50JZI16caYSDJ3peDb0m/O+johPne+rT2TCVH4NcdEMh0wbuiRrkkG6UfWXOg7ESACgUqABKRALVnKFxEgAkQgQAnUv1MSoEAoW41KoKkFpEZ1lowRAR8m4N22uhTZaVqk670MRJ8ODU1B9TJ0So4IEIHmJEACUnPSp7SJABEgAkTAYwLe7ZR47B5d4OcESEDy8wIk932GgLfb6sqipRhjWpnNGxj0yIjTIi2bpq95gzalQQSIgG8QIAHJN8qBvCACRIAIEAE3CXi7U+KmW3RagBAgASlACpKy0ewEvN9W86lvlvGNmhYCTy8fRZVNmwpZJwJEgAj4EgESkLxQGhs3bkRmZib9EQOqA1QHqA40Qh2YN28ennvuOS+03pRESyTwySefYPTo0fRbbYTfKj37tOxnP95WDxw4kH5L9FuiOkB1gOqAVR343//+57ePWCQgeaHoLly4AF5J6I8YUB2gOkB1oOF14Msvv8SLL77ohdabkmiJBLKzs6PEA/MAACAASURBVME7vvRbbfhvlRi2bIa8rZ40aRL9lqgPQHWA6gDVAas6wPUBf/1HApKXSq62thb0RwyoDlAdoDrQ8Dpw/vx5zJ4920utNyXT0gjwKWwffvgh3bPpuYXqQAPrgNRW032v4fc9YkgMqQ4EXh3w1+crEpD8teTIbyJABIhACyXg/bgaLRR0C802xUBqoQVP2W50AtRWNzpSMkgEiAARaHYCJCA1exGQA0SACBABIuAJAeqUeEKLzvWUAAlInhKj84mAfQLUVtvnQnuJABEgAv5MgAQkfy498p0IEAEi0AIJUKekBRa6F7NMApIXYVNSAU2A2uqALl7KHBEgAi2UAAlILbTgKdtEgAgQAX8lQJ0Sfy05//CbBCT/KCfy0vcJUFvt+2VEHhIBIkAEPCVAApKnxOh8IkAEiAARaFYC1ClpVvwBnzgJSAFfxJRBLxGgttpLoCkZIkAEiIAXCZCA5EXYlBQRIAJEgAg0nAB1ShrOkCw4JkACkmM2dIQIeEKA2mpPaNG5RIAIEAH/IEACkn+UE3lJBIgAESACRgLUKaGq0JQESEBqSrpkuyUR8KytPgvd5BEYMWIGvrjUkihRXokAESAC/kWABCT/Ki/ytjEI/Pw5po0YgRGZhxrDGtkgAkTAywQ865R42TlKzu8JkIDk90VIGfARAh611VfWYlibEISEP40vbvpIBsgNIkAEiAARsCFAApINEi/sMJTg++xVeGXqWIzgQsaIyZiRqUPuj+UweCH5JkviUKaYH18XZk69iW4hIQh5amuToSDDRIAINB0BjzolTecGWQ5QAq4FpEPIFO7d/P7t5M/X74UBWn6ULd8h4FFb/c0LuIsxsAeX42ffyQJ5QgSIABEgAlYESECyAtLUXw0FWzF9aB/cHxuFCHUoQriQEdIG7TpE475ufTF03k5c8FcVaetTYn58XZg5uRDx/CFlzJamLm6yTwSIQBMQ8KhT0gTpk8nAJuBaQNqKp4R7N79/O/nz9XthYBcj5c4HCHjSVhe83QMKxhD18reo9QHfyQUiQASIABGwT4AEJPtcmmZv4QY83aMT2gUrEBI9AGlzMrF6/XqsX52JOU8mIlypQHDEvUier0dZ03jQtFa3jAHzB2GGBKSmrQdknQg0MQFPOiVN7AqZD0ACrgWkC8jj9257f7r5ePhOBsaUiH0lPwDpUJaIgPsE3G+ry/HZ6FDhd/PY+gr3E6AziQARIAJEwOsESEDyGvIy7HzhXqgUDOrkedj07WkUldxAVXU1qqtuoKTwOHJWpSFWyaDU9MBcfbnXPGu0hEhAajSUZIgIEAHHBNzvlDi2QUeIgCMCrgWk2zDwe7fN3y/4+r+9EPn/MSgTXsS2C5WOkqD9RKBFEHC/rT6IGVFceL0fi75vEWgok0SACBABvyVAApK3iq5wNR5upwBTJWPhoRLU1NkmXFdRhF2ztFCyIGjGbMIV2SmHMnmchUzwsM/VRbnQvTkVY3nshbFT8ebmoyhxNO2t+jKObM7EDGFlixGYPGMVsr8vsYm1JLdvKDmKzZL9EZOR4cy+zEfUQ0CqvnwS2atmYLIQR2Ispr6pQ25Rtdyq5Xb1ZZzMXmXKz9ipb2LzUdv8SBdZs1qe/T1KjtMUNokPfRIBfyTgfqfEH3NHPjc3AdcCkn0Py/Rz0UujBFMnY8GeS6A4wPY50d6WQ8DttvrnFegXxMAipmBXTcvhQzklAkSACPgjARKQvFRqV9YNQxhjUA37GL84mdx960Im+vNpYOqx2CYbhLT1KR5nIQnPZozDgO73ITpSjVAeeyFUjciOXdHnaR0KrEQkw4WdmJfaG/EdO6AdX9kiJARt2kUh9v6+eGZDgYWIJNpPxQLddAzt0xUdJfshbaDp2BUpr+dB5o59ah4JSAZc2DkPqb0TEBvVDm2EOBKhUEdG477uA/Cs7iwsZSQDSo5m4dkBiUiIjTLlJ1QdiY5d++D5rdZrvhpQsPVF/MOKVYfY+9GnV2fc6Q9T7exTpr1EoMUTcLtT0uJJEYD6EKiXgFS2Ey8maKBkaiQv/Balt+qTMl1DBAKLgNtt9Z7n8Bv+XNbvA1wMLASUGyJABIhAwBEgAclLRfrdvE5CfKAHM4tgZ/CR2Yu6Q5gVw4fx/hVvnTPv3jKG7wtDuCYUodGDMS1zNdavX43MaYMRHcKgUEVj8EdnzRcYTuGD1HsRERaBPz/2ApasEOM1rFjyAgbeHYI2MWOxSaa5iPZ/g7uj26FtjNn+4rS/QM0YlJFPYJN8SJQ5JfOWBwKS4dQHSL03AsGKEEQPnobM1dy/FVggxIJqhTbR/fGqXh4J6iq2Te6I8DadMCBtjux87p8C6gcW4ojZE3D7gzvdCSVT4u6BxvwbY01FhLQSAjVSEG0ZMNokAn5EwO1OiR/liVz1HQIeC0iGAujG/Rnt+BT1octwjNQj3ylM8qRZCbjbVlMA7WYtJkqcCBABIuARARKQPMJV/5OzJwQLAtI/NzkZfiSYv46P/8HFojsxZbc5PVHgYYgZuwI7D53F5RtVqK6uwo3LZ/Ht+6PQnjG0jsswiSjlu57DPa1V6Pvql/iu4CLKKsR4DRVlF3Hmq+noxtoiZVWhKQGT/ZHv4HOZ/bIiPeZouT934YVvTKfb33BbQCrHrufuQWseZDQtC9+evYwbVdy/ClwtPI4vX+0LFVNCk/wBzJLYLRTnfIpP9xzG6aIS2flG/4J6YlmB5JZknyFmwirozxjzL8WayhyJCBqBJMGiTyLgdwTc7ZT4XcbIYZ8g4JmAZEDB2lGIVSmgjE3DmlNlzl8S+UQOyQki4B0C7rXVFEDbO6VBqRABIkAEGocACUiNw9GllS/GKQUBaeQmq3lmNlf+gHd6cMEmGrN4wCPjP0ngSf2kHLelncbPuhtfYEIEAwt6GKuNo4T2vxgJBQtDx36pGCHEF+IxlIx/qX8VBKewSTtMlkz2V/8Ky5H3tfj25SgwpsATn5tOt7/htoC0Fy+EK8BYfywpqLB52L5VshFjeX5a/x0f/SxL6laNGDuq+jrOHfkGm1ctwitTRyOxA+cVirSvpHP348VIbl+LBSdt7dcdnY/OJCBJsOiTCPgdAfc6JX6XLXLYRwh4IiAJo12jVVAoYzFpQwEqnA4x9pEMkhtEwEsE3GurKYC2l4qDkiECRIAINAoBEpAaBaNrI/979V5BQOqy4ISLk/fjxd9yQaQnlv1oPlUSeMZsMe8zbx1DRmd+zQNYLKxe8TPeT+ICSisohdhCYvwjHgNJ/FOilZWA4sz+idf/LPhuP22zF24H0f75XfTh6cfMwiG7D9tXkZXC89MVb5yS2S87Dt2skUjprcUD8V3QMSoSEepQKFvxcxlM/l3JwkMKbn8GDtgb8HWSgmjLqNImEfA7Au51SvwuW+SwjxBwW0Aq02N+398Lo2m1s3ahiNQjHylBcsNXCLjVVlMAbV8pLvKDCBABIuAWARKQ3MLU8JOqdkwSpk0F93hbNi3L1q4hfzb+ZGclCmcCD3AIs//IRZReyBREp1/xyWD+PQqj3xZjH61fb+cz74LJAWf2Ty6MtxRoTFdZbbg7AunXTzCYC0h/nC2sKmdlBcBlfJTM/Y/HwpPGo+V5eGNgAqLDeeDwTtA+/ARemDtXiO308oNWAlLNBgzn9n/7IvbbGgdIQLJHhfYRAb8h4FanxG9yQ476GgH3BKQy6Of2gkbJoE5egJxiy7G7vpYn8ocINAcBd9pqw/anoeLPbClZuNpgJ/XISMqAvsF23DXA0xsPnTkihLsX0nlEgAgQAb8lQAKSt4ruxnZMbM+nZXXEBJsVw4xOGAqw9rEoBDGG9hO344bMN2cCj+HUYvQIli9/Wgf9S+2FaV2Dsn5EdbUY/8jm02CeDOfMfqMLSHV6vMRZBPfA4lN2pvRdWoehagamTIXuugihPHsSIpUM7Ue+gx37D+PEmUJcLClBWUU51g+3EpCwE8+o+JS+blhiDqJkpnl8AeL4w4ppyJL5EG0RASLg+wTc6ZT4fi7IQ18l4I6AVLbzRSRolGDqZCz8ttRq6rev5oz8IgLeJeBOW31iQRfhJWXs3COykAZcmElChoUSJO5LSkqC+GcrFBXqHsGY+adRKs9moQ7jTdckIWm8DtZ6T6FuvNGmZJt/SsJQIXTj5fuN24KdUpyen4romRaOylOnbSJABIhAwBEgAclrRVqO7xYniyuGdfo7XtQdRYlMOzGUHIUu/W+IVinA1AOx9Hi5hWeSwBM1eAn2FJkXuK8uysZMYQi9pehU/u1MJCgZ2nYehHnZRTBfARjKf8SenUcgT0Gyb09TaXQBCeX4dmYClKw1ft93JrJl+eEcVj7RGW0Zg3rYWvxinOL2wzKt8IARN++IOS/VRdjzxih05fGS5FPYcAXrhqnAWGt0fHwljspAc17zUjohlAQki/pFX4iAPxFwp1PiT/khX32LgCsByVCgw7g/t4OCtceoFcdAi675VvmRN75DwHVbXY5P/8kXmVHhyc+rZI5vwRiL5zouHsVhzPy94L9P4TeapkWchRikx8zoVKyUq0f6DCR1G4D0LPN181Oj0c1qlJLwnBuThiyjbTGNfBRVcpdOYmE8Q0xalilt4Xh+EYTDpSuRrEn34qgnGSbaJAJEgAg0AwESkLwI/VbpMayZ3AUhTIk7o7uiR/9BeJQHtn50EPr36IroO5VgIV0wec0JXLWK3SMJPK1C26Nz995IGSJe1697LMKVTFj9Ze05mSR08ydsmtIFIYpgRMR2R++UIWIQbZ5Wz27ofO8obLhkzrxkv1EEpKhe5oDdUuBu4XMaPjcGxb750yZM6RICpgxHbPd+GPQoD/A9BMk9uuL3fDWbux/Dsu/Mq9lUfT1FDPz9x7+g/6BHMWLEoxjUrzs6R7aFKjTESkCqQ9mB15GsZlCofo+uPZIxhKc/JAW9u8ciou0dCCEByVz4tEUE/IyA606Jn2WI3PUpAkLnNCvLoU+5s2Oh4nH2lOF44KHHHNzvRmDEtM8hXwfCoUE6QAQClIDrtloKoN0Niy1GjFsJSIXLoGXJFuJQZVE+9koiDuenT4cmeaVs9JEeGXEaxKRtNApBIuTS01lIi9HgEdm8M0FAil8IKWqCZXGIAlK8KaaC5VGgFCuTNUinQUjWYOg7ESACAUqABCSvFmwdKi4cwKalz2NAp1AoFUEI5oGtg4OgUIai04DnsXTTAVywE4hTFHhiMHbBHAzuFIoQpfE6FoLIXs9jpb7IavUXKa009IoMAWulFANoBwfhjugBmLbiW1y8ac58owpIUlqmoN1S8O5ueFMKil1XgQsHNuH1JxIQGaJAUDA/R4lWnMPgOfg4pwBlchGt/BzWpvdCZAiDIigYISHBaB3xZzw252Psej3FSkACcKsUx9bPE1gppWDiyhCEJ6Zh6aYleJRPcbOnlpmR0BYRIAI+SsB1p8RHHSe3/IKAKwHp8yf4IhUMTLqH29zrjPe8bm9CuuX5RcbJSSLQyARcttUOA2hbCUiVOqQyS9HH2tXCZVrEzM437zaKTkvFYUTm/ahETnoMwgZ8aJrK1jABCcifHQMNKUgyxrRJBIhAIBMgAcnrpVuHmusXcfrwfuRs3wwxuPVmbM/Zj8OnL+J6jd1lySAKPL9F+s4rOHt4P77eulG4dvP2fcg7cRHl5nBGshzxtIpwIm8fdhrPX795O/YdOo3LVhdcyBODbMviapvsXD+1XUjL3jHTSXzjQp4xP3YCdgtBvLfjlDGmkXBdXQ2uFR5F3r7t2Cwc34itX+/H4bNXUGWTnzpUXDqBvN1bsZGfu3Ervs79DgVXqnDbmK61f3U3SyxYbdz6NXKPF+F6TTG+27we660vsMgMfSECRMBXCbjslPiq4+SXXxBwJSBJ90u7i1PIF6zYfgryW55fZJ6cJAKNSMBlW33tBLL5b2brMasA2lYCEkpxOisN8dHdxFhFlsGRBI93TApDqk6YVCbmYMckhMXMhkxSMuWsUpcKFjYJO4x7GiogCfbopaSJL20QASIQ2ARIQGrO8r1tMAa4NsBGL7HySxSQgjBum3igrrZGuFYWB9vqCsuv0vnVDi64bRADbds7LF1r75hFKqb8OAjaXV2DWrv62G0YhEDfjo7LUqmrRQ0/t6bWHGzRmK4j/yT/a0yJ16G2phqOWMhSo00iQAR8kIDLTokP+kwu+Q8BVwKSdL+0WZjCesEK+X3Kf7JPnhKBRiPgsq2WnhttfivWAhKAyiLk8xhFWWmI0cQJQpJZRyrEMi2DhYbDVwZ2NC1NWDV4DLYYcyoISGE8NpI5WPZ40xQ3cQpbmCReCedIAbaNBvJnI0a7zDSiqdEAkiEiQASIgA8SIAHJBwvFnkvOppjZO5/2EQEiQAQClYDLTkmgZpzy5RUCrgQkrzhBiRCBACBQ/7bajoAk8TAKSVlpMdDESSuxiSKPhYDERR3ZKCPpcv7Jp7sx2egkQUCyCqKdb5r6Zi+IthRg22j15ELEOxKr5AnTNhEgAkQgAAiQgOQnhUgCkp8UFLlJBIhAkxOof6ekyV2jBAKAAAlIAVCIlAWfIFD/ttqJgGTMWWVOOmKYFssK+Y5K6FKtRiBV5iDdKli2eGkhPhwQhpj0HHEVNb7O2sJ4x6OVjKuwOQ6iDYBPl0vVmez5BHxygggQASLQRARIQGoisI1tlgSkxiZK9ogAEfBXAvXvlPhrjslvbxIgAcmbtCmtQCZQ/7baUkDSZ/CpZdJoI5GYfmY0wmLSkWMMe8QDWWtFNcmItBJFS5PBp56Zp7oB+oxuiA5Lhjy4dkMFJGFEk8Xwp0AuVcobESACLZ0ACUh+UgOkoJ0U99lPCozcJAJEoMkI1L9T0mQukeEAIkACUgAVJmWlWQnUv622FJBKT+9FVpoWcbIYRXHaNGTlF5lG/fBA1mGTpLDYxmyXnhZiJmnjzLGNhOv2nkapjExDBSQewDt5pdyizDhtEgEiQAQCjAAJSH5SoFLQTkeBov0kG+QmESACRKDBBOrfKWlw0mSgBRAgAakFFDJl0SsE6t9Wl+L03r04LdNkKovywX+bpj+ZeCRkpnQlkjXp0FvnTAq+LV1rfZ0Qnzsfe+3sF01Voih/L8wxkawT0CNdkwzSj6y50HciQAQClQAJSIFaspQvIkAEiECAEqh/pyRAgVC2GpUACUiNipOMtWAC3m2rS5GdpkW6jYLUxAWgT4cmeaXFiKYmTpHMEwEiQASalQAJSM2KnxInAkSACBABTwl4t1PiqXd0vr8TIAHJ30uQ/PcVAt5uqyuLlmKMaWU2b1DQIyNOi7Rs2VApbyRLaRABIkAEmpEACUjNCJ+SJgJEgAgQAc8JeLtT4rmHdIU/EyAByZ9Lj3z3JQLeb6v51DfL+EZNy4Onl48iYyDvpk2LrBMBIkAEfIMACUheKIfz58+D/ogB1QGqA1QHGqcO8A7+c889R+0q3VuapA588skneP3115vENrUBjdMGEEf/4EhttX+UE/2eqJyoDni/DlRUVHhBhWiaJEhAahquFla3b9+OrKws+iMGVAeoDlAdaIQ6sGjRIgwZMoRYNgJLujfZ3ptffvlljB8/nuoX1S+qAw2sA9RW27Yv1OYSE6oDVAd4HcjPz7fQC/zpCwlIXiit0tJSXLhwgf6IAdUBqgNUBxqhDuTm5iI9PZ1YNgJLujfZ3ps3bNiAxYsXU/2i+kV1oIF1gNpq2/aF2lxiQnWA6gCvA9evX/eCCtE0SZCA1DRcySoRIAJEgAg0EQHvx9VoooyQWZ8kQDGQfLJYyCk/JEBttR8WGrlMBIgAEXBBgAQkF4DoMBEgAkSACPgWAeqU+FZ5BJo3JCAFWolSfpqLALXVzUWe0iUCRIAINB0BEpCaji1ZJgJEgAgQgSYgQJ2SJoBKJk0ESEAyoaANItAgAtRWNwgfXUwEiAAR8EkCJCD5ZLGQU0SACBABIuCIAHVKHJGh/Y1BgASkxqBINogAQG011QIiQASIQOARIAEp8MqUckQEiAARCGgC1CkJ6OJt9syRgNTsRUAOBAgBaqsDpCApG0SACBABGQESkGQwaJMIEAEiQAR8nwB1Sny/jPzZQxKQ/Ln0yHdfIkBttS+VBvlCBIgAEWgcAiQgNQ5HskIEiAARIAJeItDyOiUGVFcbvETXWTK+4oczHxt+zFsCkqG8FMXFxSgtd69spfOLr1c3PJNkgQh4gYBnbbUB5aXFKC4uhZs/CS/kQJZEdTUc/fKk36a7v2WZ1WbYrMb1Ys75usP8NLlTTlg2bdo+XseaNvNknQg0GgESkBoNJRlyi4ChHKX8xlVaDvcemd2ySicRASLQggh41ikJADCFazG23whkHqlsxsxUInfRYAx4bgsuNaMX3kjaWwLS5U2TkZiYiOTFh11ny3AKHwzvgcTEFLxxwFE31rUZOoMIeJOAZ211Lhb0SURi4r+R/as3vXQnrXLoXx2IAVO32W3/chf0EX7L/24kx6uvN+A5ufq6c2G6YDVGJSYi8cm1KHQn6419zo+fYvKAf+CtI83RC/DlOtbYoMkeEWg6AiQgNR1bK8uS6l0Mxy8PpXOa8a2AldeN/vWHNRjNb1yj1+CHRjfuZwaNYprdN1aGEhzQLcKiVTm40Bz3WD9DSe62LALudEoa9kZYekPrfHSI8JBf7KhNN9pwIJZL/jm+H0hlWo7d6bEI+/PL2FdWK+20/TR2Gtx5ey+l7Wwki3SO2b9aXP1qCjqpH8B/9eW26QfQHm8JSDW7piCCMQQ9vBpXXPAr+2oK7mnNoEx4GTlldS7OpsNEwDcIuNNWmzwteBs9FAws6mV866SpM53vzY2zK5GsuROpH/6EmzbpFuDtHgowFoWXG8XxQnzyRCKGvn8S9fql58wVxKzRa+w/ZV/RDUUoY1A9+TmqbPLihR2V3+OdlN/gd0ObQcDy5TrmBfSUBBFoLAIkIDUWSZd2fsCa0fzNSiIGvnXEwegb6Zy5yHFpz09POLkQ8YyBxS/EST/NQqO5bRTT7N7kD76G7tGRiIzqinm5jZYiGSICAUHAnU7JD2tGO32Itguiugh7lkzEoAG9oeVCd2IievTsg5SRU7F8T5HNcP/CtU8K54xb97OtuSub8Sy3kbwY9saXHF6cjMTEwXj3uO2lFnsubcDw8GD0fvN7Ox0XoLpoD5ZMHIQBvbWCL4mJPdCzTwpGTl2OPUX2R6pIbBIHvgVHL4Glc+bKb0aVp7Cwd2toRm6w+xbewm8//uItAQkXP0A/fj+86wV844yX4QjeTGwHBWuPMWvtdWCdXUzHiEDzEXCnrZa8K/9stCBsKB9bjwppp098GpD/Shxatx+PbfbE2/LPMDqUgSkfw/rGcLzwQwwIi8CEL+sp1G8ZA8YY4hfaf8r+5oW7hOMDPnQlWzcV/FqUbhmP9mHxmJ/v3TekvlvHmoo12SUCTUOABKSm4WrH6kksjGdCo6383VCsKbDXaErnjMEWOxYCYhcJSOZiPL4AcY5u8sXb8VKvKET1moLPfjJfQltEgAi4tzT0yYXxTh+irTkaLuzErH90R+f2KgQpGELUGmg0GqhDGFqFqNGhc0+kvqFHmezCqs+fhIq/yX1mp2yvuFm+bSzUXBwISsCiU9aHf8aKfkFgLAVZV62PWX4/++6DaKsagv930fqVvAEXds7CP7p3RntVEBQsBGoN91mNENYKIeoO6NwzFW/o5R6LtiU2TPk7DF1TYPeFhnTOGIubUS0u/r8hULV9EO+etfQzkL55TUCq3YPnIxiYIgnv29EgJaaXtoxFlJJBqX0Vh2/Ua0yCZIo+iYBXCXgiIB2cESW02fcv+t6rPrpMrHwXno0KQtz0b2FX0jk4A1G8rb9/ERrD8yvrhiFM9U98esOlZ/ZPcCogncLCP/PRUrGYe8SyLZFG1LozitV+wh7sLf8W0+OCEPXsLvtMnZg688UiLPp/eS5Hbdoz4bN1zJ6ztI8I+DABEpC8VjhGcSgiBjGqMHR62l4cCRKQvFYcvpDQV2nC2za7b4nqKnDpxCEcOnEBN6z7jb7gO/lABJqRgDudEkkAsfv7svadx5dJvRfhSoaQLk9i8brt2KfPQ15eHvT7tmP1nIG4W6lAcGQCxm2QRY34eTke5B2Hvy5FgZXN/f+OBGvfHu1ZMAZ8aKUOGLbjaRUDi50Lq2d4KyunsKRba6iG/x+sX3wbTn2A1HvDoWQh6PLkYqzbvg/6PO6zHvu2r8acgXdDqQhGZMI4yF3mCYhsIhATo0JYp6exxU5QI4mfpYAE1BWvwkBla2jfCVwFyWsCEi7ig378xdJv8Nweq6KXvhryseABNRQsBpO2FuOWtJ8+iYAfEHCnrRazIYnqEZiyq8anclaePQHhigTM+8528hp39OcV/RDEGCKm7ELDPb+CDSPUUA1fb/GywiMgzgSkK5/gkWAGFjEJO2Tz18qOr8SEJD7qtjeezDqNKkttyaPk3Tv5JvQvxUARORE77Kpyjq1snxKJyP6Z9RDrfLeOOc4tHSECvkmABCSvlYtRHIp9AZnTEhCsfgDTc6zfDLsnIElvCezGzjHmRzzHHEtJjGchrWxhjLUki80hxbuwZ1O0JV3rHJhL3+o5Aknyz1nMDhhjgJhjdkgxpdzzXbreYRrW9p3GMDIGC3ewyoWQn4+HC2/b4mbnCgEPLVfjkWKwmMvQlrx0jrP8Gc8xQ4FbLG0Toz1EwGcIuNMpkQQQdwSkS1ueEuLLsJgJyDpQiLLq27K83kbVlTP4akEy1EwB1b3p2C098NZ+i5ejGFjoaHwm7ROuFN/yRkyYgylRDKontli+ZT3/Frq7E4Pi1GL8JZjBdqrBJWx56h60ZgwxE7JwoLAMli5X4cqZr7AgWQ2mUOHe9N0W6YtsYvFC5jQkBKvxwPQcm86KxM9aQELdj3i7F0Pr/iuaJwCrrGSaatN7AlItvn2Zj7pQjYoaoQAAIABJREFUIMnBEKTCtUPRPohBlbwUp5ozhnpTwSa7AU3AnbZaACCJ6m6MynQbmCkuHF9xzPGfvedecxrlyB7fDizqRey3qw4ZsP1plfAsl+JqOKnZqOOt8m0Yq1Zh2DoPppdJ+ZSe85wISIavp+Au/tIjJQvS4FdDgQ7juv8eKkUIukxehbyiivrFXnKcK7tHKrenIUIRiRf22puRYfcSYeeWMfUMg9EUdcyxm3SECAQ0ARKQvFa8RnEoNA2f/7QKw9RBiOj5plX8CWcCkgElB1Zh6sgU9NZKsTn6Y9DEJXbjXOTM5efMRQ4Pxrx8HJJ78tVbeuCp/+Nvwo2xlngg67Lj0M0aaTzO4330x6PTt4LPsDNcyMGScVJ6PdCz/6OYvtXedIdqFO1ZbuPbo9N1OG6jkXkWA6n6bDYyJg5Cf8H/RCRqeyNl5CzojpbYTrswBg6cm8P9WYKJg/qjZw/Owei77rhNJ4kXv6HkAFb961FzDBFjGpvPWsUPMdnnZbEc45J7ogePkfLU/0EaX2AoOYrNGRMxqL94LDFRi94p47Ak54LZ30IdxvH8/Emchx76h67G2CWJMMdDysFcIQaLnXhYvExXTcXIFClOC8/fIExcsge2IU+MdubmgPumm/6ojGU/U1l77WdACRGBRiDgTqdEEkBcC0hXsH4EH+GhRPLS86hw8Ob1VukhvNJbCaYIx4RsSS2qwPrHlGDsXsw/JstY4fvoF8yQklUkHo98DvJnZCkOw4PLpZZDdq1s88onjyDYzlQDXFmPEWoFmDIZS887eti/hdJDr6C3kkERPgEml00jkEKR9vlPWDVMjaCInnjTKhiSxM9GQEItDsyIAQsbg80SBpnPgbDpPQEJKFvzsND5/I29IUjlu5EeGwbG4vDv3aWgwaiBULtaVh7caasFIkZRncXMwiEHbbDH5IzPbDyWnbM/83OXvRQOYkYUg+O4TOfxVnc+ijAGsxrB8fLs8WinHIhVxW5AMD6/p0jx77T9xD5Bpvhy0t6978Rr90HBGBJeFwN0c/Ho6R7RUCnU+Et6Fg5ccHQ/scemgfturME/mAL3vXbCI0P1FpCaoo555DmdTAQChwAJSF4rS5k4VFeGg3O0UPL4E2tl0yEgO8fCLwMKNjyDvvdFQR3SCsrQcGNsDgWCVO3RuefjWHXKUsEXGlimxdj0FNzXIRShPJ5HeCSe+pyPWTWmc2d3PDQwAdHhIeJxdYjwJjS4XSeMmDkXo3p1QfvQEISGaxAeyjtOwWjXaTA+spi58DO+mpWKnp07QB0inivG4FAguF00es/VW7z5hgcjkMr0byA1MRYaHt8jRC3kmfvRKiQc0V1TMPNrq3kXxrcuHRL6oXvn9lC1ViFcI/M9ujvG6SwFMEPBBjzT9z5EtQ02paFRhwhpdEycYDn1w2hfOzYdKfd1QGgo9ykckU+JK1lUHf0IY/t2RUeNCkF3mP1lrULRvsvjMBX198vQT/KLMVN58ngr/ZZJM+i3YAx/S8Ss4mEZCrDhmb64L0qNkFZKoWwE3oogqNp3Rs/HV8GyKhjtxCZhaJ+uiG4XBlU4rwuhUDJeRp0w2LJALWoefSECvkjAnU6JJIDYe4i2zNPXmKLmv7X+eP8XZw/ttTix4H6hsx/57/0mE98v4vuC8cgn5jfG5ZvHIIwl4PWTdfhpWS8wxX2QPyOLcRhcr9iTO/1uMDYM62RTDYSEv54ixlfq/z6cu3wCC+7neYuEzGXjFDaGMVvqUHZwDrRKpc2KOBI/WwEJqNSl2opmJiL+v+GegCSNcLUzStRgML8wcIGj7sB/hPgpiqT3TS8ixEsMOPXe3xCuYFAP/RCF9mfPuLBOh4lA8xJwp63mHkqiunL4BjTaQLvtU4TnRv5s5ezP/Nxlh9WV1Xg4iKHjHHtLIQiOGwNoD8eGBjtuwN7nIqHsk4kfnd2KuJtlemQYn99bMeOzoPoOsU8QI76ctL33/YwPBwSDMXGaoKFgK9L/JolHa5B/yYvikYA6H7NjGIL/+allP8GiGKR21jyC7OPhDCxuNnItRpXZaYct7DRRHbNKg74SgZZCgAQkr5W0pTh0q3grpsQqERY7EVtNOojlOSbXLm3B0/e2QSumRu9pq7Fjf64Ym2P3BiwdFQul4g5E9V1qMZpJFJDCcKcmGkNf34DdPJ5Hbh4KhBFBxnQUwQi+6y94/t2t4nH9bnyUFgslYwgLvwttI/pi2uod2J+bh9w9n2JOXz5MtzX+/pH8rXkV8mY/CO2TC7Bq69fCuTwGx+4Nc9BXxRCkmWjx5tttAYmvOtMrEsEKJWJHLcWG3Xohz7n7d2D1tN5QMyXC4yfJ2AEwCjwKxR2IHjwHq3fsR25eHszXKKCKnYpdprfml7Dl6XvRJiQWoxavw/Z9Yhp5+n3YvmICYoNV6Do/39wRMNoPu1OD6KGvG33KRZ4IFbcvfIx/dh2MaZlmWzztFWNjwFgYEpcaI+lWXcKxvDzoJncUOqMdJ+uEvPF4K8cuST1F+wLSpS1P4942rcDUvU1lI/JeilGxSijuiELfpfJV/ox2lMEI+8NAzDGWZ17uHnw6p68QALh10ns28VtMdY82iIAPEnCnUyIJILYP0VYZ+vld9OFirRtvvms+e1xoHxWPf2ZqF6Sl2O96QVpHS+wEsIgp4KE8ag/MQAwLRr/3pZcFV7D64SC3VuzZNi4ILGY28m1c7iO0HTGzDrmYalCDzx7nI6QUePwz80sGiY0gDt0qxtYpsVCGxWKi+WYkE5msEudfD85EFAvGhGw7xwJglysBiQdczxiZjL89NARDUvqjd8oQTM7QIfdcMYrP5SIrfTCSp25zb6W6sjV4mNc/1TOwCMVe9hWm3NMaTKnFnINlLso5AKBTFgKSgDttNc94kwQ3vnbe9GzFn68c/Zmfu+wUwfeL8QBjSNU5UIcaM4C2YR/SOyjQa0mBi9GGBhx5sxc0PLD+3UPx+gbjszd/dl09BwPv5m2+nVXYpClcyn8g62wO5v+tE+5UqtF7xvpmEI846+v4+B88huBbOGcHvbhLWp3aPIrsT3fxaeN/QFeLkWV2Rutb2WySOmaVBn0lAi2FAAlIXitpa3GoEj+sGYP2CjUe+K80Ssf6HNG5s+8mQa1gaD9qBb67XAVTdI66Glz/cRumxvHlQ6Pw0j5zB0EUkBjipm7GuWs1Vg+fUjpRmLDmGC7eqDUer0PFqdfQS3iY7YtXvzyFy1XG1OpqcGXFQOGmZL3iUOWF4zheeBWVteZXJjWlp7C4P3/zHYUZB2WQ3RyBVL5rinHVmVnY9eN11JhM30bV5e/w9iMqMIUaD62SOmVmAYn1nY9vz16B5DrAr8nDHC1f7SYcL+w1+lO4Cg+pFej41GrknfkJv8jeZvxScAjz+zIExc41L8FtFJBY3FRsPndN5pPRXm0pzn53FpdvVJvLCJW48Pkk4Q1z8COfWKwaIXXi7Hdw7QlIZ/FuEp9q0x6jVnxnLhsAdTXX8eO2qcKqbsqol2CuCpKdvnhVfwZXTFDqUHPlIwxW8htxGr6SFRFtEgFfJ+BOp8T570uWw1NvoCtv8+IXwv6ix7Jz970IDT+393KYFke8ugb/4NPEemUaYwIdxux7FFCm6iAsolO5HWkRDGHD1hl//9/gBf4A7HLFnp/xbh/7fp16o6v9DoLMVWlz34sa4dzey00e24hDlT+swZj2Cqgf+C/0RoFd4mdvBBJOvI4/Mz6CSUolsD6dC0hV+PGLlzH6+Q+xk7+Y4Z22DSsw/6UxGDFoCIY8+gSmzF2OTYd+gVuDhuoO4D88jhbTYpnpdsY7iIlox+/7Y9bjAkXODqwK1oJy405bDTRRcGMpNpDs2c5eLCSnMZB2T8GdTtq6xgygbTg4E/cotFhy3sVkVcM+vBTFRaI4TN18DtfMD8i4XXUFZ5b83f794fB/Ec3vX9EpGP33LoIAxQP4j//iV6s+grcqaB02j7J/jzN78D2W9bMcQcZXRmXKUGGGgXlk2RRsN19kZ6uJ6pidlGgXEWgJBEhA8lopS6KNeUpS3Y1jWJysQpAmGe8J845szwEM+GJcazCmwuOf3rDTyN9E3n9ihTfM2mU/mHIjCUiPrrf3CCul82e8bj31uHYT/slvMLGzcMj6oTV/NmL4MTu9BkP5jziyeRVmTB6BISlJ6NOzB4S3BCwI47aZ3OLL/yCe23DRWTuz+C/CPO37M47bWXWmDmVrBosjpSbtMBuXBJ5Rm+1wMsbtYAxa41O6IXs8wvhoq6gEu/PjBf+DxsHkvmT/0fVOOgbVuHxyL3RvTsXYRwdhQFJvaLv+QVhtjT2w2GLVCKmD5raAZPji/2fvXcCiqvb///2MzAMEKB4MvtLlR5ByFEwn03Ay83Kgm5lYZuXRNDM86SmjvupXO9pFLfNyMtEuduRkRzx4CTXTgze0KAzE4w0DJQnvimGOKAjyvP//tS8ze+/Zc2UYLvPpeWw2s9de6/N5rbXX7PXea30WxgayN9XPY53WVs7X8/B/sUwkM8LSFCQBaSSyzCKchGwfZnViAxdLm5TO0CcRaM4EnBmU2L+/ZN6d+wJJrE/6nzdhWZgmOy8/3PIS/Fnap1ZDmiuI+iLMY8vEgsdhC9PwT36OgX4c+i6RBJtLWPmEHtytk7CDnS9LQ1+dMzv2FOHDHtp95bkvkvgBwv+86dBibHmJLVng8JRsHZzExtyV11/BwYVJCPGLQNInRfzsKqs0cg5iP26+Xn6uFRzbF5BuoupCCY6Wm8wvCm5WX8G5ssMoZLMc8g+g5LT8pYcjIFexaijrh4Mxjm9AAM5swBg2QNQ/iLkHtX73HeVJ54lA8yDgTF8NaWaMJwNoM/c9EQNp42j+WVS7r/NsAO19b8fCzzAHhxzoR/hlCYw6DpzhHWhuDCc+q6qfLSWxiwsKRegtd2BYylBEcn6ImrjdzhKyxm1H/FjF7njgGs4cVM4em/cIB67TK8hQzCo7jt/smdpYbcxemXSOCLRiAiQgea1yJdFGPlivQ8UPM2HUB+LO0etxRopNpBjQ/4qlD7KHy1i8u1/b2Gurn7J62yAJSNo/epIt3THP6pW7KDhodeiS+KPItBantr2DYQN6oXunKIS1DYC+DYeA0AjwbwnUb26kPLTyl7m3Y2Io79MzazS3vQD2zUIntZglCTwK+yyZSgMi6Uf116UP8mVIMaUsbzLkbztkbzUc5I/KQ0ifmIgEQ1dEdwxFkL8fdOwtCR9vyHogqLbHYik7koQfWXv5dSkeZD7HvgvtpnANq59ibUVerxr5mAuS2oGsDPM5OiACzZeAM4MS+/eXzLe6XXgtnAPn1w/LzDNAZOdlh0Xvd+P7jKgZ8mmVNdg+KRwc1xt/Pw6YNoxGCBeLmQXSKKAeJxZb4iAJwrUeT6yU9sCRFaA4PIcvkqz7DZakbtdrCOc4+PVb5mAntCK83431CVGQmyyxkXeVdRU/YKZRj8A7R2P9Gab1d+d9lacxm+fTApKZgscOCmayZc4cerMGhFoUzO3JzzqOmfANLkjNyGOlUUZEwHsEnOmrcXgu4vhnm7dRaPWiqwG2eiIG0p43+L5Wsx/EYcyNE57P326w4UWYb/BD/Kx9sPHUawHx/Zv4H8brmTXaaTUFJBM2jBZ2i+NC78Nry/fgWPk3mBDJQdfxZWSbQztYivHGkWMBydoKd65ptDZmbR59QwR8ggAJSF6rZhuDdRZ/YkIMuHb34m+555CRzH6M5AN6SRRojwnZliVqcrOlQU3PhVIAZhYOiOVja4mBZItcaJBydFFAKvkHkruEw/+WaCSmzMXnmVnYmpOD73LzwL8lUNvgpIC0b5YQH0iaLSRZJ30KQWo56Mdulr4yx0DSmiHFHsqzJ7TnmTzx1WX+Gkl4i3jhC5tr4/PyZG817ApIJuyc2htRbQPQ4Z7hmJL2JdZu2oacPd/jx4xXBLFLJZpJAzRJ0LI4wo40hJ9rq/EUe2hoPwHaTUEaLPaEpSlo5GMuSGoH8vZmPkkHRKDZEnBmUGL//pK7dgXrnmMP1sHo+5Ew+0Z+1nxcW4C349hsnhD8Oeuq+Wt2cCn9EXBcEP78tUmI5RE+AdnmKUqWOEiJX5zE8b/3Bsfdi3lFjkZKdVj/HAfurpnIV5QG4Mo6PBfCZj31xUfKqPmKlLUFbyPOn81a/DPkJktslIOiGzi/aQJiuHa492+5OMcHyrbxGyIOYJTXK4pu0X/Yn4HkedeEoOQcgl78FrVn1mNkpB+4kCfxSamNuCueN4FyJAKNQsCZvlrYbZJDyAvChiQeM8QTMZAOzkFXjsOwDA2F5cK/8CTfv74Afn+ahhhetBD3+cfgf3O1Vg2oMt7/LmLZs+D9H2nHr9QUkITd5DiuF97IKsBpEwtPYULO5Bg+tMPz6y2bQKhKa8Q/L2AFm02kejZ2VKA7AlKjtTFHxtJ5ItBKCZCA5LWKtT1Yryr9DMNC/RCRtBzzeeFHOaA/kfYgv2PW7U+tQqlaQ6rcgzf4QU0kJu2wjFi8JSCd/MfDCGTLwv62C0fLL+Fqda0wrb/yEGazmENuCkhV2yciki0vu3cGcvnA37KKqi1F+uAwcJwe/ZZJy0RkMZCeWYtqWXJ2WFu6Ck/drgMn7ozEnz6Rxm9x7R/3BnZdVINVZcD+tCsgfY83O+rAhY/CF/tLce7KNdTwMaFqcWrtKOFtkepHUhrExc89pFWYxi5sJ5DGbyN+O55apdxNjmVQuecNYbAYOQmWpkACkgZc+qqFE3BmUCLdX9oCrRJA5eZxfH8TeOdwLDuk7nBY2krkzu6HSD8WbHsitqmS1Be+zT/Qd5mdjc8H+lniH0nFiHGQQsZ/i29eDIIUYFs6bevzpxlR4PzH4Bur7qkSm8dF8psa3Dl8GbRNzsXsfpHw4zjETNwGuckSGysBqKoUnw0L5ZdVL58/yrr/Fg01ZT4DPy4GM9XRvW050sK+97aABGlA2OfvWD/3XrTj9DBM2Y1KWxpjWQbG9e+P/tK/cRkOZqK1sAogc1sNAWf66t2ThV3DHloq36AlF3P698ecXDkK4Ttzu+8/B4rT8qSeOr78FZ7gONy3oNg6x92TcSsTch5aKttBsQwZ4/pjXIaD6ayq3EoW94F/TCr2OKMZX85AMh+/8gGNFwjVKFlg5PtuxW9f2TL0Y79fsW9hryxmUtXeGXzszNBhq2VB/9XsHfiUOwf91XXhVB+1H+905sAlZ7i0897WSRGIGLhEERJChdPqT+fbmOCrpY2Ng7oqc+dY+l5X69nKMPqCCLRQAiQgea3ibAtIqK/E/nlJCAnshE63q2cgAXWnMzGKTTMNiUbfMYuw5Ug5WCDAYz+mY9qQHgj34xAy4EPsl70g8ZaAdH6FEKyv49C/I4e3qxxHtizC2IEG3BFsR0C6aypyLqtlHlllmPbjPSOLAREBw5BpSP/xGO9z+ZEtWDSmL+5ieceMx8bTsvn9ksBza1ckjl2ErEJ2jWDPmL5sq1IOoY99imJpfnDdaWSOigTnF46uA8ZgUVYhjvHBFstxJCcDc8aORXqJzCYpf6tRF0vzHd6M4MD534NXV4v5sN14pg1D39gwfhCnfsty+asn+B/5IMPr2MJ27yk/ggOlUiVqCT91OJ05CpGcDiHRfTFm0RYcKWdbmx7Dj+nTMKRHOPy4EAz4cL9sPbtWPpJPdtqklIQ+iUAzJODMoEQSSeJn/sj3HdbBU2Xb/pqOYRW/A2Uw7jAMxNhFWShk9yTrZwuzsGjsQMRHsP4oFin/LrV+2L22ES+EcPB/+gV+ZpAl/pEET4yDFP0MnunNgXskHY4WsLErK1cOBsfFYa46Vh17d3xsFVJi9eCC74Bh4FhZ/3UMhVmsD44XdumJTcG/VTNZJDbWXVk9KvfPQ1JIIDp1ut2mgHRwdhdwek9sWy3xaV6fXheQrq3FCDYgbN8ZXdnso9CnsOJXGzMR2MCsVyJS03PA7GT/ZidHo5dypN28gJI1PkvAcV99Ep/2Zy/3ojD1B9nznDgL29JHMVEjHqNmW9p9eooR8Y0tnopB7oP+/LXsuUqozpOf9ufjI0VN/UG2a5rwXKUQbxzWfhk+HxSI8JSt1r8tWtfWn8Wqp1iYh0DcaRyDRVuOoPz8eZQfyUH6tGQkRAVbCUjSrP3wCdmW+H0s7+sFmMk24mn3EJaZn3eF50YLewc+8c/GshffzvZRpnV4zp9DrK34HLzvtTBVCL/F0m/4zz9swIbt+1GmCI4u+z23YuZsG2PiUS8kpqab+9ac2cmI7mURKssyxiHemIJ0vu+djeToXiqR06pw+oIItEoCJCB5rVrtD9brKnZiisEfOhYYT7GEjW2xdQXF66ZjQAc92gRFItbQmw/63LNbFML8dQiIS8GKwouKYNPeEpDqji/HY6FM3LodXXm7esMQG4mgoDiMGBpvPQCp2oBRbOmF/+24Z/S/7Lw1vYHze9LwQlwAdP5hiOrWk/e5tyEWkUFtoO/wGN7ZchxX5W9oRYEnpEMHBAVFolN3do1oD4vLFPcKVh6+JPuhr8eV4nWYPqAD9G2CENmpO3ry24L2hqFrNCLCuuH17RctLcSugHQFO1Njoef06BAt5tOzG6LCghE+4GkMYjFWVDOQ6n/5B8+O03dAbM8EJPQ2oNdMKSiutvBTf6UY66YPQAd9GwRFxsLQm21t2hPdosLgrwtAXMoKFF6URz/Xzkdwyn6btDhOR0SgeRFwPCixxPAJ+n89NIPkJyTIt/2tx9Xy7Uh7IQ4BHLu3OqE7uycTEtCzeye+z+EC4vBC2naUKzodictJLH2IA/eHP+APXAym75UPhFgaMQ6SXzu0C+IQ+3ahRqB/KS/LZ/2RD2Dg/PHkvzSWF9RfRfl2oY/kFP1XT3TvFIkgvs97AWnby5X9JCxsLAMES5moq8DOKQb469igTmsJWxk+HegPru8Sy050sstbw6HXBST8F+91YRsg6KDj9DDO+sn27KPsCQhWzVSoOJqDnKMVrQE9+dDKCDjsq83BjQdjpXyapFpAKlsCI5eE5bJmXlVegJyCcudEF7e5XkXWn0PARU2HPPIdC4uwdbwQU2iwwnAHYouWHWf+hSHB4Ri3md+3UyuF6rt6VBatFF4gsL4/1oDeCQnobeiKqLB26DbAyMdtkotY0hb2j6SrX11cx/53DLwYZfxYUpAaKCA52UfV5ryKjlw4JsjXe6s8BX7Byj8Lv8Xs99j2P/nvuSoTZ9sYsjEhOAap8mlgFUeRk3MUQrMrwxeJwUj6SGpzFdiSEoOI1EafB6dyiP4kAk1PgAQkr9WBtBWlLCizouzrOJM1GT0jWABn6zT118+jaFcm0qaMhrGrEOQ5yjAYKXO/xLb95eCXM8vy46d4RkRgkua+lpItA7HEEjZJvHorJjEbtKaH/rwEA9k5eaZ1l3A46xNMGW5AFDsXZcDg1xZi9bb9KF01DiwwtTw5Wwry00ejYYiKQETCh/ivzGarwxu/o2zvt1gxNwWDDVF8XhFdjRg95ROs21OMi7JpuPy1osAT+9cMbPtyLlIGizaJ16zfe8pqIIX66zhftAfrPpmC0YPE9BFdYRw9Cyu+/QHHLknTlQBIARmVDpnNrjqVi6/mpiBRrJ+uxtGYtWIz9hTtwvv9NJgydpnzkJLYlfeN1eeElQf5HZAAsR6s2kI9rp8vwq7MNEwZbURXvr1EwTA4BXO/3Ib9sp2BBMNs5cPOSu3Aur2ZnaIDItAMCTgclLDWvWSg0Gfw94g8ML50rG73N/B72X5sW83urUFCHxURgSjDIIyeksb3aWW/y8VZOZg67H23p9hHpWK7xjKEuoI5uF+8X1/ZbFluLM/F6rjmv3jXwCF0zDdWb7/5tKyP3L8Nq9Pk/VcUDINGY0raamzbXwYtkyU2NroyXD+Thck9BU5WaS6sxlPBHIyLjsvEeCvLW/QX3heQruHrF8V22XUC1p231c4AsN1Qg6Mxg8YsLbqN+YrxDvvqY2kYxPrF+99XBdBWiRhVGUjmIvCkej2RF0BWZj6DED8D5hfJCzuGtEHsnr0f7ysCaLsuIF3IfAbtQp7DOmf1I2YGe4GQtw6fyMYE/DMnew48sBzPRkRgoPkB/yT+Oew2DVsFf2qKF+NR9lv3pzQI++qo2Isb/MgFKTkJIbyDbAaSk33Uvpl3Qxc+DvZ1M+k5VfrdtvWp/j2XWehsG0MBZsYEI9pW51r2BRKDlUu3+fh1xiV2XobL7KBDItCKCJCA5LXKlLailAVlVpdddRoH+G0pbaS5WY0r58pwuFDY0jL/QAnKL10zbyUsz+6340Ka45r7Wkq2HMQZq3HMbzjObDh4RjnNlWV+7QwOsnOqTOtrTDhXegD57By/hXElqll8PjGAoSo5blSW4UB+HvL2n4QyFK3cA/G4vg5Vl8pRciBfCHRdeBhl50xQa0d8alFACp6QjZvXLqG8RLTJ3jX8hfWoMZ1DWZGYPq8Qh8suoIqPYSSzSQrIqHbInOQmrl0qx1GxfgoPl+FCVR3qIfLWYFp//TeUHy3kfePr87fr4swEsR7kQbzN5QCKbaPz8nGgpByXrjHo6v/s5SO1AxvtTZ0V/U0EmgkBh4MSvrs6aCc4Pusftdu9cG8VCX1UXh7yDxSh7NwVoU+z43/V6QNiH1WuLfZI/WdePk4Icfzt5CadqkHxwgehDxuONWek79SfN1F9Rd5/5eNAURnOXanW/G1gV187I7Cx2ZWhCqcPaP+GnFk9DKH6B7H4uHqWldqulvu39wUk9nMp8M4rtNF+JJxV5SiYnYSIeCEOB8XgkMDQZ3Mk4LCvvnoS+zWfOdUiRgWOpqege3QvIfaXN5dsVm7GuEh/xL1dIL7gY6Sv4uR+ds+qn6NdFZAuYM2IUIQ8k6mIU+dUXdbXwCQbE/DPnOw5sP4SjuXl4aD5AV961lPbKpZSdxHFrA4KyiBZ2185AAAgAElEQVRoWGr2Dnzin71lApIzfVRtAWb+0Q+RL28Vy7TlsWS72D8yOzX/af+e87k63caqUF4wG0kR8UIbUy+P5DcBSkaG/AURL5ZNQLYt8+l7ItBKCZCA1Eor1ifdsrvEzCeJkNNEoFUScDgoaUVe153+J4aGtMNDlgAVTehdCZY91A4hQ/8Jefi5JjSoUYpuCgHJJUf4ZRU5yJmdhGB+QG0d6NWl/CgxEWgkAu731WoRAwATJljsmfQUxIiDfO/oSCb8MC0eflETsV0KU2mTlwOxRX2d6RuMCdXjsXSNZcrqtF77W83egU9qAYnZ6aCPMm2fiCi/eEz7wSHQRvRa7SdvOI6K8Y2SgqPRq78sIDovIMmEMpZc67tGtJiyJgLNhQAJSM2lJsiOhhMgAanhDCkHItACCLg/KGkBzqlNrK9E9sQYBMb/H3Kb8lmbBfXe9ld0amvAlN2VTsVwUrvSUv5u9gKSBFIcpM1OCkb0s7QTm4SFPpsPAff7aq3BveiXKCSls/gz8ZYAx43p9fWflyCpbQc8sdLR7moOxBaVkabs8eiofxjLz8oDeqoSef1PNXsHPmkJSJLNWn1UbRE++VMHtB/2Bcps7BUgXd64n2o/5aVVCEISL9I/K+zExi+jNGKJvAnw8Z5mopVuSCoHQsdEQEGABCQFDvqjRRMgAalFVx8ZTwScJeD+oMTZEppXuqrSzzD20SnYeNxqzbEXDb2GY1+/gaGTVsHWBmFeNKZRi2oxApJIoWJ5ErhgWkbRqI2CMneLgPt9tb3BvWBK1Z5UxHCqAb1bVjpxEdtcYPpgPL+0ALKtVTQudCC2KK64hu9m9EDHxz/FieakH6kDmLsaA0nho/CHoo86vxeLRwzHuz819YsIx20MFcuRxAVjAr9GTYiRJBwLfpUtMYJLzmjkQO4aQOkrItDEBEhAauIKoOI9SMBBkGsPlkRZEQEi0IQE3B+UNKHRDSm6vhJlR8twqUorzllDMnbl2puoulSGklNXWvXsI0ak+QpIbJvp/uiviM1RhownI8AlLRd3CnKlTiktEWhcAu731crBfe4cFvNLOdsod0a01Y6EjenN9bMlKDlzBbKtVTSKc0VAuolLx/Yir/hiM9uQQMkeLglITvRRNVdwpqQUF+zsFaABthG+UvpZljEO/fsrlwOXZTyJCPPuf1XYkxqDiCel2Z65mBEdjCT51oCNYCVlSQSaIwESkJpjrZBN7hFwGOTavWzpKiJABJoXAfcHJc3LD7KmeRJovgISC/Kag9nJQmyO/v3ZoLoXopNnI+eobH/z5omVrPJBAu731crBfcXRHKSnGBHPt3khgHy8MQXpBdKW6s0FriAgCbHJBDv5+9Q7wZo8BEHJXhKQbPqkWMLWkvoopZ9V5QXImZ2M6F6WeusVnYzZOUfN4jxLY+l/42FMSQd1vR5qdpRNiyJAAlKLqi4ylggQASJABNwflBA7IuCYQPMVkATb2WCa2Wj+RyMYx5VKKZqEgPt9tRCDRt60+QG+vN03O/GIIRYEFPO9Kdkrd6RJasKVQtXsHfjExzmyiCyspJbRR6n9lAX/lupNJh5JBOW+FZTLt2STUtAnEWj9BEhAav11TB4SASJABFoVAfcHJa0KAznTSASau4DUSG5TtkTA4wSor/Y4UsqQCBABItDkBEhAavIqIAOIABEgAkTAFQI0KHGFFqV1lQAJSK4So/REQJsA9dXaXOhbIkAEiEBLJkACUkuuPbKdCBABIuCDBGhQ4oOV7kWXSUDyImwqqlUToL66VVcvOUcEiICPEiAByQsVv3btWnzwwQf0jxhQG6A2QG3AA21g6tSpmDBhghd6byrCFwmsX78ew4cPp3vVA/cqPfv49rMf66v/9Kc/0b1E9xK1AWoD1AZUbWDr1q0t9hGLBCQvVN2pU6fw888/0z9iQG2A2gC1AQ+0gR07dmDatGle6L2pCF8kkJ2djblz59K96oF7lZ59fPvZj/XVkyZNonuJ7iVqA9QGqA2o2sC5c+da7CMWCUgtturIcCJABIiAbxKgZRG+We/e8pqWsHmLNJXT2glQX93aa5j8IwJEwBcJkIDki7VOPhMBIkAEWjABGpS04MprAaaTgNQCKolMbBEEqK9uEdVERhIBIkAEXCJAApJLuCgxESACRIAINDUBGpQ0dQ207vJJQGrd9UveeY8A9dXeY00lEQEiQAS8RYAEJG+RpnKIABEgAkTAIwRoUOIRjJSJDQIkINkAQ18TARcJUF/tIjBKTgSIABFoAQRIQGoBlUQmEgEiQASIgIUADUosLOjI8wRIQPI8U8rRNwlQX+2b9U5eEwEi0LoJkIDUuuuXvCMCRIAItDoCNChpdVXarBwiAalZVQcZ04IJUF/dgiuPTCcCRIAI2CBAApINMPQ1ESACRIAINE8CNChpnvXSWqwiAam11CT50dQEqK9u6hqg8okAESACnidAApLnmVKORIAIEAEi0IgEaFDSiHApa5CARI2ACHiGgGt9dQkyXhmBESOmY/MZz5RPuRABIkAEiIDnCZCA5HmmHssxP439kI5AWr7HsmxGGdXCVHEeFaba5mNT9WWcP38Z1c3HIrKECBABDQKuDUo0MqCviIAdAiQg2YFDp4iACwRc6qsvrMJTbQMQ0GE8Nl93oRBKSgSIABEgAl4lQAKSV3EDqL2In7eswLuvj+HFoRGvTMeKLUdwTkO12PRiAAICAvDiJm8bKSsvP61RRCzTnln4U58E9BkwAztNsvKa7LAEX/25PxISjBiRXqK0wmUG+UgbMQIjvKL81eLizznISJuOV1iZI0bglekrsOXIOQ0h7CQ2ThHSzNlZqfTR/JeUJg1K3VL0SSyDlSOUNR8rsgpxojkJgWZf6KC1EnBpUNJaIZBfjUbANQHJlT4YkF4MvfJVEWy9PhHSTMHGk3IXqQ+W06DjlkHApb5692TcynHgHloKRdNvGa6SlUSACBABnyFAApI3q7oyFx8O64d7Y6MQHhrEi0MBbcMQFWtAwhNvIqtEqSJtGMWB4ziM2uBNI1VlbXqxUUSsa9kp+AN7ULhlONba0jJUpjTunyVY8oA/OE6P2Pf2KYtymcEmvBgQgIDGVv4qDyF9YhL63NsV0beHoS0rMyAAbcOiEGt4EMnTNqFUMUIpwoJeQpqIPgtQqDgnuSyleRFK3VL0SSyDlSOU1RFRnbqj14BhmJZVoiFaSfnSJxHwHAGXBiWeK5Zy8hECTgtILvfBgPRiqG3nF7HBxjIdIU0vLCiSA6c+WE6DjlsGAVf66tLFfaDjOERN/QF1LcM9spIIEAEi4JMESEDyWrWfwaaJBnT01yEgeggmL/ocmZmZyPx8ESYP6YygW9qj08PLcERmT3MQkE4u69coIlZ95THsyMpE1rYiXGwWTwrXcSZ/M9au3YzcX5VTolxmcHIZ+jFxrDGVP1MeFg3pjai2bcAFRCMxZRbSvszk29TniyZjSPQt8A+Lw4tfy0coRzCvOwdOr4defxse/UzrDbiYhhsFpW65AaOYT9xDmMraLf/vcyyamoLEzkHQ6/wR1ikBL2WU2nyrLmvadEgEGkTAlUFJgwqii32SgFMCklt9MCD8ruuh9w9FXOo2aL0/EdJ0xzz5AwGoD/bJxtjCnXa+rzbh6z8H8S/xhmdebeFek/lEgAgQgdZNgAQkb9XvhUyMCNWBC3kSi34owenKq6iurkb11UqcLtmH7ctn4Z2vinFFZk9zEJCKPuzRKAISc/NmbTVqb8ocburD+jrU1NShXmWHywyKPkSPRhWQalG48EFE+uugj30Jn2/Lx9Hyi7hyrZpvU1crT6MkfyM+npuGnaflgQREcajTKExICkHg3VpvwB0JSCOxjrVb/t9VVJ4rx9F9u7Ai9T6EcjqExI63+VZdhZX+JAJuE3B+UOJ2EXShDxNwLCC52wdLAtLDmDAhBrqwBCzQmApqX0CiPtiHm2aLc935vvonTI9iL6nuxfyfW5ybZDARIAJEwKcIkIDkreo++SkGMFHh7pkoUCsUTEwxXcDFq8oTwkNkFGb8BKCyBFtWSHFuXsGcrAO4qLkECag+d0SWdgxeX5CBH8uVy+MEt8V4N1M24iRqcfFAFubwO2C8glXZmzH9lRF4tFt7XkCK6ivEvHE2qHd1+Y+yuDyvYPqKXVCYcHIjprA4OnzZlko4uXEKRowQYj/UXjyArDmvCLF2VhVbEgFwmL8Yt0gzDpGNc1JsCnPoomJXGRRj8/RXMOLRbmjP6jqqL287Hy/InKnoRvU5HNmygmfMzo95fQEyfix3bgnYhQ0Yc5senN6AN7/5FSZNEe4Gfr/0O24oqIniUPu/YM3ONxCv03oD7khAUs9MYgXU4+qZHMwdEAJOF4r+y1QxpBQ20B9EoOEEnB+UNLwsysH3CDgUkNzugyUBqR8W7vkET4bocdujn6FI9VtuX0CiPtj3WmTL9djpvvrk5xjox4ELn4TtNS3XX7KcCBABIuALBEhA8lYt1+zDrHgOXFBnjFxeqBk0W22K8BB5D/5vbTomDuyJ2Cgpzk1bRHTqgUc+yINysVUtTm17B8kPGmRpgxDaMRrdeidiYoY6Ro0Y7+beufh2zV8woEcnRLAdMALuwZy0SQhrGwB/Px0vILXRCzFvHAf1rkXpmolI7N1NFpenLcKiuuKB5A+RK83XL1qAXiyOTq8FkId5KFrQCwEB92Lut2vwlwE90CmiLR9r5545/xXxOJm/GLdIMw6RjXNSbApz6KKtrjLYiklhbRHg78ev4+fa6Hnb+XhB5kyB2lPb8E7ygzDERvGM2fmg0I6I7tYbiRMzoAqFpW4WMH0zBqEcB/3DafhVPsHIKqX6C1Ec0o3Gxutl+GJYqMYbcHcEJFbODVz86hmEcBwCh67CBXXR9DcR8CABpwclHiyTsvIdAo4EJPf7YElA6oEPj1Ri9xQD9IF340VVMCTXBSRWN9QH+04LbTmeOt1X73pViIs58DOcbjnukaVEgAgQAZ8kQAKS16r9OsrWpuK+UB1C7uyOhMRn8frSLTiitf2aaJPwEBmMO2Kj0CHqMUxJ+xKZmV9iYQpbLsRB33E01stG6rVFnyG5Szj8dQGIHjJFjInzOea+kIAO+jZoGz0I75kVHFaIKBYERaFrTAdEPSZe8/k67D2ex8e5mfqQEMj7oalS3JtM5J2yDa0ydzb+FNMWbThmw2Qs+pxdx2y4D+3vehN7qsRrj8xDdzZLp/s8RdynI/O6g+OCENU1Rubz51i3V1gT73T+G0bxwpdmHCIb5wTesqDlp1xlcAp5LDbQ1IeEsh+aKsYKykSmBK22CJ8ld0G4GAtLqNNMfD73BSR00KNN22gMei9XMy6GRP3g7C58/vfOK7Jabiel0f6Ui0P1qPxpFox6PW4btlIWbFueRp6LFH9D6+23mO7kUjzE6vSOafhRfikdEwEPE3B6UOLhcik73yDgSEByvw+WBCQhvtH1X1dhVKQOoT2nYY/0cgXKNBbi1AdbWNBRSyHgbF9NAbRbSo2SnUSACBABgAQkL7aC+qtncHDHl5g13ICOQQEIvT0WhoSBePzlOcg6cNEq+LAkaIQ+OB2rcotx7so1VFdfQ2V5LmYZmbBzKybvlhwwYfurdyOQ7SKWko4fSs6JMXGu4lLZIXz73gCEcHpEJH0GywIjSSzgEPPSCuQWi9dcvYbqm7V8nJt1IwUBaeQ6Ke6NvbhFJfgsKQJ6Tg/j9I3ILzmNyqvsOmbDQeR8X4wr0io9uwISBy7mJaww+3wV1/gVeC7kb0Mk4mnZOCfxNse+dpnBTdSy2EDrRgoC0sh1YqygalSLwZ5M21/F3YEc9LEpSP+hRKzTaly9VIZD376HASEc9BFJ+MxSSVIFmz+3vMR2i+PwzBrVPG9pWSBbGij9UywRlOpbFIFunEf2mwbogztjvPkNuCqNuVQnBi916/EcE5D8xuIb83V0QAQ8T8DZQYnnS6YcfYGAIwHJ/T5YJQ7VX0HxsmEI9QvHAwsKzc8Awm+RrSDadkR86oN9oXm2KB+d66spgHaLqlQylggQAZ8nQAKSt5vAzWu4UHoAedtWI23KcBg63gK/kAh06tEP41U7WEmCxuOfnsd1SXjh7a3DD1OjwHE6jN4oOZCDyR3YcrNBWFR61Wpmyo2LazEmnAMX+DD+cVK6RhILYpC62/oalkqywSyqSJdqfZ78Bx4OZGvYRyHzvDL6DkteXy9zwoGAFJO6G6qQUIAr+dsQiXizbZyz5aut77UQ2MufncuZ3IFf3jZoUam1fzcuYu2YcHBcIB62VJJVMZvH6nkB6dn1qsAZ0rJAtjRQ+qdYIijVt2UAYnkD/jfk8ushrdMIBjghINWux7NMQNKPxWYrq+kLIuA5As4NSjxXHuXkWwQcCUju98HSb6pFHKqv/AmzjHrobxuGVWUCZ+E3x5JG/FbcCdPSf1vVCvXBVkjoi6Yl4FxfTQG0m7aWqHQiQASIgGsESEByjZfnUt+sxpVzpTiQtxNrPhqJWL0OIdFD8A/ZzBN7wsXhD+7hRQSzsCNtHR/zFvJlOo3F4EtIf4TNJuqBD81BhySxQP2garnKng2WVOKRtIb9iZWK3eSs0rEvHAhI3ZX7FwtZuJK/DZGIz8jGOVu+2vpe0y/2pY38gZNY1o/VQQze0q4kXEp/hK/XHpZKsirmv+8JS9ji5h5WnrtchK1sCR3/b6qwnEyxRFCqb9kApP4KDn70GEL9ItB3IXsDrpGGL8UJAen439GbCUidZmGf0jL6iwh4lIBzgxKPFkmZ+RABRwKS+32wtYDEYhed3zQJsfpgxL68CWfML27Uv8vUB/tQE2w1rjrVV1MA7VZT3+QIESACvkGABKQmr+d61Fw+gXUTYviZJ4M+F19Bmh8iZTF5ZLYKsYJk537/F4awwftdM5EvS2c5PId/JDHxQv5QKokF8u8sV7Ajl8ST/LcQzWwYlqEK7q3Mk//LHQHJlfxtiji2BR5bvtr6XsMr4SubZf+Ofw1hdXAXZmpXEs79I4kXkDQFNLHAa9kTEM5x8O+zWLYckU3xqkMNW0LH/1uHkawuHAlIAOou5QlvwKPGYMOZc/iCbycykYkv1/HgpWTJAwjiOISM2gAp1JVNRnSCCDSAgFODkgbkT5f6NgFHApL7fbD0m6r6za36BStHRUIX2hvzCmux5w02E1WVBtQH+3arbJneO9NX124dz2/AwT2SjksNdjMXc/rPQW6D8/FeBrlz+mNchuXZ33slU0lEgAgQAfcIkIDkHjfXr6otxZ49peYYB+oMji9OsBIO7AkXVgJSfS7+N5ID598HC9V7ArPCzqzGsFC2vCgZGZel0j0sIJ1bjkQmWnR8DuvZa1R7/7kjILmS/+ax0GuKWbUo/cjIs1YH2LbF29b3Nt2zKSDVI/d/I8Fx/uizsEijLZzB6mGh4Dg9ki2VZF3Mla14mdV1YCc8r1r2aEksDjacEJCEN+ATEKMLRc+/5eCr55jI5ZqAVFuagec7BYLjQvH8Olk0WItBdEQEPEbAmUGJxwqjjHyOgCMBCW73wTYEJNTjysGFSAphmxqswpY5XV0WkKgP9rlm2iIcdqavPjw3jn8mi327UBZ+gQlB/TFHoQQJ3/Xv3x/CP2uhqCzjSYyafRQVPJ0yZIyT0so+x2VAIdfkzuHzsxZxhOuVNrCMmR3jINd8mAjU3zqhmFZWttl29p2QR8XR2UiOntGiRK8W0fjISCJABBqNAAlIjYZWnvE15C/4E+Li+mDYtAwUKnZeq4XpaBYm9WoHjgvB81+b1R27s3+sBCSY8MMMA/RcIO4cMANbyvmo07wRtRcPYPnormjHcQh9ahXOmpe4ORaQtv0lhP9hN7yvJXjIfWRTWY7jk6QQcLpQxD29GD/I/GQ2ZLy92LLTjDsCkiv5//c9dOHFrKFYWSrFCqpGSVYq/nRXsEsCkksMGJJtfxHephneh1rLM/0wAwY9h8A7B2DGlnKYa6n2Ig4sH42u7ThwoU9hlaWSVJDZnyYcYsvOOLbssS/GLNqFEybJR3a+FqYTaRjk5AwkvoCqUnw5MhJ+EU9iMB+g3UkBqdaEE7sWYUzfaIToOIQmzUO+pQlr2E5fEYGGE3BmUNLwUigHXyXgUEByuw+2JSCx388K/DDTCH1wdzyZeJfzAhL1wb7aTFuE3477ahPWPcc2BgnBCxuvyXwSXoKZwzTwok08Rs3OAbs/+Xs0xYh4hRiUixnRyVguqEfmnYZjUtLN1/DXFpQrZknnpkYgKSkJwYlfKIUlcUm/xQbJPGabcoYg/6LROiGAChwV7c1JT0EMF4OUdMmHApTz07UrsDwpAqkKsUwqiz6JABEgAs2PAAlIXqmTmzifOxePdfCHf1g0uic8iMTHn+Z3ynr68UF44N5OaK9ng+8PsLfSrO64KCAB139dj0lxAeD0HRDbeyAef5rtxjUUSX164M4QHfR3DMeS/ZWyNzyOBaSTnw7gZ/IE3nk/HmX5DX0E07fx0ZY1yNWh4ocPkBTKQXfLbYhnO8zJbIi+NQYpW8QJyu4ISHAh/2vf4c0YDpwuBNH3JWHoiBF4+vGB6NkpAtGPJSGeiSuqH3tbM41cYwDg5KcYoGczhO7E/Y+yeh6KR6ZvE5b1Xf8V6yfFIYDTo0NsbwwU28HQpD7ocWcIdPo7MHzJfsiagQZntuzsMFam3odQrg2CIrui1wODRNbMz0F4oFeMIBgOXokT5hyk+laLQyyB9AY8GMHB9mYgRaGvtMMb86vfA+jVNRJBbTgExL2ClQcrYB0+3WwAHRABjxBwPCjxSDGUiY8ScCwgudsH2xGQANw4vwkTYvwQHMwG1MoBKsxL2KgP9tFm2SLddtxXSwG0e2GhLAao1N7Nj2llS2DkkmTiEFBVXoAcuRiUm4qIpOXi7COGS3jmsRcSgM0mSo2Iwcwty5EUnIgvFFOThOvNNphrwBUByXyRGPtTfV8L5yuWJyGCFCQZLDokAkSgORMgAclLtVNfcxHFe9bho9cS0TlID52fP79Tlr+fDvqgzkh87WN8c1Q5+LYlaDCTrWcgMQ3gKk7tXY8PRhvQMUAHP3+2G5cebfRB6DxkFr7aU4rKOrnDkqCg/YPGUtZd+A5zh3REACfmpw+CcfFReSbK4xsVOPrNx3gtsTOC9BYbAoI6Y/gH67Ff2p3NLQGJPWE7mT+qUPrvVCR0YDuWtYE+IAD+wZHo+9py7ClejqddEJBcZlB3Ad/NHYKOAZxYz3oEGRdDoFaPq6f2Yv0Ho2HoGGBuB/o2egR1HoJZX+1BqbKSlHzNf9Xj6pmD2PHlLAw3yOqH+emnQ0BHA4bP+hI7ii6ixnyNVN9aApLsDThjY3MJm8BS2OVNjzYcJ5Q15ROs33vKemc5c9l0QAQ8R8DxoMRzZVFOvkfAGQGJie6u98H2BSSw360vRyKS74PVv8vismTx94z6YN9rly3RY4d9tc0A2qoZSFUZSOYi8KR83ZgKSNkSI2JmFsi+dUJAYqJTTCr2VLFZQMFIVChI3hOQUDATMRGptIxNVnt0SASIQPMlQAKSN+umvgaXTx/Fvu/3YGuWuFtW1lbs+X4fjp7+3Wrmxqk8IU3eKWsjLxdt5XfbsjpXX4Pfyg4g77utyOJ341qLTTu+x76SC7h2U53PZRRtZWVsRZHNZUc3UFGSh52b1vLlZW39DvtOXlVnpPz7xu84fXQfvt+xCWuZDWs3Ycf3+1D6W41l9pO0Y9jWIsiLlvzaatsgwJn8eT3tDA79uAOb1jIf12LTzjwcPm3CTZxCHrNLBc82b9cZ3KgoQd5O0f+srfhu30lYqNWj5rcyHMj7ztwO1m7age/3leCCdSUp2ar+unntAkoP5OG7bWJZmZlYu2kbvss7gNIL16Cscqm+86DRpPicb5zPx0a+3ajTiMz4c2LbzcxE1tYcoaxzJtRYJs+prKQ/iYBnCTgclHi2OMrNxwg4JyAJUFzrgwHhd8b2b279lWJs53+z1GmoD/axZtgq3HXYV/92GFvYc8Wmg6oA2ioBiS0FS09B9+heQvwjjXhD2ROCkZwh38LDsYDElq/FpO7hl7QVzIxRLWPzooDEC2Q2Xu61ipZAThABItCaCJCA1ES1ebNW3C2rVjnEl5sjpdFKUl9Xw++2pXVOyOMmavnduGpQZ3NgX4+6GmaHvTRCbo7Lk1suHku7gtXUWYQjKZmNc1I5NbaNlnKw7Dqmlb85lZaPIhsVPHu8WXaSbarLzCVZHUg+2rlAKtMpf60KkH0hlVVdDdt5SSxqVcKSLB9I7UadRvpe2uVN+LTjmjxTOiYCHiXgcFDi0dIoM18j4IqAZGbjVB8MCH2+vd9cqZ9Wp6E+2MyaDloMAYd99c1aYedYq+c4tYAEtmYNBSyeEIslFBHPC0kWHakMS4yynYl5QoIAFCyJTnwAa3nwa2H5WuoeQXSq2pOKGMUyNi8KSCjAzBgjliiW0LWYaiZDiQAR8DECJCD5WIWTu0SACBCBlk7A4aCkpTtI9jcpAbcEpCa1mAonAs2TgPt9tYaAJLkoCknpKTGIiJd2YtMSe4TvlEG0pcDVbIO0VERwwYjuJe6S1isawZx8GZtWnswIZptyiantINqS0XzsCXRXXWc5y8pS5mk5R0dEgAgQgeZFgASk5lUfZA0RIAJEgAg4IOD+oMRBxnSaCADCDk/p6cSCCBCBBhJwv6+2IyCJNvEzhjhp1k4VMpK1ZyDZCqLNlq9xSbMVO7QxUcqyG5uQp1Vwaz6gdzLkq+UaLiBlY0KwMs8GoqfLiQARIAKNRoAEpEZDSxkTASJABIhAYxBwf1DSGNZQnq2NAM1Aam01Sv40FQH3+2qlgJQ7h80SkmYbCd7kzohGMB8AW/ibxTAyKtaACTOItAUktnyNQ9LyCgUa9TI2tjsaF/EkLLG7y5DxbDSCFbu9icHxrZm+UFMAACAASURBVLdrU+QNfvMYG7OMeFGKYiApgdFfRIAINFcCJCA115ohu4gAESACRECTgPuDEs3s6EsioCBAApICB/1BBNwm4H5frRSQKo7mID3FiHg+jpGw5CzemIL0gnI+ADYzsCojGcETsmW22haQyjKeRASXBJV+BFTtQWpMMKJn5Ar5VBxFzuxkyzK3/r0QnTwbOUeVwhM/A0mMy9RfsnFcBhQhjewJSNkTrEQpmSN0SASIABFoVgRIQGpW1UHGEAEiQASIgCMC7g9KHOVM54kALWGjNkAEPEXA/b66AkdzciDXaarKCxTLzXJk4hFvb8VyJEWkQpR+mKSE8oIcFJTLd2YTPBPyOgqlDMTOCdcoBCImIrHg3dI/uVEiKCZwmc9L6dT28bGbZDGYxGvZB1tOp54NJTtNh0SACBCBZkWABKRmVR1kDBEgAkSACDgi4P6gxFHOdJ4IkIBEbYAIeIqAd/vqCmxJMSLVoiB5yo1Gzoctp9OYDdXIpVL2RIAIEAF3CZCA5C45uo4IEAEiQASahIB3ByVN4iIV2oQEaAlbE8KnolsVAW/31VXlH2GUeWe2loEyd048jClbNGZDtQz7yUoiQAR8jwAJSL5X5+QxESACRKBFE/D2oKRFwyLjXSZAApLLyOgCIqBJwPt9NVv6prU0TdO8ZvElW/6mtcyuWRhHRhABIkAENAiQgKQBxdNfHT9+HPSPGFAboDZAbcAzbYAN8N9++21Pd9WUHxHgCWzZsgUffPAB/W7Tswu1gQa2AdZXv/rqq8SxgRzp2cEzzw7EkTg2pzZw9erVFvvURQKSF6pu69atSE9Pp3/EgNoAtQFqAx5oA/Pnz+cHJV7ovqkIHyTwzTffYNy4cXSveuBepWcf3372Y3310KFD6V6ie4naALUBagOqNlBQUNBin7BIQPJC1VVUVODUqVP0jxhQG6A2QG3AA23gxx9/xPTp073Qe1MRvkhgx44dWLhwId2rHrhX6dnHt5/9WF+dmppK9xLdS9QGqA1QG1C1gcuXL7fYRywSkFps1ZHhRIAIEAHfJOD9uBq+ydlXvaYYSL5a8+S3pwlQX+1popQfESACRKDpCZCA1PR1QBYQASJABIiACwRoUOICLErqMgESkFxGRhcQAU0C1FdrYqEviQARIAItmgAJSC26+sh4IkAEiIDvEaBBie/VuTc9JgHJm7SprNZMgPrq1ly75BsRIAK+SoAEJF+tefKbCBABItBCCdCgpIVWXAsxmwSkFlJRZGazJ0B9dbOvIjKQCBABIuAyARKQXEZGFxABIkAEiEBTEqBBSVPSb/1lk4DU+uuYPPQOAeqrvcOZSiECRIAIeJMACUjepE1lEQEiQASIQIMJ0KCkwQgpAzsESECyA4dOEQEXCFBf7QIsSkoEiAARaCEESEBqIRVFZhKBJiFQWY4TF2ubpGgqtKUTqMXF8lMwNYIbNChpBKiUpZkACUhmFHRABBpEwLW+2oTS/N3YvTsfpY3xw9EgT+hiIkAEiAARkAiQgCSRoE8iQARUBGpRuCARvZ5aikPXVKdc/LP68jEU7t6N3XlHcMbU/AUpU2k+du/ejXx6inWxpi3Jr+UvwCO9k/FJkefr27VBicUmOiICzhAgAckZSpSGCDgm4FJfXbsD/3tPHOLiXsO3DXzmcGwZpSACRIAIEAF3CZCA5C65hl5XfRnlR/L4Qeru3YU4VmGC54dZDTWSXX8Wh9nA//BZT2Tms3kIgkQLe6t2Zj1G3nYLHpz7X/x+092qq0XpmolINPZE97g4xHUz4P4p/xFmpZw9zLf/pmpaZw+zN52HodWyjy1PRlxcHJKXH3PXcZ+5zhbHm7/txSxjW9z94gac8TANlwYlHi6bsmv9BNwRkKovl+NIHutTdiPvyBnY0smF+8W+OC2kUf9eSLMzhDJYOUJZ5aiwVVjrryrysJkTcKmvPjwXcRwHLvZtFNY3c8fIPCJABIiADxMgAcnblV97EQcypuHpgUb0NnTjB6lxcd3Rs88DSHr2LWQcqvS2RQ7K246pbOA/dbuDdHTaHgFBkEhGS9IjSpY9hHYhQ/HP03X2XLN/zrQdr3dpizacHh3uGYTBgwzo++5e8Dlun8q3/6ZqWtunsjedU6HVso/M6w6O49B93hH7/tFZ2OZ4A6fSh6JtaH8sK/EsKJcGJZ4tmnLzAQKuCEiVh7IwZ+wjeNDYG4ZurE+JQzfD/Xgg6VnM2VKOahUv4X6Jwz1DPoGtyXlCGvXvxTEsTxbyZ2VI/7oZeqPPA4Pw+MuLsKtcXZqqcPqTCHiZgCt99YV/PQl/jkPICxtBE5C8XFFUHBEgAkTABQIkILkAq8FJa0uxKfUR9IgOg79Oj6DbDRg0eDA/qL49SI82AR0QbXgMc3KbkYhkysAw9kZo1IYGu+/LGeTPvAsc1x0tRo+oLcC78YGIHPcNKhvyJvD7N9FRx4EzvoXs/UUoLjqAw6er+KZgyhjGizRN07RMyBjGgeNGQatlk4Dk7N1qn2N9ZRbGhAcifk6hsxk6lc6VQYlTGVIiIiAj4JyAVItT297CY4ZOiAhqAy4gFF2NgzF48GAMMtyOoIAARMQ+gJcyShWzizeMYv0OBy7wbjz37zJZqZZDIY369+II5nVn14ag80NCOYMHD4IhKhQBnA5+IZHo+kAyPmxOzw8Wl+jIRwm40lfvnnwrf288tPSkj9Iit4kAESACLYMACUherKeyVSPQub0eXOh9eO3zbHy/9wCKiov5QfXeXevw0chY6Dk9IgwTscnTaz7c9fPY33E/CUju0jNft+Ul/xYlINX+9DfE+oXjpW8bGMly42joWPt5br0w68hMBDj29/ubUEA6hr/fTwKSrDrcPLTPEbiCdc+FwO+P78CTEpIrgxI3HaPLfJiAMwJSbelKPN+lA/RcKO5L+Qhrduai8HAxiouLUXRgL3at+wgvdDfgzZxKyDV4QRzqBaPRHyFdJmObxvsi+wJSLN7YLJRTXFyEA/m52LlpBaY8GApO54+Ohjc18/Th6iTXm5CA8311KRb30YHjojD1hwbMem5CX6loIkAEiICvECAByVs1bdqJ1NhgcFwkRn5egNMmVVCZ+hpcPrEdc5PYQ2Aoes4tEN5amkqRz2Id5Jfa2M1IjFH0/VFcVPlSa6rAsUIhTkLhsctWU+lZcmX8kmqc4+My5eHni1dw+Vghdq8cj7uYADBothivSTsekutl1cJ0olDIs/AYLstn3teacEaMD6VttxgLwsykWrCVcVLnpWLC/nTdVjkXVaSq6stmxlpxL2pNZ/i4GLMHMbHiLoxfKcWvsMS3kGJiaMUC0j6niktVfU6IvZH3M9QbpjnjqwYi7Hs7Fn76ZGRc0TorfGcOjL07D0fOqGN4ifU7e5Dwtt3cfg7jrMhs5Xg2K4vDoNkSk93QYmCJLaJVDrNF1R5qTTjBt/tCaK3oEOxeifF3sToZhNliLBF5PCRpBlLftBO8s1I97ma+npM3Vms+7jKXcrLrrxg3ymZMMqm/KCyzWgJgN1++cBVHyO6rvCNQu+0MR5bthfTHoPczYH6R5GHDP50flDS8LMrB9wg4FpDOYMP4zgjmOMS8tBIF5ZdRI1eJANTXXEbZf/+L8qvKE4I4NBiLMicgRheGhNl5Vr/t9gUk9cwkoL6uCucOr0WqQQ9OF4ZBn3l4zajvNQHy2EMEnO6rTV/jz0EcOP1wZF71UOGUDREgAkSACDQKARKQGgWrdaa1OZOFpTyGGdh7RflAaUl9AxU730Q8x8Ev9m3sYyfqCrEwMQ5xPV9HttZkkJJP8HhcHO6fvhOW39xKHEp/DY8O6IOe3YVYCd17GjHw6Xew7ZRSADHHL6k8hPSJiUjg4zJ1w7i1G/B2z+6IuzucX5POtbvDHHNBGQ/J9bL+c3Evlo5NwgO9ugt5du8JY+JErCmtRXVJFqYNG4D7xfhQzO7EiWtQqjBbjAUxJA17D2Rg2tMDYWS2srgQfF5jsbRA47UuXLd1uxWXc0J11Z7CnkUv4/GBRjNjFvdiwLBp2CQz9peVz/NxMe5ox8QKf4TfLcWusMS3kGJiaMUC0j5niUtVeSgdExMThNgb3cZhrWgeXPDV0v6ko5P4fKAfuHvn42fpK9ln7ak9WPTy4xgoBcaO6wbD/QMwbNomWT39gpXPdkfcHe0EAcncfqZi+563eWZ3h7NZWRza3SExiYOCQe0pbJvzLBLNsUVYOQ8gaWI6lKHCxPaQvBzFp7bhnWED0Itv933xfoHMcPFwz9ssoPfdCPdnddIOd5jjiVjiIUkC0jNrzuJQxpsY8sD9YnyTbjAkJGLiGuWyFCFr59uXtVVM2XTC34tfI6VHHOIe/wRaQ0RT9uvoGReHESuOwyxRO5Mvb5CFY1H5Liwam2i5r7oZkCDeo5LtznBkaev3v4sunD+e/NcF6dIGfzo9KGlwSZSBLxJwKCBdyMSIUB24kCfxyfGrihlGjngJ4tD9+PvBInyUFAJ9x4etdip0VUASyryOM6tGIZzjENj/E5Q6MoTOEwEvEHC6rz44G13Yy8ou7+G/XrCLiiACRIAIEAH3CZCA5D47l678ZYmRX8oTO2MvauxdeX0bXgnnwPn1wzI+PIIJ2RMiwek64mUNBankYyMCuRA8lXFefIg1Ie/Dx/i4CH63WGIyGLuG4hb/cHRJ+giFMjFGeFCNRf8hvRHVoS06sxgOgxIxMycH81l8pp6RggAQ2ZOP7cDiOwyenyt64E5Zt6NHv264PSgIHQ1CUOWOARy4Nm3R5ZERSE7ohLDgEMEOYzQCOA5t2sZg/Ab54FOMBREUhe49oi3pBxvROUgPrk0Qbr9vLNYowku4Y6sWF1Z7J/Dvl/oiLjIEgSG3wzCIxaMQytb5hyFuvGXXqROZkzB48EPoHMLECnnsiknIFCa3QKgDDlqxgLTPbcAo9qAV2x9DekehQ9vOMLK4G4kzkcM3Ltd8tW6Ou/DqHzjon//auq2e+Dde6huHyJBAhEgxvIydEaTXwT8sDuM3SGsvTyBzklb7mY/c3Pl8W+oZyZhwiOwpxfMYDHPTQhnWjO+LLhEBCAiSGA+C4fYgBLSNQu+Jm2Q7e4ntoX1vPJLUBeHtIoU6MY7CFxqhFHLns/J6IpIx5CLRk7Vp/t98SC1bEpBi+z4GQ3QEQjsb+TTG6ABwXBu0jRmD9ZKrPMCGMnfS37pSLO6nBxdoxMdWCpIJ2S93hI6Lx8yC62K1Opkvn1rkGByLhAe6IjJU7A8GGxEt3qMxY9abuTvDkc/22mo8xXG4Y9qPok0N/3B6UNLwoigHHyTgUEDaMQmhrP9IXI7ztt4H2eBmEYfqULFzCgz6QKudCi1p5JlIMZCsZyCZU13JQLKeAxf0Ir6V/c6bz9MBEfAyAWf7agqg7eWKoeKIABEgAg0gQAJSA+C5cmn2BLZ8jcNTqx3tLXEcHyWwge1dmJkvlGDKmYwYToeOL2erprqX4GNjILiQZ/BvKdJxyXI83FGP0KR3FDEZDhfmYuPsJITqozBpu2Uqk/Cgqod/eD9MX7UL+1gMh6KjOG0y4SyLz7R0iCAgDVnKx3Zg8R2Kz4rXu1WWDv7hAzD9q53IOyAEVf4u/SXEcBx0/gEI/n/D8ME60Y7D+dg43Qg9xyE0JVsWiFR6kOYQel8KPpLSFx/Gvl3r8A6/DDAEPWaLywAZRrds1eLCMqvCwcUTkLJwNbK/34sDRSweBSv7E4yM5KALHYFMUe+quVSG4uLNeCOW1ak8dkUZLolKorZIJNS99jlRQNL7I7zfdKzatQ+HWdyNo6eF9uGir0JJ8v9vxGgdh06z+Dlw8hNA1UEsnpCChatlMbwO78OuT0YiktMhdEQmBNdrcKlMq/2chcl0lm9LS4cIAtKQpVI8j2JITcu0MxVdQvwR+9LnMsZFOLB3F1akxMJfsbOX2B50/giOH4mPN+YJdXL4F1zUCKVgOsvKW4ohvIA0BEtZm+b/nTXfX5KApL+lIwZMX4Vd+w7zaQ7nb8R0o56fuTRmo+U+crV9KaECzvtbh9OfPgw9FwijWkEyZePljjpwhnewX9SPnM+XWSTdVzrc0u0FxX2Vv3E6jGxg2m4MJLed4Sj4WYCZMRz8xn6jdtvtv50dlLhdAF3o0wQcCUhlS4z872LMW/mq2Ufi8mLzsli2PPcwzspoKsSh679i/fgY6ELjkCoLhqRIY75Wuj/tCEj//7zlWZ1Yv9oHH/9ivpAOiECTEXC2r6YA2k1WRVQwESACRMBlAiQguYzMvQu0hQCtvE7i0wHsAbADJueI56v2YkY8B13Hl5XL2Eo+hjGQQ/iYDZAWbBUt6oVALgrDFq5F9i5LbJndu3dj27rJMDAh6s3vzQVLdhln5eH8dY1XqRtGCQKSxvQYd8t6eH6Roqz6q7swOYr53AvT/nMMv8mCSdwomClMa+7zMSzPw9KDdAwmbSjHZVl61Nfg4pZJvCDlZ/wYx0VP3bXVFpcbFeUor6w2LxOqvnwe5YeyMbUX8+NWTN5tRiwbmGs/+Et1oIHYxuwkUUDijJiVdx7qanPVV7ml/HHZEhhtbmF/AxXl5aislhZIVePy+XIcyp6KXkyQuXUyFK7baT+2/TZhy0sdoLslAa9++Q12KgZju7D5o6GI4ALx8D+k6UVSewjHqJUn8PsNK480vpAY2t+FLWr8Vyg6f102SLyBQ3Pu5e+J+/9+zJxvw5i75m/92a8wNIRDoPFjxTI2U/bL/DJZ44fF4swx1/K1CEgx+Mv6MuV9deMQ5tzL2vb9kLkNwD5HAZBYP1oN3EzQtQNnByWu5UqpiYBAwJGAJAnM3a221RSXF5uXxbLluZalsSx3od+TfgvqcfX4ZxgWqkNYwgLz7GBlGqlWpH5Oulb6Xv7pTBp5ejomAo1LwLm+mgJoN24tUO5EgAgQAc8SIAHJszxt5vbTjCh+0NlvmTTotZW0CB/2YAO1WLy7X0pzHfvfMYDTdcBLWyyzHoRBayRe3ipFOjZh3XMsrkwQOsZa4srwsYH4B9o70I7N9Bm9UcrYLFA8t15jqgZLZVMAcL8s63HkYXxwD/N5BNaqB//i8heu+zwcMVvt4CG5KgPJTMwISsF/+Gvct9UmF9Ti4s9bsGL6Kxj6SH88aExAb0M3CLGOdJAhbkQB6TlYV5vrvpqxSgdH5qG7TQGJxeq5iJ+3rMD0V4bikf4PwpjQG4ZuQtvidKNhaV322o80kNJauncQs7uwZY1/QJRiICa2aTEuV48PpajMUnvoijkHJSccfdoXPqQB4j0fHLbKqGbNM/y9bBk8NpS5i/7WV+Lfz4SAC+yFRRICiGKR/kEsPi7dyy7ma56BpDVArcGaZ9g9qj5nn6MAT6wf6xvfiq2zXzg3KHE2N0pHBJQEHAlIl796gu8D2k/aqbwQucLSb35JrLR0WSlSW4lD9ZX4aZYRev1tGLZSiK1mlYYvRern1Peg3ISdmNSe3adP4KvL8u/pmAg0DQGn+moKoN00lUOlEgEiQATcJEACkpvgXL2sctVQfilWyOgN5mUymnmc+QpP8DtRPIM1VZYUNcUf8rNCwsZtEa8vwsL7/MFFTpDNSjqD5X9iD4/yWDtSfBfZpyXQjFlAsjm2sykgebIs6cFY+aAteC8OUF0RkKxmRXjSVmZVJQoWj0S/e2MRFdYW+jYBCI2IQFfjYEhxfZQ8Jf+0H/yFwYKWkGJLZLE3aHfdV0srE48uf4UnbAlIlQVYPLIf7o2NQlhbPdoEhCIioiuM5phCqjq02X5s+cZsyMHkDqwdy+MTydqvGLNokhREyq7wYeWd+IU9hoAkIFlEIlk+ok+Wcw1l7qq/QOWGMQjn/HHfQlFBMm3BuDAO+n6LUSrpRx7mqD2otc9RoEYCkqz10GELIOBIQKrPf0tYdn3PPJg1XN4vcek3vyRWWrqs7BO17qMb57PxpkGP4M6v4T+VwOaxbJms+vfC/u8IX3zJAvTUceDCX8dujQnFLQA9mdjKCDglIP00HVHspZ+NjTtcQ5KLOf3nmOMZunZt06TOndMf4zIUQTubxhAqlQgQASLgJAESkJwE1dBk9SfS0I/FEAkbjHTZLl3KfGtRtOQhfpaQvt8y/Co/WXccix/UgwsbB34SUtFC3OfPIWZyjkyQqsHXz7MHz/YY+U8hZosQ20WK8SJ+SoFmzNPptcULvnibAoAny5IejJUP2oL7bghIRe+jG3sYiX0XwiQuT9oKoHABHrjtFvjf8RimpK3G1pzvkJuXh8LDxZDi+nhGQKrF+meZkKKuH3uDdtd9lTcz/rg+CyM5Dv8jW+oopSlc8ABuu8Ufdzw2BWmrtyLnu1zk5RXisDmmkKoObbYfewLSQcyNY373wts5qrZrjldUjDIpiFSTC0gNZe6qvwCubMXLkRz871vID2BNW8YhjNPj4U9Pw6wfwdV8pftQPXAV78RRrE7U5+y1RanVCLMi9GM3S180+NOpQUmDS6EMfJWAIwEJVdsxkW0C4B+HN/ZIC8jVtKT7SdknaglIwHX8umoUInVhSFhQiPxZnTTuNSk/9T0olVuJPW/GI5DjED5uM6R5ydJZ+iQCTUHAmb765OcD4cfa7aTtso07mBDUH3OknS1444Xv+vfvD+GftVBUlvEkRs0+igo+fRkyxklpZZ/jMqCQa3Ln8PlZizjC9UobWMbMjnGQaz5MBOpvnVBMKyvbbDv7Tsij4uhsJEfPaFGiV1O0JSqTCBCB5kOABCRv1UXdaax8KhQcF4zOyR9h70X1Fim1uLhnNgbcGcjPvBiVKR8IMiOl4LkdMT7bhJLFfeDPxWPGXtk0JQDn/jUUIZwfooZ/ptrqXHC0urpa4bG92S98QkkAGJYhE6qELDxXlvRgrHzQFkqxJyDdhVe3X5QF12bLq0qR8dzd8Ge7e03aASlkuedsBcqW9eMfdgZ8cADnrsjiIJVkYQwfLFst+Ej+WQKjyytBWt7YbfYhmS9Ce3iA7cjnkoDkehuQ2yIci0GPn8lU1XkZlvXzA8cNwAcHzuGKLA5SSdYYxDLRjlPVodR+lIoaX4zU9oZlWJZlCuVfw09vxfOBqnu9uQ2n1LcKalFdLf9S4mtrYGXtoSV2zzBYFc8WHc7rznO3zDKS5SH6JD/navuS5QbAVX/Z1SbkTI4B598Hi0tMyB7fEVzIUHx1Vj7twNV87XPUHvhKApI2R97PC+l4VMehy3ue25zZmUGJkjH9RQScJ+BQQIIJ+99jGzz4IbzHWCw/oPod4ouS7idln6h9HwH1Vw7io8dCob9tJN57nfU/6v5Myk/9vbCs+MDysegR7gdOb8D/5ZJ85HxtU8rGJOBMX73tLyH87+0j6Zdkpgi/LZZHBybaxGPU7Byw+5O/R1OMiFeIQbmYEZ2M5YJ6ZA4fEJOSbr6Gv7agHPIn59zUCCQlJSE48QulsCS+nLLYIJnHbFPeh/x9bZ0QQAWOivbmpKcghotBSrrkQwHKeUMqsDwpAqkKsUwqiz6JABEgAs2PAAlIXquTelQWrURKrB66W25Dt37D8NcFGdjKAgRvzcCCvw5Dv7gI6Dk9YlNWofiKfCAoGCkEz2W7sS3HokGBit2WJDfqK3djikEPXcidMAwci+krssACaPNlvP4sEh9bgALZ2FsaxGv+7rFM978rCANhCZicvhW7d2dhxeZivjjPlSU9GCsftAWf7AlI/ujYrR+G/XUBMrbuxu6spfjrsD6IDtGBC03Cwv0WYcJztgKXM5L55Yi3GlOwIIMx2YqMOWOR2LMT2rNZZlaCTxXWPMNmhvnj7ic/RNbu3diakYk8cac2aXmj/x39MWEpqy+W3xgMiItASADbNl4tSEmDdi1egKu+Sm3H8inaGzUdP1m+BHAZGcnMj1thTBGZb83AnLGJ6NmpPc/EFQFp/7uxvG9hCZORztffCohNC9fLvsCwUA76Dl3Qd9hfRc6sjldg+suPYuBfLNvJW4I/Kx/oFKZb/bEf7/JiXxgSJqfz92HWis0QWrbrAlJDmbvmr+BM1d4ZiGe7sS1ajskddQh55t+QNmOU3HUtX+k+1OaoPfC1z5G348dpuIMLwQsbJTlXss79T2cGJe7nTlf6OgHHAhJw4/wezBV3/LyzRz88+vJ0rMgSN67g+6n+iA22FtW17yNGvA6X8mbBqG+HyEi2a6v6PpTuz7swfqW0QcZWZKRNx8uP9kOPO0Og40KRNHcXzoi7MPp6PZL/TU/AcV9dio/uZ/dJDN7Klz/3qgQkfnOPJJk4BFSVFyBHLgblpiIiabk4+4j5Ltwz8pc91kRykRoRg5lbliMpOBFfKKYmCddbPx+7IiDJSuTjS6rva+F8xfIkRJCCJINFh0SACDRnAiQgebN26q+iPHc5XkvoAL3OH+06RuOPLEjwH6PRsZ0/dPoOSHhtOXLLr8p2fZIZWH8eGU+FQNchCncGc7DstiRLg+s4kyeW0SYIYVGdwAfRZmWEhiBqyGc4IBvHORSQrh3EYvaQzOnRPuqPiIvrhKiHl6GUL9JTZUkPxlqCiD0BKQb3JYQjuF1HRP8xDnGdbkc7fyYe3YfUlQdRoQjI7SlbgfqzmzEhVg9O3xYdoxmTPyI6IghB0cMxZ/JDGoIPcO7bCYjVc9Dd0hGd4uLwx+gYvJotKHn1FVswieXH6dH2dlZfLL9QRA2bj43vP6KRn30BiS2HcKUNyFuPdPzrsn7Q+/XDMsXDVD3Obhb80LcVmf8xGhFBQYgePgeTH7IeLNkOwg5cO7gYSaEcOH17RPH1F4WHlwktC/WVKMr6AMOjA6DzbydyZnUchbCQMPT+329RbhZCpfaj/WAm+aT8vIaDi5MQynHQt4/i78NOUQ9DKt7VGUgNZu6Sv6In1wswM55D4J1RiNCFY8wGjaU0LuVrn6P2wNc+R2Zp0XwD/PSPIV0UTJX14N5fjgcl7uVLVxEBRsAZhFFUrAAAIABJREFUAQm4gYqj3+DjlAR00OvgFxKGqE5ioH++n/KDf4cEpHz8g2xAKy3dtdFX3TiPTZNiRTFenUa6P/0Rfre0ScYfEX17GEL8dNAHdcbwD7JwUPnDRxVKBJqUgMO+2hxAWxn3U5olbBZv+M1RIvCkfN2YyrOyJUbEzCyQfSvcM3YFJCY6xaRiTxWbBRSMRIWCJFxvtsGcs+cFJBTMRExEKi1jMzOmAyJABJozARKQvF07N004fehHZK9Ow/uTR2MwHxB4NCa/n4bV2T/i0GmTeWt4a9PqUZn9Dobz1/wFX5p3W1Kl5MvYg80rFmFqynChjNGTsejLbPxUfAHXpB3Y2ers+UJwYllcbVVmN1Bx8D9YMTdFKJflk3kE5qGqR8o6gcxJzI75Gj+e4q42kzJxwmyZ9CD9BD4uFPycPJpdPxwps9KwesdBnLkqf5MlXugRWwEwITBvs4XJ8BTM+mQNduaX4tLOeTxvNc/6q+XIzUzDFJmdO09KNlbhVN46fDJLZDw8BXNXbEbusUrcyJ2vkZ+0048WL9d9NWOVHdSVLkY/fTCG/OuM7FvmejnyNq/AXLFdDU+ZhU/W7ER+6SXsnKdRh6L9g9VAWK43KnDwP5a8Rk9ehMwj5paF+prfUJq/DavT3odQv4MhlJeDg+WXUSPhg9R+JsEcV1thtfYfNyoO4j8r5iJlOLN7NCYvyoRU/InMSTx3S6BuWR6iT1bnXGhfstzMh877K11yHT9/8Rfh/h4+GzttrFpxPl/7HIW+wpqxPY5AGT4d6A/9w8uhWF0nueDmp8NBiZv50mVEgBFwTkBiKW/g9/JD+DF7NdLen4zRYoD/waMn4/201cj+8RDKf1e8yRB/c63vI4l81S9rMJ3vk9RppPuT9VeWf8NTpgplfb8Ppb/VaL98kjKnTyLgZQIO++pf/o2JrD2/+E/8rLBNeFFmEW8qcDQ9Bd2jewnxjzTiDWVPCEZyhnxxmmMBiS1fi0ndwy9pK5gZo1rG5kUBiRfItF6iKqDQH0SACBCBZkGABKQmqoab1Vdw6XQZhCDXZTh96QrMIWXs2VR1Acf5QMInUWmJlqtxRT3qqipxrvy4UEbZaVTKlSPxCtNZIUixLK62dV71dai6VC6Uy/KpqlM9pDa0rBpcKmN2nFXF3GGmiLvalF2SBVeUBKQ++PgXoezT/PXHUX7REceG2irikTM5Xo6LJvHB3XSW563Fk9X5OVt21tfAdFFkfLwclyTGmvlJO/1o8ZJXn3O+yq8wH9edxj+HhqDdQ8tQYv5SOKivq8IlsV0dL78Ik6jkCG1JZZNof7EWEKbFyfIqO12JqjqzKiSWehPVVy5BqN9iyMuzmCW1nzKY42pbTto5Ynwuofw4a3tlOF1ZBan4mkvCvWkJ1C3LRvRJ8xwawJwvwhl/LbbUVZ4U7u/jFxQxHSwppCNn8rXPUahfLca2OaIkDX2DQzD0q7OqPkOyy71Ph4MS97Klq4gAT8B5AUkEdrMaVy6dRpkU5L/sNC7J4uPJsdq+j8RU9VdxTuyTlP2ZdH8qNxY4Xn7OZlnycumYCDQFAYd99bWLKGX3jeIZj1mqFpDA1qyhgMUTYrGEIuJ5IcmiI5VhiVG93F94VgyWRCc+gLU8+LWwfC11jyA6Ve1JRYxiGZsXBSSw2JNGLFHM+m6KGqMyiQARIAKOCZCA5JgRpWh2BCQBST3Fv9kZ2oINqkflN+MQGRiPd+VBs1qwR2S6twnUouDdeARGjsM36uBMDTTF4aCkgfnT5b5NwGUBybdxkfdEwCYB9/tqDQFJKkUUktJTYhARL+3EpiX2CN8pg2hLgavZFPxURHDBiO4l7pLWKxrBnHwZm1aezIhGWMLGx2uiZ1qpiumTCBCB5k2ABKTmXT9knSYBEpA0sXj6S9N+vGcMRNQLG6BcyObpgii/VkmgbBWGRbZH0sJDGjMLG+ax+4OShpVLV/sGARKQfKOeycvGJ+B+X21HQBLN5mcMcdKsnSpkJGvPQLIVA4ktX+OSZit2aGOilGU3NiFPq+DWfEDvZMhXy/ExAi3r7bTB2gmiDWRjQrAyT+1M6FsiQASIQNMTIAGp6euALHCZAAlILiNz64Ib/197ZwMWVbW2/30R8wcDCo8eeTFPLwdSSjBFoxRL8YvULMUyLLM0LczspJyOdrRX+xCO5serqX3RkVfL6aAWaoapKaIUJmKmolIk4UekePCIKDTIdf+vtedrzzAzzIzDMAO318Xlnr3XXut5fmvNmr3uvdaz8NuWNLz6zwJcMASsdioj3tQKCWjK8/HBvGXYVWFzra1TZJwflDhVHG9qZQQoILWyCqe7TUbA+b7aVEDKSxWzhPSzjbTm5s0JR6AcAFv7WcQwijNZA6Z9VrQsIInlaxIS0itMfDdfxiZ2R5NCRsIYu7sU6rHhCDTZ7U0XHP9GBCRZlGIMJJPK4AcSIAGPJUAByWOrhoZZJ6APJmoeZNT6HbziJIHqCpRXXjPEBnIyF97WCgnU111D5flKNMWO4s4PSlphRdBlhwlQQHIYGW8gAYsEnO+rTQWkiuM5yEiOQ7Qcx0i75Cw6LhkZBWWG+H/V6kQETtmusMO6gFSqHokQKQFm+hFQnYuUiECEz8nT5lNxHDnzE43L3OJjEZ44HznHTYUneQaSLi5TvN7GSWqYhDSyNQNp+5QGopTCER6SAAmQgEcRoIDkUdVBY+wjoA8maimgr305MBUJkID3EnB+UOK9PtNy9xGggOQ+1iypZRNwvq+uwPGcHCh1muqyApPlZjkK8UimWJGOhJAUxW6+1SgryEFBmXJnNi1vbV7HYSoDiWvae0wEIiEiieDd+j+lUbrqEwKX4bo+nbl9cuwmRQwm3b3iP7Gcznw2lOIyD0mABEjAowhQQPKo6qAxJEACJEACjRFwflDSWM68TgKQB4IZGRlEQQIkcIME3NtXVyA7OQ4puslDN2i6G28Xy+kszIZyowUsigRIgAQcIUAByRFaTEsCJEACJNDsBNw7KGl2d2mAmwlwBpKbgbO4FkvA3X11ddkyjDfszOYdWPNSoxGXnG1hNpR32E8rSYAEWh8BCkitr87pMQmQAAl4NQF3D0q8GhaNd5gABSSHkfEGErBIwP19tVj6ZmlpmkXzPOKkWP5maZmdRxhHI0iABEjAAgEKSBag8BQJkAAJkIDnEnD/oMRzWdAy1xOggOR6psyxdRJgX906651ekwAJtGwCFJDcUL8bNmzAggUL+EcGbANsA2wDLmgDs2bNwpQpU9zQe7OI1kjgk08+wZgxY/hddcF3lc8+rfvZT/TVgwcP5neJ3yW2AbYBtgGzNrBv3z6vfcSigOSGqjtz5gxOnDjBPzJgG2AbYBtwQRv4+uuv8eqrr7qh92YRrZFAdnY20tLS+F11wXeVzz6t+9lP9NXTpk3jd4nfJbYBtgG2AbM2UFHRcB9Ib3nmooDkLTVFO0mABEiABGQCXBbBhtCUBLiErSnpMu/WRIB9dWuqbfpKAiTQWghQQGotNU0/SYAESKCFEOCgpIVUpIe6QQHJQyuGZnkdAfbVXldlNJgESIAEGiVAAalRRExAAiRAAiTgSQQ4KPGk2mh5tlBAanl1So+ahwD76ubhzlJJgARIoCkJUEBqSrrMmwRIgARIwOUEOChxOVJmqCBAAUkBg4ckcAME2FffADzeSgIkQAIeSoACkodWDM0iARIgARKwTICDEstceNY1BCgguYYjcyEB9tVsAyRAAiTQ8ghQQGp5dUqPSIAESKBFE+CgpEVXb7M7RwGp2auABrQQAuyrW0hF0g0SIAESUBCggKSAwUMSIAESIAHPJ8BBiefXkTdbSAHJm2uPtnsSAfbVnlQbtIUESIAEXEOAApJrODIXEiABEiABNxHgoMRNoFtpMfYKSAdWJiEpKQnL8zV2kCrF538V6Sfj/cKrdqRnEhLwfgKO9dXFUE8V35HZ2HrOC3yvysXCpCQkjXsfhV5g7vmv5sn91UuZJV5grRMmell9OOEhbyEBjyFAAcljqqKhIfqH05UHGl5rCWdqLv2G3y7VeI4rNZfw22+X4EEWeQ4bWkICHkTAsUGJBxlOU7yCgL0C0uF/dIe/vz/6Lv+pUb+qdqWga1t/+N8zB/sqrzeanglIoCUQcKivPr8Oj97iD//2z2HrNS/w/rv/QWd/f/jH/S+KXWGuLICMw/J8ZwTm09g8U4hvK2F5yKDB13/pKPdXoz6pdIW1npeHq+vD8zykRSTgMQQoILm7KjQXcCJ7Nd6cMUF+E5A0dTZWZx9DuQXVYsuz/nJn/+wWdxupKO/0ZsxMSsLMzacVJ11wWPwxnorvjd5xSchwyS/vjdpUjI+fikfv3nFIMjfowEq5ruwX8g5gpXgrZf8Ndhp/FXmLxQPCBHxQaOONt/4tzEuZMHnPVFOGb9UrMVt+w5eECTMWQ/3tKVTZyMpOw5iMBNxKwKFBiVstY2EtgYC9AtLVDUlQSRICnvocVbYc1xThvcHt4SMFY/RHpfCGsbEtd3iNBOwl4FBfvWc6/ihJkPqvgoufOO0116F0pz8cCF9JQodpO1Hr0J2WE1dtn4Lbg0Yio9wZgbkIi2PFmOFZWB4yHMU/uvlAkmKw4Fi9ZQO8/Kyr68PLcdB8EmhSAhSQmhSvWeaVeXh7dD/0jAxDh+AAWRzyv6UdwiJj0PvhV5BVbKoibRovQZIkjN9klo87PxYtRqy/P2IXF7m21OIV6OsnQVJF4q2Drs3audyKsaKvHyRJhUhzg7Y866CQtwXPirdSLlf+ruPUyoHw9w9A1zesQ9PkzMDt/v5oP3EzruhgaErW48Uh96JbeCe0E2/4/P0REByK8G6xGDBuOfZfoIrkXLvhXc1BwKFBSXMYyDK9moC9AhK+fwt3iQHvXfPxgw2PK7+ahjvaSFDFzEJuZcscvNlwn5daMQFH+uqS5X3gI0kIm/UN6jyemQbbnguSn9GHZlx0gbUa5EwPhc/9y3HKqS7iGBZ2F2OG8bA4ZDj/CUaKZ+4O07DTFWqXCzxumIUGVRXOrkxwdX00tI5nSIAEjAQoIBlZNPHROWx5MQahfj7wD38E05d+iMzMTGR+uBTTH+mCgJvbovOD7+KYwgqPEJB2TUNbSUL3hUrLFEY6e3jtHA5s3YANW/Pwi81Xt84W4Oh913DuwFZs2LAVeWYGnX63n2NC3ul30U8MKppA+as7kooYSYJvzCJYlvQ0+G7OHfCRgvB4pm6asqYQywZH4JabVGjf+xnMW7lGbntrVs7DM/eH4uabb0OvGdlwxSOQo9SZngScIeDIoMSZ/HlP6yZgt4B0dQOSVBIkvyew0drvmKYQi3u3g4/UEePX/cLZR627abU67+3vq6vw+VMB8ku8MZn6V1+ejOso0qKEYBOJ1wudUnxMndN8hzl3+CBu6U9Oime2BSTN9mQESxJUD681edYTLxf/KmbMJ43DvKxTcGbxnKkjN/LpZ6x9qjd6v57rRCYurg8nLOAtJNCaCFBAcldtn89EUrAPpKCRWPpNMc5WXkFNTQ1qrlTibPFB7Eyfhzc+PonLCns8QkDa/LT8RsjlAhKA+rpa1Na54IdXweyGDuvrUFtbB3OLit7u4ZiAVPQ2ejSRgITa7/FmjBiw9MFyi0v/DuL1SF9IQY/i0/M6GgffwJ1ikBM9AxuPlOLC5aty27t6+QJKj+7FZwvmYUluOX6/IXi8mQTcR8D+QYn7bGJJLYeA3QISTmBRTzGIvAvzrUxBOrdpAsJUElQPpOGHy+a/Li2HGT0hAUsE7O+rv8PsMPFd6olFJyzl5PpzmqpT+FadinWWgwbZLlA/oyfoGWx2hepy8HVE+sYg9Yizc69sC0hH06Lk59ieC4sMz7iaEjWe6xOBtv5B6D4pHfvOVsOZxXO2QTlyVeeDMy9fXV0fjpjNtCTQCglQQHJXpZ9+HwOEqHDHXBRYeIa8XnUeF66YXtAKSGGY8x2AymJkr56NqfKbgqlIzToMa6uOtD+KizFjgnirkISps1cj+8QFNFykpAu6N3MzTkODC4ezkCrHx5mKdfn5eF/Eabo/TP7RadttmDZmk53xkGrKvoV6pdHe2at3o8xkhZ4uTpBZwL/Tm2ciKWkmRMglzYXDyEqdqvVh3UmTmmo0f13spiTZN5NbASvXGgQtP7lVjhc0rFtbmUHY/Vqegqnl8EYnsXX2VCQN6ybP2pLC7jcwaxAPSVOFU9+qsdgkFtYJq3Vq9KAW378ZA0lqg0EflhpP64+KFiHGV0LQo2r8pm9Ou17S2jNKbSJQam+pR+2/z6OS6pGeIP/3AgL2D0q8wBma6HEE7BeQarH1WbGMxQ9PWJqCVJWH/+kVDB8pAlO+OO/kzAKPw0ODSMBuAnb31ac/xEBfNyyxMjx7jUVC31h0C/9vTN9utzvGhC6O11T4xp3wjXkT39uzvEyOZ6l/xp+AGauyceLCERtL2E7joyEiREMHTNOtX9OUbEHK4HAE+agQOTkdeaf+4wEvEW9AQHJxfRgrmkckQAKWCFBAskSlKc7VHsS8aAlSQBeMSy+0GDTbvFitgHQ3/r4hAy8O7IXIsHa4RcTW8b8FIZ17YOiC/AaBOyuPZOCFweJHMRTBAdpYN7e0C0Nkz34Y/XaumUChC7rXMw1frn8BA3p0RogcH+dupGatxAARp0l1kyye+Pj6aWM2NRoPSYOS9S9iyL3dEN7JaG+7sK7om/g28gybP+jiBJkF/CtaHAt//55I+3I9XhjQA51DbpHLvTv1ex0eO/PXxW7yj13ccKmXlWsNgpZvmybHC/LzFYEHJdyk0vIU8YMshzfahmntboG/n688a0u6SWVgZhIPqfIIMl4YjNhu4Qg1iYXVE/1Gv41ca8qgjkDtwXmIliQEPvIJzHe6LV7eB36SCsNX/2Z4y4Tzn+LRIPFg1hdzshk02/x7xs/eR8DuQYn3uUaLPYCA/QISULwkVv59uMvCFKTStSMRIgT9hGUoqvYAx2gCCbiZgN199e6/4A/iJevAD3DW5TZqUHXuGLJXzcDYhL7ys1f4XXEYO30pVm/ZheJ/O17g6ffj5ee8Di/vdoEwXIRFMb6ImPVNo8G4hfDzysMinqX+GT8AwZ0i0bPf/eja1koMpKpNeFo8A6oSob4sXs7mYv7gLmirUiEyeTXyf6lq5plHev7OC0iurQ+9PfyfBEjAGgEKSNbIuPz8NZRuSME9wT4Iur07eg8ZK781OGZp+zVd2VoBKRB/igxD+7DhmCnHrlmDJcn3aNcyhz6Nz/TLlMQ9lTvwyr1hhlg3aR9mIjNzDVbOfATh/j7wC+2BCetKFDORdJ11QBi6RrRH2PCZWLlGxGXaiP3nirAtMxPLn9LOQAp7ark2ZlNmJrYVXbJKpzJvPgZH3IKbJH+EPzIdS2UbPkTaM/eg7Z9fQa7hIXoTxouHBbOAf8cWdockBSCsa4TC5w+xcb92Tbzd+R9biO4i/+4LTeJKyYZbudZgyeCZfNnnWf2FnRL6zxI8tX/5ZywhOIN8cX1Wfzm91H+WIX2m4YZK7HjlXoTdchNU7XvjmTRtLKw1K2fikXB/+PiFoseEdShpOF3MWOC1AswVYuStjyNTWf8oxYeD2kBSPYj0X/XTj8RawUrsXzYaf1Kp0D4yFgOGPY9U9bc4xe3XjEx55FUE7B6UeJVXNNZTCDgiINVufRZBkgS/kZ/ApDuu2oWUyEBIqhjM3FXhgkGmp9ChHSRgPwF7++omCaBdU45j2aswY2wC+t4Xg2533odBE2di5afbsDf/MErOVqLaqTAKLg7YXLwcffwikGJ8QLYMWFOEDx4Rwo8E1Z+G62KprsHKec+gdwd/3OTT8Jlazui72QgTz8M9F+FEZR7mD41CiMofUVNXI7/sivFlo+VSm/CsfiWCfnb/MHQTIphy9r5YdWFpJYGJVS6uD5O8+YEESMASAQpIlqg00bn6K+fww9drMG9MDEID/OW3BjG9B+Kh51ORdbjhEjO9oBH8wGysyzuJcjl2zVVUluVhXpz4ofgjpu8xGlv8wSC085EQnJCGL4+U4uKVGtTUXMXl8mJ8kzEZEZIPgiJnYKch2KdOQJIkRExejbyT5bh8VcRluooaEQ+opgbfp94tiyFiBpAcs6mmxkbcomJ8kBAClaRC3OzNOFB8FpWyDVdwsfQH5Ow7CWMICFsCkgQpYjJWG3y+gqvy8jcH8rciEsm0rFzT8zYsv76ukX3eOE4rII3bKHhq/zQWF4pfh0Zc3zhOKyCN22hIX6O/ofgDDGrnAyk4AWlfHkHpRW0srKuXy1H8TQYmR0jwCYrEDGMlGSvYcHQNeX+LgCQFY8IXhsqEPNMoUILqwXQo9SNx2++VPyJv4zK8PKQLgtoEISS8G2L7JmDsjFXYbbq20FAKD0jAUwnYOyjxVPtpl2cTcERAQvESxIrB2Z9exbcGtzQoem8w2ovf40dX45drhgs8IIFWRcC+vrppAmiXfjIOMZGdEN7nGbz1YRa27zuIo6XluFxj8QHOgXpxbcDm0g8HoU3HF7HT8ILVsilVO/8i7+aofz7WxlK9issXSnEkdyXGdrAsIJW+2w++Yne7597GW4/EIETExIz8CzafaU7xSPioX4mgn93vB18hgiln74tVF5ZWEpggcm19mGTNDyRAAhYJUECyiKUJT16/ivMlh5G/41OsnDkGMaE3wzcoBJ179MNzauXsIEAvaDz0/m+4pphQAtThm1liZpAPnt6st1U3+0QKwwtbKxqsZa6/cgxpQnTyCcUr+/T36AWkCKTssfxDop0RZOcubKf/iQfbiKVS45H5W8OgOvX1SidsC0gRKXtgFhIKcCR/KyKR7LmVa3reBgFJh8naeT3FBv9vGq8VkMwzAiA/KIgf8he2osIcUf0VHEuLk+s11FhJDbIXJ6pzUxAhSQh9brthGeP59UkIllTot/KUxTdK9bWXcPb4QezeuhppyUPQRSxxDO6Ervc+jFTj2kKL5fEkCXgSAfsGJZ5kMW3xJgIOCUi1OzFNDNx8R2CNfgpS5VeYdoeYDRqHed9VWuyPvYkHbSUBZwnY11c3TQDt8k3TEBPqj/8X/N+4Z8Q0LHTVzGuXBmwuxUdDAtFh8peGZzlrrPe9Eiovm4tLO9bw+bj+MOZ3tSQgVSFrfKD8TBr85y4I9WuL9u1VkIL6YZXFjVisld4U53Wz9nUz+zMzl+MpEUhdOXtfXNtWBOvrHgC4tD6awk/mSQItjwAFpOaq0+s1uFxegsP5u7B+2ThEqnwQFP4I/qno0G0JF0cXaGcGGTWKXZgmr38ehXUWd0C1JDrpBaTuWHjMMgiHBCT9GvaH11oI1myev20ByeKub47kb0Ukkq2wcs0ab2vnzT0yfLYhIO2apg3IPcpyJaHum1nyVGMfozJoyNbkoDoXKWK2Uuh05MjL3arwxYRgSNL9WFpiexeP+rpqXCw7joP7tmPNzAdk0SkkZhZ2KSYzmZTFDyTgYQTsG5R4mNE0x2sIOCQg4Sw+GKicEaxB4eLe8mzgjuMzccb8RYHXUKChJHDjBOzqq5sogHZdZan8jL1ldRpeGDMQPbuKmdeD5Fn/6pxjdsUitUjAlQGbRYzKwCA8sVG5B7OlUs8jY5iIxxmB2fstPePpn+fHY5PJ7XpxToKP339j9KIvkLvoQaikNohdWmSS0v0fdLP2dTP7a2q+R+rdEiTl7H1xzcLuyCa2urI+TDLmBxIgAWsEKCBZI+O28/WovXQKG6eIJUmmO2vZEi70wo5RQDqA18LFQ+xoqK0IAXv/GiK/hTDeo//BcZGAdOA1hIup/KPVjb5JAZwQkBzJ34pIJFerlWvWeFs7b7WJ2BCQDrwWLtfBaOuVhBDB0FhJVoqpRm5KBCSfOzD3IABNDv4SKkGKW4qfLD1bWMzlOq6WH8LCBBUkn/aYnmMxEU+SgMcRsGtQ4nFW0yBvIeCYgFSH3S93kGeOxr9/Gji3CRPCxBv+BCz54TJnH3lLpdPOJiFgT1+t2facHEdMGpqBiy63oh511RdRVnwY+bu2YHXaFAzrFY7IrjHoPfAhjJuxCnm/OlaoK+M1yTPHgx5HpmGDGWu21GL94+IZ/78UqwiUafXP82YCUskK9BW72wXfg5TVefix8nfU//oxRgVJ8It6HQW24m0qs3fLsc6HRp9/TY1xZX2Y5sxPJEAC1ghQQLJGxtXnNSXIzTVdoqYs4qflvWVhQTnzxpZw0VBAKsfqB1WQpFBMyrbwS6QpwNw7feW3F3ML9CXrf3BcJCCVp2OIED9Cn8Bn5tuD6Ys0/O+EgORI/ieWoJew5c9zccBQpvagMnsS/ktcMwuwbY23tfNm2Ro/2hCQyleLNz8SQidlo2EtaVAw9055rXqEsZKM+ZodVe98ER0lX8QsKgIOzsUdPhLilv7UMFhrZQF2FzQsTZtdLbY9f4uZsGhWED+SgIcRsGdQ4mEm0xwvIuCYgASc/WCg3If+4S87ULjwXgT7SIh4MRsV1sT8UjUmxccjXv83SY1SL+JDU0nAXgL29NVH06Lk70/k64UKwTUPqfHxSM1TlqQ9Z/jexKfC5LIyqaXj+jpUXyzD8YP78PWW1UibMgw9OoUjZaelxNbOWYvXZMlea3noz2tnjgc9+qlpAH79ZbP/d7wQBEnyRexSxVIFQ5ojSBObq5htTFP1+VMIkCR0mPgpzunjQtT/BvWjQZB8I/E/3ykUJLlfmgS1oTOy7VOpehLizfou+Zy+X4uPxyRjZgZLrR84IyBZqY+8VMSbt49G+11l+1JysG4xr5BAayVAAcktNX8VBxYPRlRUH4x+VY1Ck53XNKg6noVpsbdCkoLw5OfGlb62hIuGAlIdzq59FMGSD9rdPRHpyqDcNWXIntMPHX0lqGLmYr8hUF/jAtKplffLP+xtx2dZEDzM4NX9hPcSgiD5BCPqseUvmrIAAAAgAElEQVT4RuGn5sJhqF9fjlyDjuGEgORI/lc3IEkECvS7G7MM8X00uLB/OZJ6dJBFGnsFJO2PtoSYfxQpdrAz8135cccL2rdpMf9AkeK3WSSpO7sWjwZL8Gl3NyamH8YFw/UalGXPQb+OvvKuPXONlaTM2fS4ajumdJTg12c5tiyKga8Ug9Qj5iOW0/j8uXvQ9e6BmLh0t9nOazUo/2YZRoQJYTEaaUdMs+cnEvBUAvYMSjzVdtrl+QQcFZAMS4/vfxSPy7OPRuK9EsMPranDYhATOwQpGTkQ5Yi/+YnhiDUdKZvew08k4KUEGu+rq7DxCT/5+feZzVcVXmqfEY2TUcTgPhrj5xu/NxnJcYg2EzAUGdg8VC7lP2RxV11rt/+A+XcJoaYnFp1QpjG3V3nNynFVNia1U2H46t8UwpmVtCLUz6ePys+WbTo/2fAZ/42h6BLQUEDa99dQSJIKD69Vzu2qR+W/HkeQ5IuwF3caVwzIs/OVL5Rt+ySPQxQvYoV4FDskBRm6fi0nZz4Sw2PNREDr/gGXULQtE8Zdi22l1V+zUh/yi1zFbKxG+91SqCdFIy45Q9svz09EeKyDAqXeJP5PAq2AAAUkt1TydfyWl4bh7f3g1y4c3Xs/gCEPPYakpCQ89tAg9O3ZWd6WMzhhAfZXGgNNOyYgid3av8PC4e2h8gnC7T36IGGU2BrzMTw08F5EiqB5wfdgVtY5GDeEaVxAqs2Zjo6SEDzuwkCR32MP4cl0a+um61DxzQIkCIHk5tsQLXaYe0zYMAoJfXog/I8RSM7W/4g5ISDBkfx/wT8fFG9rVAiJ7q+1Y1QC+nS7DaH3DkecCHqq+OETzcAa79PvD5BnDbW5/T4ME/6MGorZO6ysExQZnX4fA4R41eZ23DdM1PMoDJ29Q/sjXV+J7xYOR3sR8+r2HuiTMErXDgbi3sj2UEnBuGdWFs4ZK8lGC63Cl5M7QGrTGVF3+EGKeRPf15onv4qSf01BlP9NCOjYFbF9+2Go3C6SMGroA+gdfRtu9lEhMnkDSu0q0zx/fiYB9xNofFDifptYYssh4KiAhMq1GCFmtQYGIchHhZiZe6D4KTcFs30KAiNSoNyxu+J4DnKOV5im4ycSaAEEGu+r9TF6YrHEZGKNmXhRugJxUgLSFV+T6rIC5BSUwYpUaye967juyKZshoDNz2KryfOWmb12lK7J+QtCVf2w8pTxud/WbfWV+7EgIRiSyTP+KAx94F5EdrgVN/ubC0glWN5HxE3qiYVFZmVUbsKEDhJ82k9Gtv5x9gYFpO1TAhGRkquojwocz8mB9a7tAFYmiTGC/m8MHh01CqNGa8dHhvMzN+O0NTDW6sNcQGqs3y39CEMCE7CsTNeaKrKRHBGCFIemuFkzkudJoOURoIDkpjqtr72Ak7kbsexlsfuVCj6+fvD394efrw9UAV0w5OV38MVx093TrAkawuSGM5DE2d9RcXI30mdqy7hJJbbGFNti+iP0/mQsyyrArya/tI0LSKj6EeumdkeASoKcn18btH/+S8UPhBnA3ytw/It35O3iA1Q+8PUTNqjgH9AFYxZ8hkOG3dmcEZCEi/bmL8SmZRgT7i/HppDtuPkWdBmzAFkFX2G22K3CTgGp7vxepD0SCn9J548qAHHLj5s5rvhYdx570x5BqL+kq2cVAuKWQ3/H7xUnsTt9JoZ0CYBKt12paAf+ofcjeVkWCkwrSZFxw8PLWyehg+QDHx8JMW9+D5PnGV3y61VlOLRjDeaNiZFt0rYLf6hukuAfGoMxb6xDfpnlXfgalsgzJND8BBoflDS/jbTAewk4LCDV78ffxe5BQkTqOB7rfrGhxhfMRURgOOZwYOK9DYSW202g0b7aagBtM0GmWo1EKQQjHVoSZbeZ9ie0GrDZzN5Gc9Rgb0on+Ny/FI3se6LI6XdU/JCJNx7pYnwmF8/X7XsjedlnWPqYeGmqmHVzXo3RYlZSh2nY2eDh8DK2Pd8RktQOY9brYk7coIBUMDcCgeFzHFhWuAXP+osxQiN/sYth7bU1rNWHuYDUSL9b+tEQBEbMhSHCB6qhTpQQt8Kwnk9RDzwkARKggOTONlBfi0tnxe5XudiWlYlMsT1l1jbk7juI42f/A/PNWs7ka9PkW5hee6lom3x/w2vXUVUuyvgaWzZo78/athf5R8twqdbsDYR+umjmNhQZV86ZEanHlTPfY9/2LLm8DVu+xr4TFQ3j7Cjv+v0/8nbx+77egg3Cxw1b8PW+gyj5d61imq5++858KN3T+7XNukGAXfkLsakSJQf2Glhnbd+HgyX/Rm29bpqs2dag1nn/jorifOzaskFmIHgePG1xqzsDhd8riuWAjbL/Wduw9+BpKO+4XlWuW4evzVO0g735R1F2ScnIkJ31g8tF2KbbAnXPzw2eEIz3Xb+K8yWHkb93h6FdbNiyA3vzD6PkwjVFvRhv4REJeCqBRgclnmo47fIKAg4LSKjEsWzdb/pXRbhs/lOr9Lq6DAXzExASrY2B5FiMEGVGPCYBzyfQaF/976PIFs8wW34wC6BtLshU4HhGMrqHx2pjhzXTkk/NL3lYL+zd94vZc7C5vY3UjeY7zLnDx3LcSlu31l/DheKDMHm+/vaI/Oz42yHxnK54pq46iZ0W2WoLqDrxlfxMu+2YLrbEDQpIYkbY/IQQRMsxkOyJIaQfB+j6Tt2zrDw2Uh6bPasr8VitD3MBqZF+V34pn6g2eTkuC2JTtiuL4zEJkICOAAWkZmoK1zU1qBHbU2qsz53Vp7GUpL6uVr7f0jWtS/Woq9WW0XiaWtTZeuAVGV7XyOXVNppQAbS+DrVWt+DUb9+pgZKA3i+7yrGZv9GOhhx1bMy2Bm2YzpiHONLbZp2naXro7bNxgz5PW+3ALFezj3qONbBRjOIeY7uwi7HiTh6SgKcQaHRQ4imG0g6vJOC4gGTsV+3qyyuO6+JsJCBQHhDbM9jySpQ0upUTaLSv1j1bNtyq3YIgI0QAEV8nIxkRIdGykORuHcn6M5sFe23V/cHXEelrKW6lrZsU1/TPl4rnWK1timdqC2kUORie6w191g0KSCJveTmuiOuWEIjw2PgGQbZNyofx+VUeD4nxgqU/hY+m9xufyw0+6BOYC0ha46z2u7KAZAy4Jedi6Zw+e/5PAq2dAAWk1t4C6D8JkAAJeBmBRgclXuYPzfUsAo4LSE7arxOS5MHWWO7E5iRF3ubBBJzvq20IMjohKSM5AiHRnhLo2Ia9FuqnSGx8Ej0PB21MHLdwW9OecoGApDdQKyTNR0JgOMY2x7JDSwKS0Tjt5gVC5NL1u9XqREhxK0x2w5RjOtmxI7I+W/5PAq2JAAWk1lTb9JUESIAEWgAB5wclLcB5utDkBNwmIOk8qUhPgBQ4BVws0eRVywLcTMD5vrpxQaY6NwURUhw8I0xN4/Ya0RdhyT1+iPhbnmJTG+PVZjtyoYCk9aEC6QkSAptjGZgtAUkH2KTflWMkKfvgUqyIk5CoNgkc22xVw4JJwNMIUEDytBqhPSRAAiRAAjYJOD8osZktL5KATKDpBCSxVbT5so5SqEeGQEpIh2KDKdYECbQIAs731aaCTF6qiBlmOtsob054gx0Nmw+aqb027dCcxXebMrGz2MPEiRsRkErVmBQfD5OYbqVqjAyRkKDcOs8mGBdeNBGQ7Oh3q3OREqEI0p43B+GBprv+udA6ZkUCXk+AApLXVyEdIAESIIHWRcD5QUnr4kRvnSPQdAJSNcoKcjA/MRyxcqBZMSiORXjifORY3+vaOSd4Fwl4AAHn+2pTQUYsicpIjtMFaNYGoI+OS0ZGQZlJ4OPmc1lrrz44frzu+20iqOiN08Umsi9upf4mN/xvRUCy5pMcI0i/m7G8rHA+EvVBzoX/seFInJ+DZunaTAQke/pdkUZhf3QckjOOU9R3Q7NjEd5JgAKSd9YbrSYBEiCBVkvA+UFJq0VGxx0g0HQCktYIfaBZUY781ywjLAeAMCkJOEnA+b66AsdzTMUHscuX4TsjvjseIx4JOFp7TezLyUFBmYfNMrJVj7IIVACjybZ9kuvDpA4apm+2rk2OL2cqADXe7yrtV3KwBY3XSKB1EqCA1DrrnV6TAAmQgNcScH5Q4rUu03A3EhCDwIyMDDeWyKJIoGUSYF/dMuuVXpEACbRuAhSQWnf903sSIAES8DoCHJR4XZV5lcEUkLyqumisBxNgX+3BlUPTSIAESMBJAhSQnATH20iABEiABJqHAAclzcO9tZRKAam11DT9bGoC7KubmjDzJwESIAH3E6CA5Abm33//Pfbt28c/MmAbYBtgG3BBG1i/fj1mz57tht6bRbRGAp999hn+/ve/87vqgu8qn31a97Of6KufffZZfpf4XWIbYBtgGzBrA+Xl5V77iEUByQ1VJ95mZmVl8Y8M2AbYBtgGXNAGPvjgA6SkpLih92YRrZHApk2b8NJLL/G76oLvKp99Wvezn+irx44dy+8Sv0tsA2wDbANmbUDM0PTWfxSQ3FBzly5dQkVFBf/IgG2AbYBtwAVtoLCwEK+99pobem8W0RoJfP3113jnnXf4XXXBd5XPPq372U/01TNnzuR3id8ltgG2AbYBszZQU1PjtY9YFJC8tupoOAmQAAm0TgKMq9E6691dXjMGkrtIs5yWToB9dUuvYfpHAiTQGglQQGqNtU6fSYAESMCLCXBQ4sWV5wWmU0DygkqiiV5BgH21V1QTjSQBEiABhwhQQHIIFxOTAAmQAAk0NwEOSpq7Blp2+RSQWnb90jv3EWBf7T7WLIkESIAE3EWAApK7SLMcEiABEiABlxDgoMQlGJmJFQIUkKyA4WkScJAA+2oHgTE5CZAACXgBAQpIXlBJNJEESIAESMBIgIMSIwseuZ4ABSTXM2WOrZMA++rWWe/0mgRIoGUToIDUsuuX3pEACZBAiyPAQUmLq1KPcogCkkdVB43xYgLsq7248mg6CZAACVghQAHJChieJgESIAES8EwCHJR4Zr20FKvsFZB+PboHe/bswdFf7fFcgzOHtekLS6/acwPTkIDXE3Csr65CyQHxHTmAkiqvd50OkAAJkECLJUABqcVWLR2zSqCqBAf27MEe+576rWbDCyRAAs1DwLFBSfPYyFK9l4C9AlLhknhERUVh7NrTjTtbug5P9ohC1H3T8cVv1xtPzxQk0AIIONRXa77G3+6OQlTUy/iSGmsLqH26QAIk0FIJUEBqrpqtuYSyY/ny28s9ewrxY0UVNM1li6vK/fWo1h9PF2Z+TEdiVBSiZu10lefMhwRIwI0EHBqUuNEuFtUyCNgrIF3MGApJkvCHv+xuxPEq5M3pjkBJQsSL2aioayQ5L5NACyHgUF99NA1RkgQp8nUU1rcQAHSDBEiABFogAQpI7q5UzQUcVr+KxwbG4d6YbvLby6io7ujVpy8Sxr4G9ZFKd1vkuvJ2ztL64+nCzLGF6C4eUsZvcp3vzIkESMBtBBwalLjNKhbUUgjYKyDV7/87wiQJPvevRKkt54vTkRDiCyloJN4rqbaVktdIoEURcKSvPv/JSPhJEoKe2QxOQGpRzYDOkAAJtDACFJDcWaGaEmxJGYoe4e3g56NCQKcYDBoxAiMGxaBTgAo3+bdHeMxwpOZ5qYi0abz8NtbjhRkKSO5s9SyLBFxOwJFBicsLZ4YtnoC9AhIq12KEeBkROAXbrVKpxI6XOqONpELMzD2o5MwKq6R4oeURcKSv3jP9j/IzZP9VdiwJbXmo6BEJkAAJeA0BCkhurKrSdUno0lYFKfgevPzhduzbfxhFJ0/iZNFh7N+9EcvGRUIlqRAS8yK2nHOjYa4qigKSq0gyHxIgARsEHBmU2MiGl0jAIgG7BaT6/fh7mARJisMKK1OQNEWrMKidD6SO47Hul2sWy+NJEmipBOzvq0uwvI8PJCkMs77hGs+W2h7oFwmQQMsgQAHJXfVYtQspkYGQpI4Y92EBzlaZBdGsr8WlUzuRlhAMyScYvdIKTGIiaXd7OQrtZi8aVJ07hnwRCDr/GM5V2Y6epKmqwI+Fut1ffryEGgs+W81/TyFONZK/ITsnBaSaSz+iUPiyJx/HztkRC6rmksGf/GPnYNs8U1blwnnOQDJUGQ9IwBsJ2D8o8UbvaHNzE7BbQMIVrBslBKRATLE4BekcNj17hzz7KO6tg7jM2UfNXbUs380E7O6rqz7HUwESJNUYZF5xs5EsjgRIgARIwCECFJAcwuV8Yk3OdIT6SJBi5mC/1afI31Gx6xVESxJ8I1/HQUVxO2eJnSlSsOXUbiydmIC+98WgmwgE3S0G9w0YjVe3lJgITtpbK3Ek42UMG9AHvbqL+6PQvVccBj72BnacMRWdtPnPwlcXDkP96mgM0Ocf1R2xA0bjbXuW1TkqIFUeQcbLD2FgXC90F75EdUPMfX2RMHEpcs3sk/3RnEHu0ufx0MA4gz/dYu7DgNGvYkuJqT8ivebCfqwyY9V74GN4dd54/JkxkBSti4ck4F0E7B6UeJdbtNZDCNgvIAEFcyPkZTdxFqYgaQrS0CtYzD6aiI2//e4h3tEMEnAfAbv76h/m4y7xXHbXW/jefeaxJBIgARIgAScIUEByApozt/y8Ig4+koTIOftRayuDazswtYMEybcf3lVMid80Xrzl7IC7YruiY0AAQmMGYcSIQYgJ9Yfk44d2XQZjQX6VIucq5L89HDFhwfC9ORhd40ZgxIgRiOsajJv9OuCuhGUoVGgu2vw7oUe/Hghvdys66vK/u71Kzj+0z0IUKNIrCjIeOiIgVeXj7eExCAv2hY9/KGIGCfvi0EXEggroiKj+c7DLJBTUKfxr8v2I6hiENkGdTNL7+LVD1HObYLLqryofC4Z2Q6eAmyD56/wXsaaCAtEutJ0cqNHjYzUZyfKIBEhAQcDuQYniHh6SgL0EHBGQqtWJsoAUOCnb7CVOKdaN7ghfKQgJS45A+etsrx1MRwLeTsDevpoBtL29pmk/CZBAayJAAclNtb19ili+JuHRTxvbW+InLOstxKI/Y+4Bo3FagUeC6k/DMW/NDuQfLsLJk0U4nL8DH07Wxk4KfWK9UUQpTseDoSoEJ7yB9bvyUHj0JE6ePImjhXnYPD8BwaowTNtpfKTV5u8Dvw4DMFOR/6Hc9zCuoxC0euDto0Z7LB45ICAVpz+IUJUEVeRkfLgjH4eLhH1HcXD3RrwhlvHd1B7dZ+1SPHRX44flU5C85FNs37dfkV5rn09wEjLPG60y5j8O72zW+W8Sa4q7sBlp8YgEvIuAvYMS7/KK1noKAUcEJBTMRYSYOXHv/+InhQNVeXPQPVCCFP1X7KpgTBcFGh62IgL29tUMoN2KGgVdJQES8HoCFJDcVIV6AajxneNP4/0BQkBqj+k5RuP09z+49CTOX1XGT7qOqp+W40GVBOnW5/GVbpZQ0dJYtJHCMHrJBmzfrY1/tEeOM7QHOzZOR4zkg9BX9hkKMOS/qAjlyvzrL2Pjk0GQJD9MzjYkt3xgt4BUiNToNpCkaMz44heYhIOqr8WFA2/iAZUEn/aTkW3UuPB7RRnKKmug977m0m8oO7Ids2IFrz9i+h69WUVYGivy74iJ6lP4j3LlgIg1tesVdOYSNj0s/k8CXkfA3kGJ1zlGgz2CgEMCUvV6PC5+fwOexZeGWbrFSE8Iga8UjNEflYKhsz2iWmlEMxCwr69mAO1mqBoWSQIkQAJOE6CA5DQ6x278bk6YPAOp37uNbU9ahLd7CEEkEm8eMpahF3gsClD1BZjbWdzTB+/8LO6pwsYn/CBJAQiN1MY+EvGPjH9/wq2SBJ+nNxsKsJX/oTcjZdstlm3IAYC9AlJVJh73lSB1mIodlp6s644irafw5z7874/KAjS4cCIbq2dPxaih8XggrjfujemGP90q0vrA4I7mC0zwE/lPxpcKAcqQE4NoG1DwgAS8kYB9gxJv9Iw2ewIBhwQkfI+37hK/QVFI083SrdzxEjq3kaCKmYXcSkbO9oQ6pQ3NQ8CuvpoBtJunclgqCZAACThJgAKSk+Acva1y3SioJAlBT29SLMuykMu5j/GwvBPF41hfbbxuS+ABjmFhd/EA2x0Lj4l7ziF9sPgchC79tbGPRPyjBn+L8gwF2Mr/2MLurhWQzqVjsJgB1DUVPxgsUB5U4dNEpT/iWiUKlo9Dv56RCGt3C1Q3+SM4JESO7dRLLLGTJBgErv+swyiRf+SbUGhwxgIoIBlZ8IgEvJCAXYMSL/SLJnsGAccEpKvYkKSSZ+k+sbEK0BRh1aB28JE6Yvy6Xzj7yDOqlFY0EwG7+urvZiNMPLP1XIQTzWQniyUBEiABErCfAAUk+1ndUMr6UyvRT0xzbzcCGRZ2DNNmrkHRiv7y7CBVv3fxi6JEWwIPqrIwXsRaUOlFp1p8/qR4oG2Lcf93VI59JOIfNfj71Tg9x1b+LheQaj/Hk4JF4HhkGU0weqv5DrPDhSh0P1ae0p0uXIy+t90Mvz8Nx8yVn2Jbzl7k5efLsZ1WPWImINV9hifEw0jAU/jcUv4UkIyseUQCXkjArkGJF/pFkz2DgGMCEvD9W3fJLzHumv8DKr+ahjvE7KMH0vCDtR1XS9WYFB+PeP3fJDUUe2Z4BgRaQQIuIGBPX336w4HwlSR0mLZTsclMHlLj45FqfM8JQHvO8L2JT4XJZZRCPcn4vTK91wXOMAsSIAESIAGZAAUkdzWEurNY+2gwJCkQXRKXYf8FQ7AEnQUaXMidjwG3a2P3jM88C2XYTb3AM2hlGWpMbK5E3hu90U6SoBSdyj8ZhSDJF2FjPsARk93MtDfX1Jjmos/fMItHUYbLBSSU45NRIq5SO/R+Iw+m5mlQsm4MwsQSt+h5OKjbsq703X7yA8aABYdRflkRB6k4CxMizQQkFGFhjDjXDiMySsx2xqnEkWXD0FYITJacVfjNQxIgAc8kYM+gxDMtp1XeQMBRAenq5mcQJEnwm7BEN/soAlO+OG/yG27wW4hHsUOQkpEDUY74m58YjliOdg2IeNByCNjTV+94QTwPShiacVHh+CaMV84sl8WjaIyfb/zeZCTHIVohvualxiI8cb72e5WRjLjoSVBTmVUw5SEJkAAJuIYABSTXcLQjl3pUFq1FcqQKPjffhm79RuOlxWpsE4Gtt6mx+KXR6BcVApWkQmTyOpw0e3OpF3hujbgXQybOxuos7X2pEwciOkQFSRWJKZuNolN95R7MjFHBJ+h2xAyciNmrsyAH0RZlzRiLIcMXo0ChYenzt6SpOCwgDZqvLUsXtFsfvHvPngMokWcE1aNyz0zEiF3YQqIxcGIq1NtEoO8srHppNPqEB8nT/8d9Ygw+ekmdKC8B/GNcMhart2HPnm1Qp07EkF6d0VbMZjJ50KjFyfeHI1iSEPjnPhj90ipkCVuyVmP2xIGIuV3kTwHJjkbLJCTgkQTsGZR4pOE0yisIOCogoXgJYsVvSofbcXsbCUEJy1CkWIJu4vT2KQiMSEGu4nrF8RzkHK8wScYPJNASCDTeV5dg2X3iGS4Crx1QxgszE5BKVyBOSkC64mtSXVaAnIIyaL9KeUgJiUByti5BdRmWJQRiyEdUkFpCO6IPJEACnkWAApI766P+Csry0vFy7/ZQ+fjh1tBw3CmCW98ZjtBb/eCjao/eL6cjr+wKlD+jwkStwNMBMb3DERDQDmGdtfeFBNwESfUnjF6yE2VXlHddw7l8XVk3BaBdWGdtEG1RVnAQwh75AIevGp13qYB0658UAbuVwbsTka4Pin3tHPLTX8Y9wRJuCghB+J0iXWd0Ehz8wzFm0TacUoho9b9uxZRIIZTdgtDwOxEVdSfCQwIQED4GqdP7mwlIQN3Fo1g7NQr+kg/8bu2EzoJz5zC0Cw5B75cnoD8FJGPl84gEvIxA44MSL3OI5noUAYcFpNqteDZI+yJDUsVg5q4Ky7OPhJcFcxERGI45pmtvPMp/GkMCriLQaF9tCKCtD8GgL9lMQKpWI1EKwUhrU4ryUhAiJUKtEGYL5kYgcMp2fYb8nwRIgARIwEUEKCC5CKTd2Vyvwtkj32L7pyvxj+lP6wJbP43p/1iJT7d/iyNnqwzb1Cvz1Ao8kXgl6wB2fLoS85LHyPc+PX0pVm/Nw4+Vyr3qdXfKZeVi6+qlmKVLP+Lp6Vi6Zju+O3keV68bS8hbpA2yrYirbbh4KnOaXJala4ZE4iBvUcNA3SbBu6chUx/TCMD1qrP4IWcLVi+djqfldGOQPG8lPt1xACXm/gjxLX8rVqclY4xIOyYZ895bj10HSnBx10IL9tXjyplDJqzGJM/DextzceTsd/ho4giMaNQhE+/4gQRIwEMINDoo8RA7aYZ3EnBYQEIx1j6n26jir+vwi6XdRfUoqstQMD8BIdHaWC2TrA2I9en5Pwl4MYFG++qf/4UXxTPds/9nFkDbTEBCBY5nJKN7eKw2dpj5kk+xC3DEXBQoWFWrEyHFrWB8MQUTHpIACZCAKwhQQHIFRSfyuF5zGRfPluoCW5fi7MXLqFEIOuZZagWkACR/BYh7L5T9JN9berYS1XXKmUfmd9ajrroS5br0J0vPolKpHOmSV/2qDbKtiKttyKj2otZOS9cMicRB1a8NA3WbBO8uxUVdTCPDffV1qK48i1I53U8ou2CDg0h7sQw/ibQ/leFCVa12ppauXEv2KVn9VHYBVbWCVS0ulp7ESUs3GAzjAQmQgKcSaHRQ4qmG0y6vIOC4gKT7TRG/TecuN5hB3MDpiuPaOC3zExAoD4gZq6UBI55oEQQa7auvXkCJ+N6UXlQE0BaumwtIAIT4KuKGZSQjIiRaFpIMOpIQkLovhLwRsZ6cpXP6a/yfBEiABEjAaQIUkJxG594bbS0xc68lLI0ESIAEmpdAo4OS5jWPpXs5AccFJCcd1glJ8xMCET6WO7E5SZG3eXCf+5cAABPtSURBVDAB5/tqCwKS3k+dkJSRHIGQaN1ObPLS0ClQLlgrXREHKVGti5Gkv5n/kwAJkAAJ3CgBCkg3StBN91NAchNoFkMCJODxBJwflHi8azTQAwi4TUDS+VqRngAp0HTw6wEYaAIJ3DAB5/tqGwKSzqrq3BRESHFYIeJkyzGSdMe669unBCJirnJR2w27wwxIgARIgAQAUEDykmZAAclLKopmkgAJNDkB5wclTW4aC2gBBJpOQCqFelI84hVbjwOlUI8MgZSQDsUGUy2AIl0gAcD5vtpUQMpLFTHDdLONdGDz5oQrdjSsQLqYyaePTl+qxsiQCKQotztkhZAACZAACbiEAAUkl2Bs+kxsBblu+tJZAgmQAAl4DgHnByWe4wMt8VwCTScgVaOsIAfzE8MRG68Noh0fH4vwxPnIOU75yHNbBC1zloDzfbWpgFRxPAcZyXGINnxv4hEdl4yMgjLDErWK4xlIjtPGRoqPDUfi/AKUKXZlc9YH3kcCJEACJGBKgAKSKQ+P/WQryLXHGk3DSIAESKAJCDg/KGkCY5hliyPQdAKSFpUYDIsyDH8Uj1pcG6JDWgLO99UVOJ6TA+VXo7qswPidEd8fhXikLU0r0Oq/V8p7WR8kQAIkQAKuI0AByXUsmRMJkAAJkIAbCDg/KHGDcSzC6wk0tYDk9YDoAAnYSYB9tZ2gmIwESIAEvIgABSQvqiyaSgIkQAIkcCNxNUiPBBonQAGpcUZMQQL2EKCAZA8lpiEBEiAB7yJAAcm76ovWkgAJkECrJ8BBSatvAk0KgAJSk+Jl5q2IAPvqVlTZdJUESKDVEKCA1Gqqmo6SAAmQQMsgwEFJy6hHT/WCApKn1gzt8jYC7Ku9rcZoLwmQAAk0ToACUuOMbjjFhg0bsGDBAv6RAdsA2wDbgAvawJw5c/Dwww+TpQtY8rep4W/zyy+/jCeeeILti+2LbeAG2wD76ob9C/tcMmEbYBsQbWDfvn03rDE0VwYUkNxA/syZMzhx4gT/yIBtgG2AbcAFbeD48eM4dOgQWbqAJX+bGv42Hzt2DIcPH2b7YvtiG7jBNsC+umH/wj6XTNgG2AZEG6ioqHCDCtE0RVBAahquzJUESIAESIAESIAESIAESIAESIAESIAEWgwBCkgtpirpCAmQAAmQAAmQAAmQAAmQAAmQAAmQAAk0DQEKSE3DlbmSAAmQAAmQAAmQAAmQAAmQAAmQAAmQQIshQAGpxVQlHSEBEiABEiABEiABEiABEiABEiABEiCBpiFAAalpuDqd68V9izD2RTVKnc6hpdxYg0u/VaBK45w/eanxiI+fBHWrB5mH1Ph4xE9im3KuJfEuEiABEiABEiABEiABEiABEiABQYACkoe1g99/XYek2yKRsqvK5ZZpRRUhrFj7S0Wey0sFGhNzStWTZJtSFYWXqicgrncfDJizC86Q2DRegiR1x8JjzjjUkkSXTRgvSZC6L4RTKJzBx3tIgARIgARIgARIgARIgARIgARaHAEKSG6t0hpc+rEQWUufx0ND4hGvVEz0dtRX4otJndB+cDqK9edc9H/F8Rzk5DT8U6fEQCVJUMUtx48uKkuZTWNizrGF3SFJEsZvMt5Vvv5xBEsqdJi6DVeNp+0+aqxM2xm1JNGlJfliu9Z4lQRIgARIgARIgARIgARIgARIoOkIUEBqOrYNcpZn1fTqjs4dg+DrI0FSKiaK1FXfvIroNtFILVScbKrDyh1IiQqGjyoS07b8ht+boJzGxBxLAlLdxZPIy8nFtyWVqHfCpsbKtJ1lSxJdWpIvtmuNV0mABEiABEiABEiABEiABEiABJqOAAWkpmPbIOfqsgLtDKCMZESIZUVWBCRcK8DcaF/c+UZTK0hVyJ/fG+18JEQ8tx4/Vzcw2SUnGhNzLAlIN1pwY2Xazr8liS4tyRfbtcarJEACJEACJEACJEACJEACJEACTUeAAlLTsbWe87GF6G5LQMI17JjaAb59V6DEei43fEVTuAQPhKogBY/GBz9dcWqmjz1GNCbmWBSQ8lLluEiTzKNg15Rh99KpGDXUchwn/apAbZkP4+NLlTiSlYrnHxoi5zd01FSs2n8BtmNzWxZd5FhOIhi1iQ1D8NC417ClRORoVtbY16A+UmmKSPZrAj4uqUHZ7lWYMXaoNibV0FGYujQXZywYVlO2G6tmjNMue4zXlqc+bMEHC3apD2/Byx3MYyDVoPxYDtSLZ2DCKF358UMxamoqsotrLNgrgpHr7B33EIaIGFrC3lX7ccGCvZXF2Qp74yGYp6q/M/VN2LpqBsbp6mXIQ+PwmvqwxfxMDeInEiABEiABEiABEiABEiABEiCB5iBAAak5qDcqIAEXM4ZCCngKnzsTQdoenzQlWDv6NqikYAxfcgiVttaJ6cQc68G3rcRz0tnhlIC0abwcF6m7Mgq2pgTqyX3R9Z7xWLR+G3JytuHT1JHoKEkIHr0UO3JycLxCW6i2zD54/KXHkZL+JXJ25yJn2xrMjL8NnXq9gE3nbEGyLCDJeQb2xLAnnsPCT7/E13tzsO3T1zEstD26DE5B6iuP4qn5n2Drzlzs2PIunu8eivB7Z8EkHrrsVwDuuv9hTHzjY2Tt3KX1Y0ESov47Cve/vAVK06oKV+HJvnFInPUuNmzPQc6OrVj7eiJ69hiK+XkKcaoyD6kP34uuXR/Ca2u2YEdOLnZuWoOFUwYg3M9cQLqEnNcGYXDyP5Cx/kuZ2471KzA+JgSR8W8hT9nmZHsD0XPYE3jq1XRkfb0buTnbsGZmPG7r1AsvmIH8dddrGN6rG+LGLcDarTtk39a/8wJGTtuCs/o2VlWIVU/2RVziLLy7YTtycnZg69rXkdizB4bOz4PCK1uVxGskQAIkQAIkQAIkQAIkQAIkQAJuJEAByY2wDUXZISDV7/87wqT78L9NEdUaQOm/xqFLoAicPQ/5F+sMplk8qDhuMfi2SUBuvXJjIQOtmBOI8FjLs4ZiwwMbBNGGBQFJs3c2IoNuwciVx3Cx5jqA66i5eAxLElRQhf0d3yrK1pb5Z0z6vz0oKq9GnRAvrl/Fr2seR5BPMJIyzytSmx/aEJCkzkj++ABKK2sgW1BzHltfCIOkaou4v63D/tJKCNPq6y7jp6WDIPm0x4tfK6bp6PyKeH4tDpVcRLXWMNRc/BEfT+wIn+BeWKhfuagpxJL+ndBh1HIUlGnzRX0dqssPYfnIPyAk4QNdoHUNChffjxBVR4z78BDKq+vk2WTXaypRdmQRHmywC1sdLp7Mx4Hicly+pk1bX3sJJ5YlQOUbgvGfKdjo7L3t6XTkF5832Hv11zV4PMgHwUmZMKQ+twVTurfHzXGv4auTxrQ1ladw5GSFLr6WBoVL+qNTh1FYXlCGSrke61FXXY5Dy0fiDyEJ+MDV0ePNq5efSYAESIAESIAESIAESIAESIAEHCZAAclhZC64wQ4BCUcX4G4pEFO2u6A88ywqd2D6XUHwUcXgle1NEzhbWaRWzIlAckbDHeCECJWRHGGXgPTzijj4SJF4o1A/lUWUUo+CuZ0h+TyNzYpCtWV2xVvfC5lH8e/Qm4iUJPRackJx0vzQloB0N/5xRFk+UJ4+RLY/cZ3pMsD6PTPQQZLQ552fjQXoBJm7Fxw1ntMdVX05GR0kX/RdoV24qNn7N4SpOmBClnkg8XqUrewPqc0orBPqjWYv/hamghT9KvIum9oGWPalQeGCZMFcdJYkdHnjkPGyzt6u8w+bLXE8hDcjJUi9lkBPsnT1MAT7BGFUxhnrwdh1tnaYkNVg1lt92Ur0l9pglOyU0QQekQAJkAAJkAAJkAAJkAAJkAAJND8BCkjNUQf2CEi6NNbibDtvdiVy58RqA2dPycK5a87nZO+dWjGnO5Sr0ZT3WoyBpBMulEvYyjOGQiW1xZTtihk90GD7lLaQOs7EN4pMrZap46rMV3Gb7tCy6GItz7rPnmgogImcfkhFV0mCSVkW/DKUr0sfkPyVfEormPnh9p4NZ271vasdJOk+LBMz1H5egTixq99jmWhYnZZ9EQVoqk6hcJsaK2dPRVLSKAyNDUegJMFvcrbBJEszwbQXj2Fhd9OlcduniJlk5gKfMSv5SGer3+09tbGfRDwl/V/fu9BOknCf7JTZffxIAiRAAiRAAiRAAiRAAiRAAiTQrAQoIDUH/mYUkDSFi9G3gy+kjuOwpsTObdc8JAZS3dnNmBLph5D75yC7TAR7rkFZ9hzcH9IWCUsOwTR0jwRJsiBaNYGApBdZGoh9lsqyJSDp0qsmbpVbpVZYC8Pkf1qeuZWTcxBnrgKw2Z4sCUgalGx5FaMHxOK+Ycl4a9FHWLtpE778p4XdAa3a21BAsiawmXzFdLaGTf6n1WWRB2WnTO7iBxIgARIgARIgARIgARIgARIggWYmQAGpOSrA5oBfZ9CRNERLEZhb4EIDNUX4YJg2cPbod0+iwWona0W5JAaSBTFHV569M5BQfxpbX7obQeFxeGTAQMTHD8SAQQkY90Ymfqj43cR6q2KGjr3JrCCTO8UHS6ILYDVPnchyowKSZvsUtJUk9FykXRR2SZ0IlRSA0WpDlKEGlsonyj9CgohzNFptIqJpE1vwpfifeKRLO/z5iXew48BxlJVX4kpNLeqOWtgd0AEBqWCuWIr4X3hln2Uz5bOX1EhUSQgYrTbGTrKRnJdIgARIgARIgARIgARIgARIgAQ8gwAFpOaoBzsEJM2XzyJASsBH5a4zsPRfT+CONhKCBqThO5vbrrmuTJGTVeFFV4zdAtKBBegTFoYx7+Xh4L5c5OTkYt/+wyi5cM0sPo+NMj1WQKrEV893kuNSvXmwViZT/+vHGBUkITh+JYqUq/bMq6fuCBbeo4IUOgnZ5luYaT7DWPMg2tueQxtJwiNr/iMHAtdnp/n+TUSLtEolzAEBqTo3BRGSL+6cnmt9J7X6X/HxqCBIwfFYadMpvVX8nwRIgARIgARIgARIgARIgARIwBMIUEBqjlqwQ0A6mhYFKWwWvmlkgzS7zT+3Bc/LgbPjMDfvgvUgx3ZnaH9ClwlIv+Uh7cEQ3HbfEAzVx83R/T901FSkZh0xCBdWy/QQASmwaxKW7j6FKiEM1ZSjMH0i7m53M6KmfYZf9IGM6iuxf8FwtL/ldgxIUaOwXCzbE7GLzuFY9ipkFupVpVqUfT4FkX7tcPfEdF06DapO7cbbE/qjc5BprCJ8MxMdJQmRKbshZ6mpwqndSzF55D3yeWcFJFSX4F/JkWjToQeS3t6NU1rnUF6oxqvPv408WdyqR+X+BRje/hbcPiAF6sJyyF5pqnDuWDZWZRZC75X9LYwpSYAESIAESIAESIAESIAESIAEmpoABaSmJqzPv1SNSXrRQxesWAqJNgQQTs3TJxT/n8Oah/wQ9FQWrihP38jxzmkIFoGWfdrhrjhF4GK9TfL/k6AuvZFCLN9rVczRJbd3BlLVt/9AfFg8Zm/ei705irhA27Lw7nMxCOl8L17P08oPVsv0EAEp5i/p+OD15/FYQjziH3gAcXHDMGXZZ9h/xnQnt98rTmL3x/MwbtBA9I9/QG4v/QY/iNFPvIC3d541AK+/Uoa8j+dh1H13477eDyB+yDAkzViOzC93I22ImYBU9SM2vvEIukf2RO8H4jFkWBJmLPw/fL7nY7wQ5vwMJLEj3pWyfGxcNgMjB8Xhgb795GWGgwaNwMMvvofCyzpzf6/Ayd0fY964QRjYPx4PiLbXbzAeHP0EXnh7J4xeGdzjAQmQAAmQAAmQAAmQAAmQAAmQQDMToIDkrgqoLkOBUvQwOz5eoTDknBqJtwbh8Uzz9UiKNI4e2hPHKKcAZXbG1Xak+IrjQuyxnnd1WYEcUNmEgc7eAoNB5/HZ0x3hN3glzpiGOwKua/CfHLF8ygdxK36WTbNapq4ejPla8qQCx0X9FJRBicNqnjpbTewX2VoqS7ckrNfb3+N8yWHk7xVsxFK8oyi7VNtgKZ7I5vrV8yg5fAB5ctoc5OzNw4HDxSir1M5I0nsg0hUX5mnFtdx92H+0DJdqr+NCkbkv9bh2oRiFeXtl7rn79uNo6UVcvX4FvxzIQY7SkQb1oC+tGmUF5vmKa/WovXQWx/V2CN++LcTR0vO4el1/r+yU7P8BnQ05OXuRd+AwissqtTOSFEl5SAIkQAIkQAIkQAIkQAIkQAIk0PwEKCA1fx00sKD43f64teMkbHWhftSgEK87cQJLekmQRq3DfyzYfu6TRxAoBeHJzy9ZuOpBp6zGFPIgG2kKCZAACZAACZAACZAACZAACZAACZgRoIBkBqTZP2oK8Gb0LXgg7YiFHbWa3bpmNKAauTMjoWoXg+SMQpyT4+to4wEVql/FQ13bo/3wBdjvxuDgTsGggOQUNt5EAiRAAiRAAiRAAiRAAiRAAiTQvAQoIDUv/walX8ydjV49puCL866Knt2gCK89UX0mDx/PG4v4+P7oL8fXiYeIBzTysWcw852NyD1Z4dbg4E6BpIDkFDbeRAIkQAIkQAIkQAIkQAIkQAIk0LwEKCA1L/8GpYugyfmHTGPvNEjUak9cx9XzJTh8QBfnR8Qp0sUDOmslfpDHobIaU8jjLKVBJEACJEACJEACJEACJEACJEACJGAgQAHJgIIHJEACJEACJEACJEACJEACJEACJEACJEAClghQQLJEhedIgARIgARIgARIgARIgARIgARIgARIgAQMBCggGVDwgARIgARIgARIgARIgARIgARIgARIgARIwBIBCkiWqPAcCZAACZAACZAACZAACZAACZAACZAACZCAgcD/ByWv4/yQAJsyAAAAAElFTkSuQmCC;" vertex="1" parent="1">
                    <mxGeometry x="138.97" y="980" width="658.38" height="270" as="geometry"/>
                </mxCell>
                <mxCell id="23" value="" style="endArrow=classic;html=1;fontSize=12;exitX=1;exitY=0.5;exitDx=0;exitDy=0;" edge="1" parent="1">
                    <mxGeometry width="50" height="50" relative="1" as="geometry">
                        <mxPoint x="610" y="569.67" as="sourcePoint"/>
                        <mxPoint x="680" y="569.67" as="targetPoint"/>
                    </mxGeometry>
                </mxCell>
                <mxCell id="24" value="NO" style="edgeLabel;html=1;align=center;verticalAlign=middle;resizable=0;points=[];fontSize=12;" vertex="1" connectable="0" parent="23">
                    <mxGeometry x="0.4143" y="1" relative="1" as="geometry">
                        <mxPoint x="-19" y="1" as="offset"/>
                    </mxGeometry>
                </mxCell>
                <mxCell id="25" value="" style="endArrow=classic;html=1;fontSize=12;exitX=0.528;exitY=1.052;exitDx=0;exitDy=0;exitPerimeter=0;" edge="1" parent="1" source="21">
                    <mxGeometry width="50" height="50" relative="1" as="geometry">
                        <mxPoint x="555" y="670" as="sourcePoint"/>
                        <mxPoint x="685" y="750" as="targetPoint"/>
                        <Array as="points">
                            <mxPoint x="553" y="750"/>
                        </Array>
                    </mxGeometry>
                </mxCell>
                <mxCell id="26" value="YES" style="edgeLabel;html=1;align=center;verticalAlign=middle;resizable=0;points=[];fontSize=12;" vertex="1" connectable="0" parent="25">
                    <mxGeometry x="0.4222" y="-3" relative="1" as="geometry">
                        <mxPoint x="-15" y="-3" as="offset"/>
                    </mxGeometry>
                </mxCell>
                <mxCell id="29" value="State: OFF&lt;br&gt;Status: Short to GND or over temperature" style="rounded=1;whiteSpace=wrap;html=1;fontSize=14;fillColor=#f8cecc;strokeColor=#b85450;" vertex="1" parent="1">
                    <mxGeometry x="840" y="435" width="120" height="70" as="geometry"/>
                </mxCell>
                <mxCell id="40" style="edgeStyle=orthogonalEdgeStyle;html=1;fontSize=14;entryX=0;entryY=0.5;entryDx=0;entryDy=0;" edge="1" parent="1" source="31" target="45">
                    <mxGeometry relative="1" as="geometry">
                        <mxPoint x="900" y="680" as="targetPoint"/>
                        <Array as="points">
                            <mxPoint x="725" y="680"/>
                        </Array>
                    </mxGeometry>
                </mxCell>
                <mxCell id="42" value="Is = 0" style="edgeLabel;html=1;align=center;verticalAlign=middle;resizable=0;points=[];fontSize=14;" vertex="1" connectable="0" parent="40">
                    <mxGeometry x="0.2848" y="-1" relative="1" as="geometry">
                        <mxPoint as="offset"/>
                    </mxGeometry>
                </mxCell>
                <mxCell id="43" style="edgeStyle=orthogonalEdgeStyle;html=1;fontSize=14;" edge="1" parent="1" source="31">
                    <mxGeometry relative="1" as="geometry">
                        <mxPoint x="909.9999999999998" y="750" as="targetPoint"/>
                    </mxGeometry>
                </mxCell>
                <mxCell id="44" value="Is = proportional" style="edgeLabel;html=1;align=center;verticalAlign=middle;resizable=0;points=[];fontSize=14;" vertex="1" connectable="0" parent="43">
                    <mxGeometry x="0.1054" y="2" relative="1" as="geometry">
                        <mxPoint x="-5" y="2" as="offset"/>
                    </mxGeometry>
                </mxCell>
                <mxCell id="47" style="edgeStyle=orthogonalEdgeStyle;html=1;fontSize=14;" edge="1" parent="1" source="31">
                    <mxGeometry relative="1" as="geometry">
                        <mxPoint x="910" y="850" as="targetPoint"/>
                        <Array as="points">
                            <mxPoint x="725" y="850"/>
                        </Array>
                    </mxGeometry>
                </mxCell>
                <mxCell id="48" value="Is &amp;lt; prop. &amp;amp;&amp;amp; Vout = Vbatt" style="edgeLabel;html=1;align=center;verticalAlign=middle;resizable=0;points=[];fontSize=14;" vertex="1" connectable="0" parent="47">
                    <mxGeometry x="0.1252" relative="1" as="geometry">
                        <mxPoint x="8" as="offset"/>
                    </mxGeometry>
                </mxCell>
                <mxCell id="31" value="Current" style="rhombus;whiteSpace=wrap;html=1;fontSize=14;" vertex="1" parent="1">
                    <mxGeometry x="685" y="710" width="80" height="80" as="geometry"/>
                </mxCell>
                <mxCell id="33" value="Current at Is(fault)?" style="rhombus;whiteSpace=wrap;html=1;fontSize=14;" vertex="1" parent="1">
                    <mxGeometry x="680" y="525" width="90" height="90" as="geometry"/>
                </mxCell>
                <mxCell id="34" value="" style="endArrow=classic;html=1;fontSize=12;exitX=0.5;exitY=0;exitDx=0;exitDy=0;" edge="1" parent="1" source="33">
                    <mxGeometry width="50" height="50" relative="1" as="geometry">
                        <mxPoint x="735" y="525" as="sourcePoint"/>
                        <mxPoint x="840" y="470" as="targetPoint"/>
                        <Array as="points">
                            <mxPoint x="725" y="470"/>
                        </Array>
                    </mxGeometry>
                </mxCell>
                <mxCell id="35" value="YES" style="edgeLabel;html=1;align=center;verticalAlign=middle;resizable=0;points=[];fontSize=12;" vertex="1" connectable="0" parent="34">
                    <mxGeometry x="0.4222" y="-3" relative="1" as="geometry">
                        <mxPoint x="-15" y="-3" as="offset"/>
                    </mxGeometry>
                </mxCell>
                <mxCell id="36" value="" style="endArrow=classic;html=1;fontSize=12;exitX=1;exitY=0.5;exitDx=0;exitDy=0;entryX=0;entryY=0.5;entryDx=0;entryDy=0;" edge="1" parent="1" source="33" target="38">
                    <mxGeometry width="50" height="50" relative="1" as="geometry">
                        <mxPoint x="840" y="620" as="sourcePoint"/>
                        <mxPoint x="830" y="570" as="targetPoint"/>
                        <Array as="points">
                            <mxPoint x="780" y="583"/>
                        </Array>
                    </mxGeometry>
                </mxCell>
                <mxCell id="37" value="NO" style="edgeLabel;html=1;align=center;verticalAlign=middle;resizable=0;points=[];fontSize=12;" vertex="1" connectable="0" parent="36">
                    <mxGeometry x="0.4143" y="1" relative="1" as="geometry">
                        <mxPoint x="-19" y="1" as="offset"/>
                    </mxGeometry>
                </mxCell>
                <mxCell id="38" value="State: OFF&lt;br&gt;Status: MCU or MOS control malfunction ot Phy fuse malfunction" style="rounded=1;whiteSpace=wrap;html=1;fontSize=14;fillColor=#f8cecc;strokeColor=#b85450;" vertex="1" parent="1">
                    <mxGeometry x="840" y="535" width="120" height="95" as="geometry"/>
                </mxCell>
                <mxCell id="45" value="State: ON&lt;br&gt;Status: Open load" style="rounded=1;whiteSpace=wrap;html=1;fontSize=14;fillColor=#fff2cc;strokeColor=#d6b656;" vertex="1" parent="1">
                    <mxGeometry x="910" y="650" width="120" height="60" as="geometry"/>
                </mxCell>
                <mxCell id="51" style="edgeStyle=orthogonalEdgeStyle;html=1;fontSize=14;" edge="1" parent="1" source="46" target="55">
                    <mxGeometry relative="1" as="geometry">
                        <mxPoint x="1080" y="750" as="targetPoint"/>
                    </mxGeometry>
                </mxCell>
                <mxCell id="46" value="State: ON&lt;br&gt;Status: OK" style="rounded=1;whiteSpace=wrap;html=1;fontSize=14;fillColor=#d5e8d4;strokeColor=#82b366;" vertex="1" parent="1">
                    <mxGeometry x="910" y="720" width="120" height="60" as="geometry"/>
                </mxCell>
                <mxCell id="49" value="State: ON&lt;br&gt;Status: SHORT TO Vss" style="rounded=1;whiteSpace=wrap;html=1;fontSize=14;fillColor=#f8cecc;strokeColor=#b85450;" vertex="1" parent="1">
                    <mxGeometry x="910" y="820" width="120" height="60" as="geometry"/>
                </mxCell>
                <mxCell id="55" value="Soc current check" style="rhombus;whiteSpace=wrap;html=1;fontSize=14;" vertex="1" parent="1">
                    <mxGeometry x="1100" y="704" width="90" height="90" as="geometry"/>
                </mxCell>
                <mxCell id="56" value="" style="endArrow=classic;html=1;fontSize=12;exitX=0.5;exitY=0;exitDx=0;exitDy=0;entryX=0;entryY=0.5;entryDx=0;entryDy=0;" edge="1" parent="1" source="55" target="66">
                    <mxGeometry width="50" height="50" relative="1" as="geometry">
                        <mxPoint x="1155" y="704" as="sourcePoint"/>
                        <mxPoint x="1280" y="649" as="targetPoint"/>
                        <Array as="points">
                            <mxPoint x="1145" y="649"/>
                        </Array>
                    </mxGeometry>
                </mxCell>
                <mxCell id="57" value="I &amp;gt; soc(i_trip)" style="edgeLabel;html=1;align=center;verticalAlign=middle;resizable=0;points=[];fontSize=12;" vertex="1" connectable="0" parent="56">
                    <mxGeometry x="0.4222" y="-3" relative="1" as="geometry">
                        <mxPoint x="-15" y="-3" as="offset"/>
                    </mxGeometry>
                </mxCell>
                <mxCell id="58" value="" style="endArrow=classic;html=1;fontSize=12;exitX=1;exitY=0.5;exitDx=0;exitDy=0;" edge="1" parent="1" source="55">
                    <mxGeometry width="50" height="50" relative="1" as="geometry">
                        <mxPoint x="1260" y="799" as="sourcePoint"/>
                        <mxPoint x="1280" y="749" as="targetPoint"/>
                    </mxGeometry>
                </mxCell>
                <mxCell id="59" value="I &amp;lt; soc(i_trip)" style="edgeLabel;html=1;align=center;verticalAlign=middle;resizable=0;points=[];fontSize=12;" vertex="1" connectable="0" parent="58">
                    <mxGeometry x="0.4143" y="1" relative="1" as="geometry">
                        <mxPoint x="-19" y="1" as="offset"/>
                    </mxGeometry>
                </mxCell>
                <mxCell id="68" style="edgeStyle=orthogonalEdgeStyle;html=1;fontSize=14;" edge="1" parent="1" source="66">
                    <mxGeometry relative="1" as="geometry">
                        <mxPoint x="1530" y="579" as="targetPoint"/>
                        <Array as="points">
                            <mxPoint x="1335" y="579"/>
                        </Array>
                    </mxGeometry>
                </mxCell>
                <mxCell id="69" value="t &amp;gt; soc(t_trip)" style="edgeLabel;html=1;align=center;verticalAlign=middle;resizable=0;points=[];fontSize=14;" vertex="1" connectable="0" parent="68">
                    <mxGeometry x="0.4909" relative="1" as="geometry">
                        <mxPoint x="-32" as="offset"/>
                    </mxGeometry>
                </mxCell>
                <mxCell id="73" style="edgeStyle=orthogonalEdgeStyle;html=1;fontSize=12;" edge="1" parent="1" source="66">
                    <mxGeometry relative="1" as="geometry">
                        <mxPoint x="1530" y="649" as="targetPoint"/>
                        <Array as="points">
                            <mxPoint x="1445" y="646"/>
                            <mxPoint x="1445" y="649"/>
                        </Array>
                    </mxGeometry>
                </mxCell>
                <mxCell id="74" value="&lt;span style=&quot;font-size: 14px;&quot;&gt;t &amp;lt; soc(t_trip)&lt;/span&gt;" style="edgeLabel;html=1;align=center;verticalAlign=middle;resizable=0;points=[];fontSize=12;" vertex="1" connectable="0" parent="73">
                    <mxGeometry x="-0.3346" y="-2" relative="1" as="geometry">
                        <mxPoint x="13" y="-2" as="offset"/>
                    </mxGeometry>
                </mxCell>
                <mxCell id="66" value="&lt;span style=&quot;font-size: 12px;&quot;&gt;Soc timers&lt;br&gt;check&lt;/span&gt;" style="rhombus;whiteSpace=wrap;html=1;fontSize=14;" vertex="1" parent="1">
                    <mxGeometry x="1280" y="589" width="110" height="115" as="geometry"/>
                </mxCell>
                <mxCell id="85" style="edgeStyle=orthogonalEdgeStyle;html=1;fontSize=12;" edge="1" parent="1" source="67" target="83">
                    <mxGeometry relative="1" as="geometry"/>
                </mxCell>
                <mxCell id="67" value="State: ON&lt;br&gt;Status: OK" style="rounded=1;whiteSpace=wrap;html=1;fontSize=14;fillColor=#d5e8d4;strokeColor=#82b366;" vertex="1" parent="1">
                    <mxGeometry x="1280" y="719" width="120" height="60" as="geometry"/>
                </mxCell>
                <mxCell id="84" style="edgeStyle=orthogonalEdgeStyle;html=1;fontSize=12;" edge="1" parent="1" source="76" target="83">
                    <mxGeometry relative="1" as="geometry"/>
                </mxCell>
                <mxCell id="76" value="t++" style="rounded=0;whiteSpace=wrap;html=1;fontSize=12;" vertex="1" parent="1">
                    <mxGeometry x="1530" y="619" width="90" height="58" as="geometry"/>
                </mxCell>
                <mxCell id="80" style="edgeStyle=orthogonalEdgeStyle;html=1;fontSize=12;" edge="1" parent="1" source="78" target="79">
                    <mxGeometry relative="1" as="geometry"/>
                </mxCell>
                <mxCell id="78" value="Disable output" style="rounded=0;whiteSpace=wrap;html=1;fontSize=12;" vertex="1" parent="1">
                    <mxGeometry x="1530" y="546" width="90" height="58" as="geometry"/>
                </mxCell>
                <mxCell id="82" style="edgeStyle=orthogonalEdgeStyle;html=1;entryX=0;entryY=0.5;entryDx=0;entryDy=0;fontSize=12;" edge="1" parent="1" source="79" target="81">
                    <mxGeometry relative="1" as="geometry"/>
                </mxCell>
                <mxCell id="79" value="State: OFF&lt;br&gt;Status: SOC" style="rounded=1;whiteSpace=wrap;html=1;fontSize=14;fillColor=#f8cecc;strokeColor=#b85450;" vertex="1" parent="1">
                    <mxGeometry x="1680" y="540" width="120" height="70" as="geometry"/>
                </mxCell>
                <mxCell id="90" style="edgeStyle=orthogonalEdgeStyle;html=1;fontSize=12;" edge="1" parent="1" source="81">
                    <mxGeometry relative="1" as="geometry">
                        <mxPoint x="2460" y="575.0000000000002" as="targetPoint"/>
                    </mxGeometry>
                </mxCell>
                <mxCell id="81" value="Perform on error fallback&amp;nbsp;" style="rounded=0;whiteSpace=wrap;html=1;fontSize=12;" vertex="1" parent="1">
                    <mxGeometry x="2070" y="542" width="120" height="66" as="geometry"/>
                </mxCell>
                <mxCell id="86" style="edgeStyle=orthogonalEdgeStyle;html=1;fontSize=12;" edge="1" parent="1" source="83">
                    <mxGeometry relative="1" as="geometry">
                        <mxPoint x="1900" y="749" as="targetPoint"/>
                    </mxGeometry>
                </mxCell>
                <mxCell id="83" value="I^2t check" style="rounded=1;whiteSpace=wrap;html=1;fontSize=12;" vertex="1" parent="1">
                    <mxGeometry x="1720" y="719" width="120" height="60" as="geometry"/>
                </mxCell>
                <mxCell id="88" style="edgeStyle=orthogonalEdgeStyle;html=1;fontSize=12;" edge="1" parent="1" source="87">
                    <mxGeometry relative="1" as="geometry">
                        <mxPoint x="2130" y="609" as="targetPoint"/>
                    </mxGeometry>
                </mxCell>
                <mxCell id="87" value="Heat model check" style="rounded=1;whiteSpace=wrap;html=1;fontSize=12;" vertex="1" parent="1">
                    <mxGeometry x="1900" y="719" width="120" height="60" as="geometry"/>
                </mxCell>
                <mxCell id="93" value="&lt;b style=&quot;border-color: var(--border-color); font-size: 21px;&quot;&gt;&lt;i style=&quot;border-color: var(--border-color);&quot;&gt;Hardware switch state evaluation&lt;/i&gt;&lt;/b&gt;" style="text;html=1;strokeColor=none;fillColor=none;align=center;verticalAlign=middle;whiteSpace=wrap;rounded=0;dashed=1;dashPattern=8 8;strokeWidth=4;fontSize=12;" vertex="1" parent="1">
                    <mxGeometry x="220" y="170" width="360" height="30" as="geometry"/>
                </mxCell>
                <mxCell id="96" value="&lt;span style=&quot;font-size: 21px;&quot;&gt;&lt;b&gt;&lt;i&gt;Software protections evaluation&lt;/i&gt;&lt;/b&gt;&lt;/span&gt;" style="text;html=1;strokeColor=none;fillColor=none;align=center;verticalAlign=middle;whiteSpace=wrap;rounded=0;dashed=1;dashPattern=8 8;strokeWidth=4;fontSize=12;" vertex="1" parent="1">
                    <mxGeometry x="1180" y="170" width="360" height="30" as="geometry"/>
                </mxCell>
                <mxCell id="98" value="" style="endArrow=classic;html=1;fontSize=21;exitX=1;exitY=0.5;exitDx=0;exitDy=0;entryX=0.5;entryY=1;entryDx=0;entryDy=0;" edge="1" parent="1" source="49" target="55">
                    <mxGeometry width="50" height="50" relative="1" as="geometry">
                        <mxPoint x="1390" y="610" as="sourcePoint"/>
                        <mxPoint x="1440" y="560" as="targetPoint"/>
                        <Array as="points">
                            <mxPoint x="1145" y="850"/>
                        </Array>
                    </mxGeometry>
                </mxCell>
            </root>
        </mxGraphModel>
    </diagram>
</mxfile>